<svg xmlns="http://www.w3.org/2000/svg" xmlns:xlink="http://www.w3.org/1999/xlink" width="321" height="214" fill="none" xmlns:v="https://vecta.io/nano"><style><![CDATA[.B{fill:#103b5d}.C{fill:#fff}.D{fill:#159fbb}.E{fill:#e67d22}.F{fill:#ffccdf}.G{fill:#dfedf6}.H{fill:#b68758}.I{fill:#172937}.J{stroke:#103b5d}.K{stroke-miterlimit:10}.L{fill:#9daab3}.M{opacity:.09}.N{stroke-width:.25}.O{fill:#9daab4}.P{fill:#0e3457}.Q{stroke-width:.2}.R{fill:#d3eaf2}.S{fill:#d4eaf2}]]></style><path d="M38.7 63.8c-.1 0-.2-.1-.2-.2 0 0 0-.1.1-.4 0-.1.1-.2.2-.2s.2.1.2.2c0 .2-.1.4-.1.4 0 .1-.1.2-.2.2zm79.2 28.6c.1-.1.1-.2 0-.3l-.3-.3c-.1-.1-.2-.1-.3 0s-.1.2 0 .3l.3.3s.1.1.2.1c0-.1.1-.1.1-.1zm-2.3-2.8c.1-.1.1-.2 0-.3l-.5-.6c-.1-.1-.2-.1-.3 0s-.1.2 0 .3l.5.6s.1.1.2.1c0-.1.1-.1.1-.1zm-2.6-3.2c.1-.1.1-.2 0-.3l-.5-.6c-.1-.1-.2-.1-.3 0s-.1.2 0 .3l.5.6s.1.1.2.1.1 0 .1-.1zm-2.5-3.1c.1-.1.1-.2 0-.3l-.5-.6c-.1-.1-.2-.1-.3 0s-.1.2 0 .2l.5.6.1.1h.2zm-2.5-3.2c.1-.1.1-.2 0-.3l-.5-.6c-.1-.1-.2-.1-.3 0s-.1.2 0 .3l.5.6c.1.1.2.1.3 0zm-2.5-3.2c.1-.1.1-.2 0-.3l-.5-.6c-.1-.1-.2-.1-.3 0s-.1.2 0 .3l.5.6.1.1c.1 0 .2 0 .2-.1zm-2.5-3.1c.1-.1.1-.2 0-.3l-.5-.6c-.1-.1-.2-.1-.3 0s-.1.2 0 .3l.5.6s.1.1.2.1c0-.1.1-.1.1-.1zm-2.5-3.2c.1-.1.1-.2 0-.3l-.5-.6c-.1-.1-.2-.1-.3-.1-.1.1-.1.2-.1.3l.5.6c.1.2.2.2.4.1-.1 0-.1 0 0 0zm-2.6-3.1c.1-.1.1-.2 0-.3l-.5-.6c-.1-.1-.2-.1-.3 0s-.1.2 0 .3l.5.6s.1.1.2.1c0-.1.1-.1.1-.1zm-2.6-3.1c.1-.1.1-.2 0-.3l-.5-.6c-.1-.1-.2-.1-.3 0s-.1.2 0 .3l.5.6.1.1c.2 0 .2-.1.2-.1zm-2.6-3c.1-.1.1-.2 0-.3l-.6-.6c-.1-.1-.2-.1-.3 0s-.1.2 0 .3l.5.6.1.1c.2 0 .3-.1.3-.1zm-52.9-1.2c.1-.2.2-.5.3-.8 0-.1 0-.2-.1-.3-.1 0-.2 0-.3.1l-.3.8c0 .1 0 .2.1.3h.1c.1 0 .2-.1.2-.1zm50.1-1.8c.1-.1.1-.2 0-.3l-.6-.6c-.1-.1-.2-.1-.3 0s-.1.2 0 .3l.6.6.1.1c.1 0 .2-.1.2-.1zm-48.5-2l.4-.7c.1-.1 0-.2-.1-.3s-.2 0-.3.1c-.1.2-.3.5-.4.7-.1.1 0 .2.1.3h.1c.1 0 .1 0 .2-.1zm45.6-.8c.1-.1.1-.2 0-.3l-.6-.6c-.1-.1-.2-.1-.3 0s-.1.2 0 .3l.6.6.1.1.2-.1zM43.5 53c.2-.2.3-.4.5-.6.1-.1.1-.2 0-.3s-.2-.1-.3 0l-.5.6c-.1.1-.1.2 0 .3h.1.2zm40.5-.2c.1-.1.1-.2 0-.3l-.6-.5c-.1-.1-.2-.1-.3 0s-.1.2 0 .3l.6.5h.1c.1.1.2.1.2 0zm-3.2-2.4c.1-.1 0-.2-.1-.3l-.7-.4c-.1-.1-.2 0-.3.1s0 .2.1.3l.7.4h.1c.1 0 .2-.1.2-.1zM46.1 50l.6-.5c.1-.1.1-.2 0-.3s-.2-.1-.2 0l-.6.6c-.1.1-.1.2 0 .3l.1.1c.1-.1.1-.2.1-.2zm31.2-1.7c.1-.1 0-.2-.1-.3l-.7-.4c-.1-.1-.2 0-.3.1s0 .2.1.3c.2.1.5.2.7.4h.1c.1 0 .2 0 .2-.1zm-28-.7l.7-.4c.1-.1.1-.2.1-.3-.1-.1-.2-.1-.3-.1l-.7.4c-.1.1-.1.2-.1.3.1.1.2.1.3.1zm24.4-.9c0-.1 0-.2-.1-.3l-.8-.3c-.1 0-.2 0-.3.1 0 .1 0 .2.1.2l.8.3h.1c.1.1.1 0 .2 0zM53 45.9l.8-.2c.1 0 .2-.2.1-.3 0-.1-.1-.2-.2-.1l-.8.3c-.1 0-.2.1-.1.3-.1-.1 0 0 .2 0zm16.8-.5c0-.1 0-.2-.1-.2l-.8-.2c-.1 0-.2.1-.2.2s0 .2.1.2l.8.2c.1 0 .2-.1.2-.2zm-13-.5l.8-.1c.1 0 .2-.1.2-.2s-.1-.2-.2-.2l-.8.1c-.1 0-.2.1-.2.2s.1.2.2.2zm9-.3c0-.1-.1-.2-.2-.2-.3 0-.5-.1-.8-.1-.1 0-.2.1-.2.2s.1.2.2.2l.8.1c.1.1.2 0 .2-.2 0 .1 0 .1 0 0zm-5-.1h.8c.1 0 .2-.1.2-.2s-.1-.2-.2-.2h-.8c-.1 0-.2.1-.2.2 0 .2.1.2.2.2zm227.4 40.1c-.1 0-.3-.1-.3-.3 0-.1.1-.3.3-.3l1.1-.2c.1 0 .3.1.3.2s-.1.3-.2.3l-1.2.3zm5.3-1.1c-.1 0-.3-.1-.3-.2s.1-.2.2-.3c.3-.1.7-.2 1-.4.1-.1.3 0 .3.2.1.1 0 .3-.1.3l-1 .4h-.1zm4.9-2.5c-.1 0-.2 0-.2-.1-.1-.1-.1-.3 0-.4.3-.2.5-.5.8-.7.1-.1.3-.1.4 0s.1.3 0 .4c-.3.3-.5.5-.8.7-.1.1-.2.1-.2.1zm2.7-4.4c-.1 0-.3-.1-.3-.3v-1.1c0-.1.1-.3.3-.3s.3.1.3.3v1.1c0 .2-.1.3-.3.3h0zm.2-5.4c-.2 0-.3-.1-.3-.3v-1.1c0-.1.1-.3.3-.3.1 0 .3.1.3.3v1.1c-.1.1-.2.3-.3.3zm0-5.5c-.2 0-.3-.1-.3-.3v-1.1c0-.2.1-.3.3-.3.1 0 .3.1.3.3v1.1c-.1.2-.2.3-.3.3zm-.1-5.4c-.1 0-.3-.1-.3-.2V59c0-.2.1-.3.3-.3.1 0 .3.1.3.3v1.1s-.2.2-.3.2zm-.2-5.4c-.1 0-.3-.1-.3-.3v-1.1c0-.2.2-.3.3-.2.1 0 .2.1.2.2v1.1c.1.1 0 .3-.2.3zm-.1-5.5c-.1 0-.3-.1-.3-.2v-1.1c0-.1.1-.3.3-.3s.3.1.3.3v1.1c-.1.1-.2.2-.3.2zm-.2-5.4c-.1 0-.3-.1-.3-.3v-1.1c0-.2.1-.3.3-.3.1 0 .3.1.3.3v1.1c0 .1-.1.3-.3.3zm-.1-5.5c-.1 0-.3-.1-.3-.3v-1.1c0-.2.1-.3.3-.3s.3.1.3.3v1.1c0 .2-.1.3-.3.3zm0-5.5c.1 0 .3-.1.3-.3v-.6c0-.1-.1-.3-.3-.3-.1 0-.3.1-.3.3v.6c.1.1.2.3.3.3z" class="D"/><path d="M282.1 200c-16.3 3.5-36.7 6.9-59 9.4-54.7 6.3-99.6 5.5-100.5-1.7s42.8-18.2 97.5-24.5l18.8-1.9c4.3-2.1 10.7-3.8 18.3-4.9-16 .5-35.1.8-55.6.8-14 0-27.3-.1-39.5-.4.3.2.5.6.5 1 0 4.7-36.2 8.5-80.9 8.5-8.4 0-16.5-.1-24.1-.4v.1c0 2.7-10 5-22.4 5s-22.4-2.2-22.4-5c0-1.1 1.7-2.2 4.6-3C6.9 181.6.7 179.8.7 177.8c0-4.7 36.2-8.5 80.9-8.5 9.7 0 19 .2 27.6.5 16.4-1.8 51.6-3 92.3-3 56.4 0 102.1 2.3 102.1 5.2 0 1.2-7.8 2.3-20.8 3.1 14 .5 25.9 2.9 32.5 6.2 3.2.9 5 2.1 5.2 3.5 0 .2 0 .5-.1.7.4.6.5 1.3.5 2 .3 6.6-16.8 11.8-38.8 12.5z" fill="#eaeff2"/><path d="M261.7 171.3V22.9c-.1-2.9-2.5-5.3-5.5-5.2H120.5c-2.9-.1-5.4 2.3-5.5 5.2v148.4h146.7z" class="D"/><g class="B"><path d="M261.9 171.5h-.1l-146.8-.1V22.9c.1-3 2.6-5.4 5.6-5.3h135.7c3-.1 5.5 2.3 5.6 5.3v148.6zm-146.7-.4l146.4.1V22.9c-.1-2.9-2.5-5.1-5.3-5.1H120.5c-2.9-.1-5.2 2.2-5.3 5.1v148.2z"/><path d="M256.2 17.6H120.5c-1.7 0-3.4.8-4.4 2.2.9-.5 1.8-.7 2.8-.8h135.7c2.9-.1 5.4 2.3 5.5 5.2v147h1.6V22.9a5.44 5.44 0 0 0-5.5-5.3z" class="M"/><path d="M215.9 17.9h-46.8v5.7h46.8v-5.7z"/></g><path d="M254.3 25.5H123.4V170.9H254.3V25.5Z" class="C"/><path d="M254.4 171H123.2V25.4h131.2V171zm-130.8-.3h130.5V25.6H123.6v145.1z" class="B"/><path d="M247.9 169.1V30.7c-69.5-4.6-48.8 41.3-81.1 76.4-23.3 25.4-40.6 50.2-40.4 62h121.5z" class="R"/><path d="M200.6 14.1c6.4-18-23.8-18-17.4 0h-15.5v8.3h46.8v-8.3h-13.9zM187.5 10c-.1-5.7 8.9-5.7 8.8 0s-8.9 5.6-8.8 0z" class="L"/><path d="M214.6 22.5h-47.1V14h15.4c-2.3-6.7.6-10.1 2.6-11.6 3.8-2.6 8.9-2.6 12.7 0 2 1.4 4.9 4.8 2.6 11.6h13.9l-.1 8.5zm-46.8-.3h46.5v-8h-14l.1-.2c2.4-6.7-.5-10-2.4-11.4-3.7-2.6-8.6-2.6-12.4 0-1.9 1.4-4.7 4.8-2.4 11.4l.1.2h-15.6l.1 8zm24-7.8c-.9 0-1.8-.2-2.5-.7-2.1-1.4-2.7-4.1-1.3-6.2a4.04 4.04 0 0 1 1.3-1.3c1.6-.9 3.4-.9 5 0 2.1 1.3 2.7 4.1 1.3 6.2a4.67 4.67 0 0 1-1.4 1.4c-.7.3-1.5.6-2.4.6zm0-8.6c-.8 0-1.6.2-2.4.6-1.2.7-2 2.1-1.9 3.5-.1 1.4.6 2.7 1.9 3.5 1.5.8 3.3.8 4.7 0 1.9-1.2 2.5-3.8 1.3-5.7-.3-.5-.7-.9-1.3-1.3-.7-.3-1.4-.6-2.3-.6z" class="B"/><path d="M246.7 59.2H134.2v-7.7h112.4v7.7h.1zm-112.2-.3h111.8v-7.1H134.5v7.1zm112.2 16H134.2v-7.7h112.4v7.7h.1zm-112.2-.3h111.8v-7.1H134.5v7.1zm112.2 17.7H134.2v-7.7h112.4l.1 7.7zM134.5 92h111.8v-7.1H134.5V92zm112.2 17.5H134.2v-7.7h112.4l.1 7.7zm-112.2-.3h111.8v-7.1H134.5v7.1zm112.2 17.7H134.2v-7.7h112.4l.1 7.7zm-112.2-.3h111.8v-7.1H134.5v7.1zm112.2 16H134.2v-7.7h112.4l.1 7.7zm-112.2-.3h111.8v-7.1H134.5v7.1zM246.7 160H134.2v-7.7h112.4l.1 7.7zm-112.2-.4h111.8v-7H134.5v7z" class="L"/><path d="M232.3 44.7h-88.2c-2.6 0-4.7-2.1-4.7-4.7v-2.7c0-2.6 2.1-4.7 4.7-4.7h88.2c2.6 0 4.7 2.1 4.7 4.7V40c-.1 2.6-2.2 4.7-4.7 4.7zm-88.2-11.6c-2.4 0-4.3 1.9-4.3 4.3v2.7c0 2.3 1.9 4.2 4.3 4.2h88.2a4.23 4.23 0 0 0 4.2-4.2v-2.7c0-2.3-1.9-4.3-4.2-4.3h-88.2zm.8 10.5h86.5a4.48 4.48 0 0 0 4.5-4.5v-1a4.48 4.48 0 0 0-4.5-4.5h-86.5c-2.5 0-4.5 2-4.5 4.4v1c0 2.6 2 4.6 4.5 4.6z" class="B"/><path d="M191.6 40.2l-4.2-1.6-4.2 1.6-4.2-1.6-4.1 1.6-4.2-1.6-4.2 1.6-4.3-1.6.2-.4 4.1 1.6 4.2-1.6 4.2 1.6 4.1-1.6 4.2 1.6 4.2-1.6 4.2 1.6 4.2-1.6 4.2 1.6 4.1-1.6 4.2 1.6 4.2-1.6 4.3 1.6-.2.4-4.1-1.6-4.2 1.6-4.2-1.6-4.1 1.6-4.2-1.6-4.2 1.6z" class="L"/><g class="B"><path opacity=".2" d="M178.6 23.1c4.4-2 9.2-3 14-3.1 8.4-.1 13.6 3.2 13.6 3.2l-27.6-.1zm20.1-13.3c0 3.7-3 6.6-6.6 6.6-3.7 0-6.6-3-6.6-6.6s3-6.6 6.6-6.6 6.6 2.9 6.6 6.6zm-2 0c0-2.5-2-4.6-4.6-4.6-2.5 0-4.6 2-4.6 4.6s2 4.6 4.6 4.6c2.5-.1 4.5-2.1 4.6-4.6z"/><path d="M314.4 185.3s-6.5 12.1-35.5 11.7h-.8c-29 .4-35.5-11.7-35.5-11.7s-1.3-64.4-.2-73.2 4.5-9.6 7.5-10.3c8.6-1.8 5.9-7.5 5.9-7.5l22.4-.6h.9l22.4.6s-2.6 5.9 5.9 7.5c3 .7 6.4 1.6 7.5 10.3s-.5 73.2-.5 73.2z"/></g><path d="M247.4 105.2c2.3-1.3 4.6-1.6 5.2-.6s-.8 2.9-3.1 4.2-4.6 1.6-5.2.6.8-2.9 3.1-4.2z" class="C"/><path d="M315 116.8c0-.2 0 0-.3 0 0 0-9.6 4.9-29.4 5.3-22.2.4-33.2-1.9-33.2-1.9-5.7-.6-6.1 4-6.1 6.8l.1 24.7-.1 24.8c0 2.9.5 6.6 5.4 8.5 1.1.4 8.3 4.7 30.5 4.9 17.5 0 25.3-5 29.1-7.5 2.1-1.3 3.4-3 3.4-5.4l.6-33.4v-26.8z" class="E"/><path d="M315 117.5c0-.2 0 0-.3 0 0 0-9.6 4.8-29.4 5.2-22.2.4-33.2-1.9-33.2-1.9-5.7-.6-6.1 3.9-6.1 6.8l.1 24.5-.1 24.6c0 2.8.5 6.6 5.4 8.4 1.1.4 8.3 4.7 30.5 4.8 17.5 0 25.3-4.9 29.1-7.4 2.1-1.3 3.4-3 3.4-5.4l.6-33.1v-26.5z" class="C"/><g class="E"><path d="M281.9 190.2c-9.3 0-22.1-.9-30.1-4.6l-.4-.2c-4.9-1.9-5.5-5.6-5.5-8.6l.1-24.6-.1-24.5c0-2.1.2-4.4 1.8-5.8 1.3-1 2.9-1.4 4.5-1.1.1 0 11.3 2.3 33.2 1.9 19.5-.4 29.2-5.2 29.3-5.2h.2l.1-.1h.1c.1.1.1.2.1.3v26.6l-.5 33.1c0 2.3-1.1 4-3.5 5.5-3.8 2.3-11.6 7.3-29.3 7.3zm-30.8-69.1a4.43 4.43 0 0 0-3.3 1.1c-1.4 1.3-1.6 3.5-1.6 5.5l.1 24.5-.1 24.6c0 2.9.6 6.4 5.3 8.2.1 0 .2.1.4.2 8 3.7 20.7 4.6 30 4.6 17.6 0 25.3-5 29-7.4 2.3-1.4 3.3-3.1 3.3-5.2l.5-33.1v-26.4h-.1c-.7.4-10.5 4.8-29.4 5.2-21.9.4-33.1-1.8-33.3-1.9-.2.1-.5.1-.8.1z"/><path d="M251.6 133.6a.61.61 0 0 1 0-.8c.2-.2.4-.2 1.2 0 13.6 2.8 30.4 3 47.4.5.3-.1.7.1.7.4.1.3-.1.7-.4.7h-.1c-7.8 1.2-15.7 1.8-23.6 1.8-8.1 0-16.2-.7-24.1-2.3l-.5-.1c-.3 0-.5 0-.6-.2zm.4-4.5l.5.1c8 1.6 16.1 2.4 24.2 2.3 7.9 0 15.8-.6 23.6-1.8.3 0 .6-.4.5-.7 0-.3-.4-.6-.7-.5-17 2.5-33.8 2.4-47.4-.5-.8-.2-1-.2-1.2 0s-.3.6 0 .9c.2 0 .4.1.5.2zm-.6 44.9l.3.1c8.3 2.7 16.9 4.1 25.6 4 10.7-.1 21.2-1.9 31.3-5.4.3-.1.5-.4.5-.7-.1-.3-.4-.5-.7-.5h-.1c-27.1 9.3-48.3 4-56.1 1.4-.5-.2-.9-.3-1.1.1-.2.2-.1.6.1.8 0 .1.1.1.2.2zm56.8 3c-27.1 9.3-48.3 4-56.1 1.4-.5-.2-.9-.3-1.1.1-.2.2-.1.5.1.8.1.1.2.2.4.2l.3.1c8.3 2.7 16.9 4.1 25.6 4 10.7-.1 21.2-1.9 31.3-5.4.3-.1.5-.4.5-.7-.1-.3-.4-.5-.7-.5-.2-.1-.3-.1-.3 0zm6.4-8.2h-1.9a.68.68 0 0 1-.7-.7v-38.7c0-.4.3-.7.7-.8h2.1v-.7h-2.1a1.54 1.54 0 0 0-1.5 1.5V168c0 .8.6 1.5 1.4 1.5h1.9l.1-.7z"/></g><path d="M314.9 115.6c0-1.1-.1-1.9-.2-2.5-.9-6.9-3.3-8.9-5.7-9.7 2.8 8.2.9 18.8.9 28.6 0 33.9-23 54.9-46.1 54.9-10.9 0-13.3-.9-20.8-10.8l.2 9.2s6.5 12 35.2 11.5h.8c28.7.4 35.2-11.5 35.2-11.5l.2-9.6v-.5l.1-7.7h.1v-.7h-.1l.4-24.3v-26.9c0-.2 0 0-.2 0z" class="B M"/><path d="M306.9 87.6c-.3-2.8-13.2-3.7-28.8-3.7s-28.1.9-28.6 3.7v9c0 2.8 12.8 5.1 28.7 5.1s28.7-2.2 28.7-5.1v-9h0z" class="R"/><path d="M278.3 101.8c-16.1 0-28.8-2.3-28.8-5.2v-9c.4-2.5 10.1-3.8 28.7-3.8 18.9 0 28.6 1.3 28.9 3.8v9c-.1 3-12.7 5.2-28.8 5.2zm-.2-17.7c-23 0-28.2 2-28.5 3.6v9c0 2.7 12.8 5 28.6 5s28.6-2.2 28.6-5v-9c-.2-1.7-5.3-3.6-28.7-3.6z" class="B"/><path d="M278.4 91c15.851 0 28.7-1.701 28.7-3.8s-12.849-3.8-28.7-3.8-28.7 1.701-28.7 3.8 12.849 3.8 28.7 3.8z" class="C"/><path d="M278.4 91.1c-14.1 0-28.8-1.5-28.8-3.9s14.6-3.9 28.8-3.9 28.8 1.5 28.8 3.9-14.7 3.9-28.8 3.9zm0-7.6c-17.1 0-28.6 1.9-28.6 3.7s11.5 3.7 28.6 3.7S307 89 307 87.2s-11.5-3.7-28.6-3.7zm-12.2 87.1c8.339 0 15.1-6.76 15.1-15.1s-6.761-15.1-15.1-15.1-15.1 6.761-15.1 15.1 6.76 15.1 15.1 15.1z" class="B"/><path d="M266.2 169.1c7.511 0 13.6-6.089 13.6-13.6s-6.089-13.6-13.6-13.6-13.6 6.089-13.6 13.6 6.089 13.6 13.6 13.6z" class="C"/><g class="B"><path d="M270.9 154.6l-.2-6.1c-.1-2.7-2.3-4.8-5-4.7s-4.8 2.3-4.7 5l.2 6c4.2 2 8.4.4 9.7-.2zm-4.5 12.6c2.7-.1 4.8-2.3 4.7-5l-.2-6.6c-1.6.7-5.6 2-9.7.2l.2 6.7c.1 2.6 2.4 4.8 5 4.7z"/><path d="M298.6 71.9c2.4-5.6-7.6-18.3-10.5-21.7-.2-.3-.5-.5-.8-.8 0-.5 0-.9-.2-1.3-.3-.4-.6-.7-1-.9 0-.1-.1-.2-.3-.2-.1-.3-.3-.5-.5-.8.1-1.5.3-5.2.3-6.8V39c.1-1.3.1-2.8.1-4.1 0-.1.1-.1.1-.2l-.1 2.3c2.5 0 2.9-1.4 2.9-3.6 0-.5-.1-1-.5-1.4h.1v-.2-1c.1-3.2.8-6.1-5.1-6.5-.6 0-.8-1.5-3.9-1.6-5 0-4.8 4.3-5 7v1.2c-.5.1-.9.5-.9 1.1v2.4c0 .6.5 1.1 1 1.1h.7c-.1 3-.6 6.8 2.9 8l.2.5s0 .1.1.1l-.1 2c-.4.2-.6.5-.8.8v.1l-.1.2h-.2a6.57 6.57 0 0 0-2.9 1.7c-15.6 2-18.9-11.6-18.9-11.6l-.7.8-.1-.3.2-.4c.1-.6.2-1.3.1-1.9-.1-.7.8-2.3.7-2.5s-.4-.4-.6-.3c-.1 0-.1.1-.2.1-.6.7-1 1.6-1.1 2.5l-.3-.3-1-3.1c-.2-.9-.5-1.3-.8-1s.2 2.1.5 3h-.2c-.3-.6-.7-1.5-.8-1.7-.4-.9-.7-1.2-.9-.9s.4 1.9.8 2.8h-.1c-.4-.6-.9-1.4-1-1.7-.5-.8-.9-1-1-.6.3 1 .7 1.9 1.2 2.7l-.3.1c-.3-.4-.7-.8-.8-1-.5-.8-.9-.9-1-.6s1 1.9 1.1 2.3a7.73 7.73 0 0 0 2.9 4l.3.5.1.4-.5.6s4.2 12.3 17.8 12.9c.8.1 1.5.1 2.3 0h.2c-.2 3.7.6 9.4-.5 14.7-.8 3.9-1.6 12.4-2 16.8-3.7.7-6 1.7-6 2.8 0 .9 1.6 1.8 4.2 2.4-2.3 2.1-4 4.8-5 7.8-1.8 5.4-5.7 21.1-5.7 21.1.2.2.5.4.8.6-2 .2-4 .6-6 1.1-2 .7 7.7 2 8.5 2.1.5.1.9-1.2 1-1.9 1.1.3 2 .4 2 .4 1.8-8.7 3.2-22.7 12.3-28.6-1.8 2.1-3.3 4.5-4.3 7.1-1.8 5.1-.7 21.9-.7 21.9.6.5 1.3.7 2 .8-1.9 1.2-3.6 2.5-5.3 3.9-1.5 1.5 7.8-1.6 8.5-1.8.5-.2.3-1.5.1-2.2.8-.1 1.4-.2 1.4-.2s.7-15.9 2.5-20.6c.8-2 4.4-9.2 7.4-10.2l.8-.2 1.4-.2c4.1-.1 7.3-1.2 7.3-2.6 0-.1 0-.2-.1-.4v-.1c0-.9-1.4-1.7-3.8-2.3-.7-2.5-1.3-5.1-1.6-7.7 3.4-.9 6-3.2 7.4-6.3zm-23.4-44.3c.1-.5.4-1.1.8-1.4-.3.4-.6.9-.8 1.4zm15.2 31.9c7.9 11 2.2 12.8.2 13 0-.3 0-.5-.1-.8 0-.5-.1-1-.1-1.6l2.5-6.1h-.4-2.3v-3.4l.2-1.1zm-12.5-13.3v.1h-.1l.1-.1zm-1 2.3v-.2l.2.7h-.4l.2-.5z" class="M"/></g><path d="M252.7 34a.78.78 0 0 0-.4-.4c-.2 0-.4 0-.5.2-.6.7-1 1.6-1.2 2.5l-1-3.3c-.1-.7-.4-1.1-.7-1.1-.1 0-.2 0-.3.1-.2.2.1 1.8.4 2.9-.3-.6-.6-1.4-.7-1.6-.3-.7-.6-1-.8-1-.1 0-.2.1-.3.2-.2.2.2 1.5.6 2.4l-.5-.8-.2-.4c-.4-.6-.7-.8-.9-.8-.1 0-.2.1-.3.2-.1.3.6 1.7 1.1 2.6l-.2-.2c-.2-.3-.4-.5-.5-.6-.4-.6-.7-.8-.9-.8-.1 0-.2.1-.3.2-.1.2.2.8.7 1.6.2.3.3.5.4.8.5 1.6 1.6 3.1 3 4.1l.3.5.4 1 2.5-2.2-.5-1.1.2-.3c.1-.7.2-1.3.1-2 0-.6.2-1.1.5-1.6 0-.8.1-1 0-1.1z" stroke-width=".3" class="F J K"/><path d="M271 55.8c-16.8 1.9-21.8-12.7-21.8-12.7l3.4-3.7s3.4 14.3 20.2 11.4" class="G"/><path d="M268 56c-5.4.1-10.6-2-14.3-5.8-2-2-3.6-4.5-4.6-7.1V43l3.5-3.9v.2c.7 2.5 2 4.8 3.8 6.8 2.7 2.9 7.7 6.1 16.3 4.6v.2c-8.7 1.5-13.8-1.7-16.5-4.6-1.7-1.9-3-4.2-3.8-6.7l-3.2 3.5c1.1 2.6 2.6 5 4.6 7 3 3.1 8.5 6.6 17.1 5.6v.2c-.9.1-1.9.1-2.9.1z" class="B"/><path d="M283.4 52.6c-.3-.1-1-1.7-1.4-1.6s-8.3-.3-8.9.5-1.8 38.2-1.8 38.2l14.3 1.5-2.2-38.6z" fill="#b0bbc2"/><path d="M285.7 91.3l-14.5-1.5v-.1c.1-3.8 1.3-37.5 1.9-38.3.4-.6 3.8-.6 7.2-.5h1.7c.3-.1.5.4.9.9.1.3.3.5.5.7h.1v.1l2.2 38.7zm-14.3-1.7l14.1 1.4-2.2-38.4c-.2-.2-.4-.5-.6-.8s-.5-.8-.6-.8h-1.8c-2.2 0-6.7-.1-7 .4-.5 1-1.5 27.9-1.9 38.2z" class="B"/><path d="M289 88.5l-.5-.2c-3.5 1.2-7.3 1.8-11 1.7a14.69 14.69 0 0 1-7.1-1.8l-.9 1.1c-1.2 1-7 3.9-9.4 11.1-1.8 5.4-5.7 21.1-5.7 21.1.2.2.5.4.8.6-2 .2-4 .6-6 1.1-2 .7 7.7 2 8.5 2.1.5.1.9-1.2 1.1-2 1.1.3 2 .4 2 .4 1.8-8.6 3.2-22.6 12.3-28.6-1.8 2.1-3.2 4.5-4.2 7.1-1.8 5-.7 21.9-.7 21.9.6.5 1.3.7 2 .8-1.9 1.2-3.7 2.5-5.3 3.9-1.5 1.5 7.8-1.6 8.5-1.8.5-.2.3-1.5.1-2.2.8-.1 1.4-.2 1.4-.2s.7-15.9 2.5-20.6c.8-2 3.2-6.2 6.2-7.2 5.8-1.9 7.4-2.6 6.1-9.4l-.7 1.1z" class="I"/><path d="M273.1 66.6c-.1-10.2 1.3-16 1.3-16l.3-1.4h-.4c-2.9.9-4.8 3.5-4.8 6.5-.2 3.7.6 9.5-.5 14.9s-2.3 19.6-2.2 19.8c.9.5 1.9.8 2.9 1.1 3.3 1.2 4 .7 4 .7l-.6-25.6z" class="G"/><g class="B"><path d="M273 92.5c-1.2-.1-2.3-.4-3.4-.8l-1.2-.4c-.6-.2-1.2-.4-1.7-.7.4-6.6 1.1-13.2 2.2-19.8.6-3.5.7-7 .5-10.5 0-1.6-.1-3.1 0-4.4 0-3 2-5.7 4.9-6.6.2 0 .3-.1.5-.1h.1l-.4 1.5c0 .1-1.4 5.9-1.3 16l.5 25.6c-.2.1-.4.2-.7.2zm-6.1-2.2c.5.3 1.1.5 1.6.6l1.2.4c2.8 1 3.6.8 3.8.8l-.5-25.5c-.2-5.4.3-10.7 1.3-16l.3-1.3h-.3c-2.8.8-4.7 3.4-4.7 6.4-.1 1.2 0 2.8 0 4.4.2 3.5.1 7.1-.5 10.6-1.1 5.2-2.3 18.9-2.2 19.6z"/><path d="M273.2 77.6l-1.6-17.3 1-.9-.9-1.1c0-.2-1-6 .4-7.8.6-.6 1.3-1.1 2.2-1.3v.2a4.45 4.45 0 0 0-2.1 1.2c-1.2 1.7-.4 7.2-.3 7.6l1 1.2-1.1.9 1.6 17.2-.2.1z"/></g><path d="M278.9 51.5h-1.5c-.2 0-.3.1-.3.3v1.1c0 .2.1.3.3.3h.3L276 76.1l1.4 3.6 1.4-3.1-.4-23.4h.5c.2 0 .3-.1.3-.3v-1.1c0-.1-.1-.3-.3-.3z" class="E"/><path d="M281.1 53.3l.1 39.1c3-.8 5.9-1.8 8.8-2.9 0 0-1.8-11.3-2.1-15.5s-.5-13.6-.2-15.1-1.2-7-4.9-8.3l-1.7 2.7z" class="G"/><path d="M281.1 92.5v-.1c-.4-5.6-.1-38.8-.1-39.1l1.9-2.8h.1c3.7 1.3 5.2 6.8 4.9 8.5s-.1 10.9.2 15 2 15.4 2.1 15.5v.1h-.2c-2.9 1.2-5.8 2.1-8.8 2.9h-.1zm.1-39.2l.1 38.9c2.9-.8 5.8-1.7 8.6-2.8-.1-1-1.8-11.4-2-15.4-.3-4.1-.5-13.6-.2-15.1s-1.2-6.9-4.7-8.2l-1.8 2.6z" class="B"/><path d="M282.3 48.9s1.9.6 2.2 1.3c.9 2-1.5 7.4-1.5 7.4l-1.1 1.1 1 .9L281 71" class="G"/><path d="M281.1 71h-.2l1.9-11.3-1-.9 1.1-1.2c.1-.3 2.4-5.4 1.5-7.3-.3-.7-2.2-1.3-2.2-1.3v-.2c.1 0 2 .6 2.3 1.4.9 2-1.4 7.2-1.5 7.5l-1 1.1.9.8-1.8 11.4z" class="B"/><path d="M281.9 48.9c1.5.2 1.1 2 1.1 2l-2.6 3.6-2.3-3.1-2.6 3-1.3-4.5c.1-.7.6-1.2 1.3-1.3" class="G"/><path d="M280.4 54.6l-2.3-3.1-2.6 3-1.4-4.7a1.7 1.7 0 0 1 1.4-1.4v.2a1.49 1.49 0 0 0-1.2 1.2l1.2 4.3 2.6-2.9 2.3 3.1 2.5-3.5c.1-.5 0-.9-.2-1.3-.2-.3-.5-.4-.8-.5v-.2a1.1 1.1 0 0 1 1 .6c.3.5.3 1 .2 1.5l-2.7 3.7z" class="B"/><path d="M283.1 36.5l.5-6.8c-2.2-1.7-4.9-2.6-7.7-2.4-5 0-3.5 9.3-3.5 9.3.1 3.7-1.5 9.6 5.7 9.4 5.9 0 4.8-5.5 5-9.5z" class="F"/><path d="M277.7 46c-1.5.1-3-.4-4.2-1.4-1.5-1.5-1.4-4-1.3-6.2v-1.9c0-.2-.9-5.9 1.2-8.3.6-.7 1.5-1.1 2.5-1.1 2.8-.1 5.5.8 7.7 2.5l-.5 6.8v1.9c0 2.5 0 5-1.5 6.5-1 .9-2.3 1.3-3.6 1.1l-.3.1zm-1.8-18.7c-.9 0-1.7.3-2.3 1-2 2.4-1.1 8.1-1.1 8.2v1.9c-.1 2.2-.2 4.6 1.3 6.1.9.9 2.4 1.4 4.4 1.3 1.3.1 2.5-.3 3.5-1.1 1.4-1.4 1.4-3.9 1.4-6.3v-1.9l.5-6.8c-2.4-1.6-5-2.4-7.7-2.4z" class="B"/><path d="M283.2 34.1l1-.2s1.6-.5 1.7 1.8-.4 3.6-2.9 3.6l.2-5.2z" class="F"/><path d="M283 39.3l.2-5.3 1.1-.3a1.39 1.39 0 0 1 1.1.2c.5.4.7 1 .7 1.7 0 1.5-.1 2.4-.7 2.9-.6.6-1.4.8-2.3.8h-.1zm.4-5.1l-.2 4.9c.7 0 1.5-.2 2-.7s.7-1.4.6-2.8c.1-.6-.2-1.1-.6-1.5-.3-.2-.6-.2-.9-.2l-.9.3z" class="B"/><path d="M275.8 36.5V34c0-.6-.5-1.1-1-1.1h-3.1c-.6 0-1 .5-1 1.1v2.4c0 .6.5 1.1 1 1.1h3.1c.5.1 1-.4 1-1 0 0 0 .1 0 0z" fill="#feffff"/><path d="M274.7 37.6h-3.1c-.6 0-1.2-.5-1.2-1.1V34c0-.6.5-1.2 1.2-1.2h3.1c.6 0 1.2.5 1.2 1.1v2.4c0 .3-.1.6-.3.8-.3.4-.6.6-.9.5zm-3.1-4.5a.94.94 0 0 0-1 1v2.4a.94.94 0 0 0 1 1h3.1c.3 0 .5-.1.7-.3s.2-.4.2-.6V34a.94.94 0 0 0-1-1l-3 .1z" class="B"/><path d="M280.5 28.3c.6 1.1 1.4 1.9 2.5 2.5-.5 1.1 0 5.7 0 5.7h.8l.2-2.6 1.4.5c-.2-3.7 1.7-7.6-5.2-8-.6 0-.8-1.5-3.9-1.6-5 0-4.8 4.3-5 7v1.3h.8c.5-7.7 3-4.6 8.4-4.8z" class="I"/><path d="M282.9 32.2v4.2h.9l.2-2.5s1-.3 1.5.1v-1.2c-.8-.5-1.7-.7-2.6-.6z" fill="#7591a6"/><path d="M284 36.6h-1.1v-4.4h.1c.9-.2 1.9.1 2.7.7v1.5l-.2-.2c-.4-.4-1.1-.2-1.3-.1l-.2 2.5zm-.9-.3h.7l.2-2.5h.1c.5-.1.9-.1 1.4.1V33c-.7-.5-1.5-.8-2.4-.6v3.9z" class="B"/><path d="M284.2 35.1l.9-.1.6 1.8c.2-.6.2-1.2.1-1.8 0-.6-.6-1.1-1.2-1-.1 0-.3 0-.4.1M281.8 45v5.1c-2 1.2-4.5 1.1-6.4-.2l.1-4.2" class="F"/><path d="M278.8 51a6.06 6.06 0 0 1-3.5-1.1l.1-4.3h.2l-.1 4.2c1.9 1.3 4.3 1.3 6.2.2v-5h.2v5.2c-.9.6-2 .9-3.1.8z" class="B"/><path d="M283.2 36.5V34c0-.6-.5-1.1-1-1.1H278a1.11 1.11 0 0 0-1.1 1.1v2.4a1.11 1.11 0 0 0 1.1 1.1h4.2c.6 0 1-.4 1.1-.9-.1 0-.1-.1-.1-.1z" fill="#feffff"/><path d="M282.2 37.6H278c-.6 0-1.2-.5-1.2-1.1V34c0-.6.5-1.2 1.1-1.2h4.2c.6 0 1.2.5 1.2 1.1v2.4c0 .3-.1.6-.3.8a.82.82 0 0 1-.8.5zm-4.2-4.5a.94.94 0 0 0-1 1v2.4a.94.94 0 0 0 1 1h4.2c.3 0 .5-.1.7-.3s.2-.4.2-.6v-2.4a.94.94 0 0 0-1-1l-4.1-.1zm10.5 44.5c0 1.7-.6 3-1.4 3s-1.4-1.4-1.4-3 .6-3 1.4-3 1.4 1.4 1.4 3z" class="B"/><path d="M278.3 66.4c-.2 0-4.1 13.5-4.1 13.5l10.7-.1 5.4-13.5c-.1-.1-3 .1-12 .1z" class="E"/><path d="M273.9 80.1V80l4.2-13.7 12.4-.1-5.7 13.7-10.9.2zm4.4-13.7l-4.2 13.4 10.6-.3 5.5-13.3-11.9.2z" class="B"/><path d="M280.8 66.2l.4-.6h1.8s.7-1.6 1.9-1.4c.5.1.9.6.9 1.1v.2h1.7l-.3.7" class="O"/><path d="M280.9 66.3l-.2-.1.4-.7h1.8c.1-.3.8-1.6 2-1.4.3 0 .6.2.8.4.1.3.2.6.1.9h1.8l-.3.8-.2-.1.2-.5h-1.7v-.1c.1-.2.1-.5 0-.8-.2-.2-.4-.3-.7-.4-1.1-.1-1.8 1.4-1.8 1.4v.1h-1.8l-.4.5z" class="B"/><path d="M289 79.3l-.9-3.5v-.1l-.4-.1c-.4-.3-.9-.6-1.4-.7l-1-.3-.2-.1.2 1.1-2.5-.6c-.5-.2-1-.2-1.2 0-.1.1-.1.2-.1.3.1.2.7.5 1.3.7l-.4-.1c-.6-.1-1.1-.1-1.2.1-.1.1-.1.2 0 .3.1.2.5.4 1 .5-.6-.1-1 0-1.1.2-.1.1-.1.2 0 .3.1.2.7.4 1.3.5-.5 0-.8 0-.9.2-.1.1-.1.2 0 .3.1.2.6.3 1.5.5.3 0 .5.1.8.2.9.4 1.8.6 2.7.6.6 0 1.3-.1 1.9-.2l.6-.1z" stroke-width=".3" class="F J K"/><path d="M285.5 52.4c2.9 3.4 13 16.1 10.5 21.7s-8.4 6.4-8.4 6.4 2.3-3-.1-5.8c0 0 10.2-.1-.4-14.1" class="G"/><g class="B"><path d="M287.4 80.6l.1-.2c.1-.1 2.3-3-.1-5.6l-.1-.2h.2s2.9-.1 4-2.2c1.2-2.4-.3-6.4-4.5-11.8l-.3-.9c4.2 5.5 6.1 10.3 5 12.8-.9 1.9-3.2 2.2-3.9 2.3 1.3 1.6 1.4 3.9.2 5.5 1.1-.2 6-1.5 8.1-6.3 2.6-6.1-10-21-10.5-21.6l.2-.1c1.4 1.6 13.2 15.7 10.6 21.8-2.4 5.6-8.5 6.5-8.5 6.5h-.5z"/><path d="M275.9 34.8c-.1 0-.1-.1-.1-.1.1-.1.3-.2.5-.2s.4.1.5.2v.1h-.1c-.1-.1-.2-.2-.3-.2-.2.1-.3.1-.5.2h0zm-1.6.1c-.1 0-.2.2-.2.4s.1.4.2.4.2-.2.2-.4-.1-.4-.2-.4zm5.1.5c0 .2-.1.4-.2.4s-.2-.2-.2-.4.1-.4.2-.4.2.2.2.4zm-1.1 5.1l-2.4-.3s-.1 0-.1-.1l.7-8.8c0-.1.1-.1.1-.1s.1 0 .1.1L276 40l2.2.3c.1 0 .1 0 .1.1.2.1.1.1 0 .1zm.6 1.5v-.1c-.1 0-.1 0-.1.1-.2.5-.6.7-1.1.7-.1 0-.1 0-.1.1s0 .1.1.1h.1c.4-.1.9-.4 1.1-.9zm2.3-9.5v-.1c-.5-.9-1.4-1.4-2.5-1.4 0 0-.1 0-.1.1s0 .1.1.1c.9 0 1.8.5 2.2 1.3h.3zm-8-.4c.4-.8 1.3-1.3 2.2-1.3 0 0 .1 0 .1-.1s0-.1-.1-.1c-1 0-2 .5-2.4 1.4v.1h.2zm10.9 2.6c0-.1 0-.1-.1-.1h-.7s-.1 0-.1.1 0 .1.1.1h.7s.1 0 .1-.1zm-.1 3.5c.1-.2.1-.4.3-.4.1 0 .3 0 .4.1h.1s.1 0 .1-.1c.4-1 .6-2.5.1-2.9-.1-.1-.4-.2-.9.1 0 0-.1.1 0 .1 0 0 .1.1.1 0 .3-.2.5-.2.6-.1.4.3.3 1.5-.1 2.5a.45.45 0 0 0-.5 0c-.2.1-.4.3-.4.6 0 .1 0 .1.1.1.1.1.1 0 .1 0zm-34.2 6.2l-.1-.1 3.4-3.2.1.1-3.4 3.2zm32 5.9c.6-.2 1.2-.5 1.7-.9.1-.2-1-.5-1.1-.5l-.6 1.4zm-6.4-.2c-.3-.1-.6-.3-.9-.5-.1-.2.7-.7.8-.7l.1 1.2zm-4 1c-1.5 1.3-1.9 4.8-1.9 4.8-1.4.2-2.8.1-4.2-.2 2.2-.1 3.8-2 3.7-4.1v-.3l2.4-.2zm15.2 8.7s-.4 4.2.9 4l.3-2.2-1.2-1.8zM282.8 49l-.9-.4V50c-.1 0 1.7-.6.9-1zm-10.4 10.6c.3.2.3.7 0 1.2s-.8.7-1.1.6-.3-.7 0-1.2.8-.7 1.1-.6zm2.9 2.2c-.3.2-.8-.1-1.1-.6s-.3-1 0-1.2.8.1 1.1.6.3 1 0 1.2zm9.8 3.7c.1-.2.1-.4 0-.5 0-.1-.1-.2-.3-.3-.3-.1-.7.1-.8.4-.1.2-.1.4 0 .5 0 .1.1.2.3.3h.2c.2 0 .4-.2.6-.4zm-.3-.6c.1 0 .1.1.1.2.1.1.1.3 0 .4a.55.55 0 0 1-.5.3c-.1 0-.1-.1-.2-.2-.1-.3.1-.6.4-.7 0-.1 0-.1.2 0-.1 0-.1 0 0 0zM275.4 46c1 2.1 5.6 1.5 6.4 1.2v1.4l-.1 1.6 1-1.2.4-7.5c0-1.1-.2.4-.2.4-.7 2.9-2.3 3.6-3.6 3.7-1.3.2-2.7.2-4-.2l.1.6z"/></g><path d="M274.9 60.9l-.2-.1c1.9-4.6 1.7-6.8 1.2-7.9-.2-.4-.5-.8-.9-1l-1.2-.6-.9.1c-3.1 1.2-.9 9.1-.9 9.2l-.2.1c-.1-.3-2.2-7.9.8-9.3l.4-.1.8-.1c.4-2.9 1.5-3 1.6-3v.2s-1 .1-1.4 2.9l1.2.7a4.44 4.44 0 0 1 .8 1.1c.6.8.9 3.2-1.1 7.8zm7.7-12.7l-.1.2s3 2.3-.4 13.5l.2.1c3.4-11.4.4-13.7.3-13.8z" fill="#434359"/><path d="M282.1 63.7a1.2 1.2 0 1 0 0-2.4 1.2 1.2 0 1 0 0 2.4z" class="O"/><path d="M282.1 63.8c-.7 0-1.3-.6-1.3-1.4 0-.7.6-1.3 1.4-1.3.7 0 1.3.6 1.3 1.4 0 .7-.6 1.3-1.4 1.3zm0-2.5c-.6 0-1.2.5-1.2 1.1s.5 1.2 1.1 1.2 1.2-.5 1.2-1.1c.1-.7-.4-1.2-1.1-1.2z" class="B"/><path d="M125.4 181H22.1c-8.8 0-7.9-7.2-7.9-16V98.5c0-8.8-1.2-16 7.6-16h95c8.8 0 16-.9 16 8V165c.1 8.9 1.5 16-7.4 16z" class="L"/><path d="M126.4 181.2H20.7c-3.7 0-6.6-3-6.6-6.6V89c0-3.7 3-6.6 6.6-6.6h105.7c3.7 0 6.6 3 6.6 6.6v85.5c0 3.7-2.9 6.7-6.6 6.7zM20.7 82.6c-3.5 0-6.3 2.8-6.3 6.3v85.6c0 3.5 2.8 6.3 6.3 6.3h105.7c3.5 0 6.3-2.8 6.3-6.3V89c0-3.5-2.8-6.3-6.3-6.3l-105.7-.1z" class="B"/><path d="M116.9 180H31.6c-8.8 0-16 1.2-16-7.6V98.7c0-8.8-1.7-16 7.1-16l103.3.1c8.8 0 6.9 7 6.9 15.9v73.6c0 8.8-7.2 7.7-16 7.7z" class="G"/><path d="M126.4 180.1H22c-3.7 0-6.6-3-6.7-6.6V89.1c0-3.7 3-6.6 6.7-6.6h104.3c3.7 0 6.6 3 6.6 6.6v84.4c.1 3.7-2.8 6.6-6.5 6.6zM22 82.8c-3.5 0-6.3 2.8-6.3 6.3v84.4c0 3.5 2.8 6.3 6.3 6.3h104.3c3.5 0 6.3-2.8 6.3-6.3V89.1c0-3.5-2.8-6.3-6.3-6.3H22h0z" class="B"/><path d="M21.9 85.8c-.9 0-1.9.3-2.7.8-.4.3-.8.7-1.2 1-1 1.2-1.6 2.6-1.6 4.2v18.5c5.2-.1 12.1-2.4 19-6.7 8.4-5.3 14.4-12.2 16.2-17.8H21.9z" class="C"/><path d="M124.6 82.8H20c-2.9 0-5.3 2.7-5.3 5.9v84.5c0 3.3 2.4 5.9 5.3 5.9h.8c-2.9 0-5.3-2.7-5.3-5.9V89.4c0-3.3 2.4-5.9 5.3-5.9h103.7c2.9 0 5.3 2.7 5.3 5.9v-.7c.1-3.3-2.3-5.9-5.2-5.9z" fill="#fefffe"/><path d="M19 103.5h-.4v-.2h.4v.2zm104-.2h-.8v.2h.8v-.2zm-4 0h-.8v.2h.8v-.2zm-4 0h-.8v.2h.8v-.2zm-4 0h-.8v.2h.8v-.2zm-4 0h-.8v.2h.8v-.2zm-4 0h-.8v.2h.8v-.2zm-4 0h-.8v.2h.8v-.2zm-4 0h-.8v.2h.8v-.2zm-4 0h-.8v.2h.8v-.2zm-4 0h-.8v.2h.8v-.2zm-4 0h-.8v.2h.8v-.2zm-4 0h-.8v.2h.8v-.2zm-4 0h-.8v.2h.8v-.2zm-4 0h-.8v.2h.8v-.2zm-4 0h-.8v.2h.8v-.2zm-4 0h-.8v.2h.8v-.2zm-4 0h-.8v.2h.8v-.2zm-4 0h-.8v.2h.8v-.2zm-4 0h-.8v.2h.8v-.2zm-4 0h-.8v.2h.8v-.2zm-4 0h-.8v.2h.8v-.2zm-4 0h-.8v.2h.8v-.2zm-4 0h-.8v.2h.8v-.2zm-4 0h-.8v.2h.8v-.2zm-4 0h-.8v.2h.8v-.2zm-4 0h-.8v.2h.8v-.2zm103.7 0h-.4v.2h.4v-.2zM19 122.3h-.4v.2h.4v-.2zm104.1 0h-.8v.2h.8v-.2zm-4 0h-.8v.2h.8v-.2zm-4 0h-.8v.2h.8v-.2zm-4 0h-.8v.2h.8v-.2zm-4 0h-.8v.2h.8v-.2zm-4 0h-.8v.2h.8v-.2zm-4 0h-.8v.2h.8v-.2zm-4 0h-.8v.2h.8v-.2zm-4 0h-.8v.2h.8v-.2zm-4 0h-.8v.2h.8v-.2zm-4 0h-.8v.2h.8v-.2zm-4 0h-.8v.2h.8v-.2zm-4 0h-.8v.2h.8v-.2zm-4 0h-.8v.2h.8v-.2zm-4 0h-.8v.2h.8v-.2zm-4 0h-.8v.2h.8v-.2zm-4 0h-.8v.2h.8v-.2zm-4 0h-.8v.2h.8v-.2zm-4 0h-.8v.2h.8v-.2zm-4 0h-.8v.2h.8v-.2zm-4 0h-.8v.2h.8v-.2zm-4 0h-.8v.2h.8v-.2zm-4 0h-.8v.2h.8v-.2zm-4 0h-.8v.2h.8v-.2zm-4 0h-.8v.2h.8v-.2zm-4 0h-.8v.2h.8v-.2zm103.7 0h-.4v.2h.4v-.2zM19 140.6h-.4v.2h.4v-.2zm104 0h-.8v.2h.8v-.2zm-4 0h-.8v.2h.8v-.2zm-4 0h-.8v.2h.8v-.2zm-4 0h-.8v.2h.8v-.2zm-4 0h-.8v.2h.8v-.2zm-4 0h-.8v.2h.8v-.2zm-4 0h-.8v.2h.8v-.2zm-4 0h-.8v.2h.8v-.2zm-4 0h-.8v.2h.8v-.2zm-4 0h-.8v.2h.8v-.2zm-4 0h-.8v.2h.8v-.2zm-4 0h-.8v.2h.8v-.2zm-4 0h-.8v.2h.8v-.2zm-4 0h-.8v.2h.8v-.2zm-4 0h-.8v.2h.8v-.2zm-4 0h-.8v.2h.8v-.2zm-4 0h-.8v.2h.8v-.2zm-4 0h-.8v.2h.8v-.2zm-4 0h-.8v.2h.8v-.2zm-4 0h-.8v.2h.8v-.2zm-4 0h-.8v.2h.8v-.2zm-4 0h-.8v.2h.8v-.2zm-4 0h-.8v.2h.8v-.2zm-4 0h-.8v.2h.8v-.2zm-4 0h-.8v.2h.8v-.2zm-4 0h-.8v.2h.8v-.2zm103.7 0h-.4v.2h.4v-.2zm0 18.7h-.4v.2h.4v-.2zm-3.6 0h-.8v.2h.8v-.2zm-4 0h-.8v.2h.8v-.2zm-4 0h-.8v.2h.8v-.2zm-4 0h-.8v.2h.8v-.2zm-4 0h-.8v.2h.8v-.2zm-4 0h-.8v.2h.8v-.2zm-4 0h-.8v.2h.8v-.2zm-4 0h-.8v.2h.8v-.2zm-4 0h-.8v.2h.8v-.2zm-4 0h-.8v.2h.8v-.2zm-4 0h-.8v.2h.8v-.2zm-4 0h-.8v.2h.8v-.2zm-4 0h-.8v.2h.8v-.2zm-4 0h-.8v.2h.8v-.2zm-4 0h-.8v.2h.8v-.2zm-4 0h-.8v.2h.8v-.2zm-4 0h-.8v.2h.8v-.2zm-4 0h-.8v.2h.8v-.2zm-4 0h-.8v.2h.8v-.2zm-4 0h-.8v.2h.8v-.2zm-4 0h-.8v.2h.8v-.2zm-4 0h-.8v.2h.8v-.2zm-4 0h-.8v.2h.8v-.2zm-4 0h-.8v.2h.8v-.2zm-4 0h-.8v.2h.8v-.2zm-4 0h-.8v.2h.8v-.2zm-4 0h-.5v.2h.4l.1-.2z" fill="#96a0a6"/><path opacity=".023" d="M128.3 83.5v.6c.3.8.5 1.6.5 2.5v88.5c0 3.3-2.5 3.4-5.5 3.4H18c-.4 0-.7 0-1.1-.1.9 1.7 2.7 2.8 4.7 2.8h105.3c3.2-.2 5.6-2.8 5.5-6V89.3c.1-2.6-1.6-5-4.1-5.8z" class="B"/><g class="L"><use xlink:href="#B"/><use xlink:href="#B" y="-74.7"/><path d="M118.3 120c-3.8 0-6.9-3.1-6.9-6.9s3.1-6.9 6.9-6.9 6.9 3.1 6.9 6.9c0 3.9-3.1 6.9-6.9 6.9zm0-13.3a6.49 6.49 0 1 0 0 13 6.49 6.49 0 0 0 6.5-6.5 6.42 6.42 0 0 0-6.5-6.5h0z"/><use xlink:href="#B" y="-37"/><use xlink:href="#B" y="-18.7"/><use xlink:href="#B" x="-22.4"/></g><path d="M101.3 169c0 3.2-2.6 5.8-5.8 5.8s-5.8-2.6-5.8-5.8 2.6-5.8 5.8-5.8" class="C"/><g class="L"><use xlink:href="#B" x="-22.4" y="-74.7"/><use xlink:href="#C"/><use xlink:href="#D"/><use xlink:href="#D" y="18.3"/><use xlink:href="#B" x="-44.8"/><use xlink:href="#B" x="-44.8" y="-74.7"/><path d="M73.5 120c-3.8 0-6.9-3.1-6.9-6.9s3.1-6.9 6.9-6.9 6.9 3.1 6.9 6.9-3.1 6.9-6.9 6.9zm0-13.3a6.49 6.49 0 1 0 0 13 6.49 6.49 0 1 0 0-13z"/><use xlink:href="#B" x="-44.8" y="-37"/><use xlink:href="#B" x="-44.8" y="-18.7"/><use xlink:href="#B" x="-67.2"/><use xlink:href="#B" x="-67.2" y="-74.7"/><use xlink:href="#C" x="-44.8"/><use xlink:href="#B" x="-67.2" y="-37"/><use xlink:href="#B" x="-67.2" y="-18.7"/><use xlink:href="#B" x="-89.6"/><use xlink:href="#B" x="-89.6" y="-74.7"/><use xlink:href="#C" x="-67.2"/><use xlink:href="#D" x="-67.2"/><use xlink:href="#D" x="-67.2" y="18.3"/></g><path d="M123.7 169c0 3.2-2.6 5.8-5.8 5.8s-5.8-2.6-5.8-5.8 2.6-5.8 5.8-5.8 5.8 2.6 5.8 5.8zm-6-80.5c-3.1 0-5.7 2.5-5.7 5.7 0 3.1 2.5 5.7 5.7 5.7 3.1 0 5.7-2.5 5.7-5.7a5.63 5.63 0 0 0-5.7-5.7zm.1 18.6c-3.2 0-5.8 2.6-5.8 5.8s2.6 5.8 5.8 5.8 5.8-2.6 5.8-5.8c.1-3.1-2.5-5.7-5.8-5.8zm0 19.1c-3.2 0-5.8 2.6-5.8 5.8s2.6 5.8 5.8 5.8 5.8-2.6 5.8-5.8c.1-3.2-2.5-5.8-5.8-5.8zm0 18.3c-3.2 0-5.8 2.6-5.8 5.8s2.6 5.8 5.8 5.8 5.8-2.6 5.8-5.8c.1-3.2-2.5-5.8-5.8-5.8zM101.3 169c0-3.2-2.6-5.8-5.8-5.8l5.8 5.8zm-5.8-80.5c-3.2 0-5.8 2.6-5.8 5.8s2.6 5.8 5.8 5.8 5.8-2.6 5.8-5.8-2.6-5.8-5.8-5.8zm0 18.6c-3.2 0-5.8 2.6-5.8 5.8s2.6 5.8 5.8 5.8 5.8-2.6 5.8-5.8-2.6-5.8-5.8-5.8zm0 19.1c-3.2 0-5.8 2.6-5.8 5.8s2.6 5.8 5.8 5.8 5.8-2.6 5.8-5.8-2.6-5.8-5.8-5.8zm0 18.3c-3.2 0-5.8 2.6-5.8 5.8s2.6 5.8 5.8 5.8 5.8-2.6 5.8-5.8-2.6-5.8-5.8-5.8zm-22.4 18.7c-3.2 0-5.8 2.6-5.8 5.8s2.6 5.8 5.8 5.8 5.8-2.6 5.8-5.8-2.6-5.8-5.8-5.8zm0-74.7c-3.2 0-5.8 2.6-5.8 5.8s2.6 5.8 5.8 5.8 5.8-2.6 5.8-5.8-2.6-5.8-5.8-5.8zm0 18.6c-3.2 0-5.8 2.6-5.8 5.8s2.6 5.8 5.8 5.8 5.8-2.6 5.8-5.8-2.6-5.8-5.8-5.8zm0 19.1c-3.2 0-5.8 2.6-5.8 5.8s2.6 5.8 5.8 5.8 5.8-2.6 5.8-5.8-2.6-5.8-5.8-5.8zm0 18.3c-3.2 0-5.8 2.6-5.8 5.8s2.6 5.8 5.8 5.8 5.8-2.6 5.8-5.8-2.6-5.8-5.8-5.8zm-22.4 18.7c-3.2 0-5.8 2.6-5.8 5.8s2.6 5.8 5.8 5.8 5.8-2.6 5.8-5.8-2.6-5.8-5.8-5.8zm0-74.7c-3.2 0-5.8 2.6-5.8 5.8s2.6 5.8 5.8 5.8 5.8-2.6 5.8-5.8-2.6-5.8-5.8-5.8zm0 18.6c-3.2 0-5.8 2.6-5.8 5.8s2.6 5.8 5.8 5.8 5.8-2.6 5.8-5.8-2.6-5.8-5.8-5.8zm0 19.1c-3.2 0-5.8 2.6-5.8 5.8s2.6 5.8 5.8 5.8 5.8-2.6 5.8-5.8-2.6-5.8-5.8-5.8zm0 18.3c-3.2 0-5.8 2.6-5.8 5.8s2.6 5.8 5.8 5.8 5.8-2.6 5.8-5.8-2.6-5.8-5.8-5.8zm-22.4 18.7c-3.2 0-5.8 2.6-5.8 5.8s2.6 5.8 5.8 5.8 5.8-2.6 5.8-5.8c-.1-3.2-2.6-5.8-5.8-5.8zm0-74.7c-3.2 0-5.8 2.6-5.8 5.8s2.6 5.8 5.8 5.8 5.8-2.6 5.8-5.8-2.6-5.8-5.8-5.8zm0 18.6c-3.2 0-5.8 2.6-5.8 5.8s2.6 5.8 5.8 5.8 5.8-2.6 5.8-5.8-2.6-5.8-5.8-5.8zm0 19.1c-3.2 0-5.8 2.6-5.8 5.8s2.6 5.8 5.8 5.8 5.8-2.6 5.8-5.8-2.6-5.8-5.8-5.8zm0 18.3c-3.2 0-5.8 2.6-5.8 5.8s2.6 5.8 5.8 5.8 5.8-2.6 5.8-5.8c-.1-3.2-2.6-5.8-5.8-5.8z" class="C"/><path d="M114.2 99.5l-.3-.3 8.7-9.8.3.3-8.7 9.8zm-13.5-9.7l-.3-.3-8.7 9.8.3.3 8.7-9.8zm22.3 18.3l-.3-.3-8.7 9.8.3.3 8.7-9.8zM78.1 89.8l-.3-.3-8.7 9.8.3.3 8.7-9.8zm22.5 18.6l-.3-.3-8.8 9.8.3.3 8.8-9.8zm-22.3 0l-.3-.3-8.7 9.8.3.3 8.7-9.8zm-.3 19l-.3-.3-8.7 9.8.3.3 8.7-9.8zm-45.4 0l-.3-.3-8.7 9.8.3.3 8.7-9.8zm90.4.3l-.3-.3-8.7 9.8.3.3 8.7-9.8zm-22.7 0l-.3-.3-8.7 9.8.3.3 8.7-9.8zM78 164.5l-.3-.3L69 174l.3.3 8.7-9.8zm-23 0l-.3-.3L46 174l.3.3 8.7-9.8zm-22.3 0l-.3-.3-8.7 9.8.3.3 8.7-9.8zm90.3.3l-.3-.3-8.7 9.8.3.3 8.7-9.8zm-22.5-19l-.3-.3-8.7 9.8.3.3 8.7-9.8zm-22.7 0l-.3-.3-8.7 9.8.3.3 8.7-9.8zm44.8 0l-.3-.3-8.7 9.8.3.3 8.7-9.8zm-21.9 18.1l-.3-.3-8.7 9.8.3.3 8.7-9.8zm-45.4-18.1l-.3-.3-8.7 9.8.3.3 8.7-9.8zm-22.9-.6l-.3-.3-8.7 9.8.3.3 8.7-9.8zm0-37.5l-.3-.3-8.7 9.8.3.3 8.7-9.8z" class="L"/><use xlink:href="#E" class="E"/><g class="J K N"><use xlink:href="#E"/><path d="M241.4 160.4l-92.4 7.3 6.8 3.6s-24.3 22 1.1 29.4l-5 4 119.3-6.2c-18.3-22.5-29.8-38.1-29.8-38.1z" class="E"/></g><g class="C"><path d="M250.4 179.6c-7.2-11.3-11.7-15.9-13.7-18.4 0 0-.1 0-.1.1 1.8 2.2 6 6.3 13.7 18.4 1.1 1.8 4.4 9.2 3.9 10.3s-1.8 1.8-3.9 2.2c-16.1 2.5-75.7 6.4-76.3 6.4-1.9.1-3.6-.3-4.7-1.4-1.1-1-1.7-2.5-1.8-4.4-.1-1.7-.1-3.6-.1-5.5-.1-8.6-2.8-18.5-6.8-20.2-.1 0-.9-.3-.8-.1 4.2 1.5 7.3 11.6 7.4 20.4 0 1.9.1 3.8.1 5.5.1 1.9.7 3.4 1.9 4.5 1.1 1 2.5 1.5 4.1 1.5h.7c.6 0 60.3-3.9 76.4-6.4 2.2-.3 3.6-1.1 4.1-2.3.4-1.2-2.9-8.7-4.1-10.6z"/><path d="M250.6 179.5c-6-9.5-10.1-14.2-12.6-17-.5-.5-.9-1-1.2-1.4l-.2-.1-.2.1h-.1l.1.2-.1-.2-.3.1.2.2c.3.4.7.9 1.2 1.4 2.2 2.5 6.2 7 12.5 17 1.3 2.1 4.3 9.2 3.9 10.1-.5 1-1.7 1.7-3.8 2-16 2.5-75.7 6.4-76.3 6.4-1.8.1-3.4-.3-4.5-1.3s-1.7-2.4-1.7-4.2c-.1-1.7-.1-3.5-.1-5.5-.1-8.6-2.8-18.6-7-20.5h-.1s-.2 0-.3-.1c-.1.1-.2.1-.4.1h-.2l-.1.2.1.1.1.1c4.2 1.5 7.1 11.6 7.2 20.2 0 1.9.1 3.7.1 5.5.1 2 .8 3.6 2 4.7 1.1 1 2.6 1.5 4.3 1.6h.1.6c.6 0 60.4-3.9 76.4-6.4 2.3-.4 3.7-1.2 4.3-2.4.7-1.5-2.7-9.1-3.9-10.9z"/></g><g class="J N"><g class="K"><path d="M152.3 167.5c.1 0 19.1-1.5 19.1-1.5"/><path d="M134 168.7c-5.1.6-6.3 8.7-5.7 18.5s2.6 19.1 7.8 19l16.4-1.2c5.1-.4 8.8-10.3 8.2-20.2s-5.2-17.6-10.3-17.2l-16.4 1.1z" class="R"/></g><g class="C"><path d="M146 185.7c.6 9.8-3.7 19.6-9.6 20.1-5.9.4-11.1-8.8-11.7-18.5-.6-9.8 3.7-18 9.5-18.5 6-.5 11.2 7.1 11.8 16.9z"/><path d="M144.9 186.2c.6 9.8-3.7 19.6-9.6 20.1-5.9.4-11.1-8.8-11.7-18.5-.6-9.8 3.7-18 9.5-18.5 5.9-.4 11.2 7.2 11.8 16.9z"/></g></g><path d="M243.5 158.5c0 .2-21.8 2.8-19.9 3.1 5.8.9 55.1 21 22 31.7l-1.2.4-2.3.8-.9.3c-14.1 3.8-80.3 7.4-84.6 7.2-6.4.4-13.1-.3-15.1-.9-4.3.9-13.6-1.7-17-7l.3 1.9c2.3 6 6.5 10.5 10.7 10.1.4 0 .7-.1 1.1-.2l15.8-1.2c.5-.1.9.2 1.4 0 11.8-1.2 24-1.8 36.4-2.4 38.5-1.8 76.4-2.8 84.7-4.4 0 .1-27.5-36.3-31.4-39.4z" class="B M"/><g class="C"><path d="M220.4 176c-4.1.5-8.4-1.8-9.7-5.2-1.4-3.4.8-6.6 4.9-7.2s8.5 1.7 9.8 5.2c.6 1.6.5 3.3-.4 4.7-1.1 1.3-2.7 2.2-4.6 2.5zm-4.7-11.9c-3.7.5-5.6 3.4-4.3 6.5 1.2 3 5.1 5 8.7 4.6 3.6-.5 5.6-3.3 4.4-6.4-.6-1.5-1.8-2.8-3.4-3.7-1.7-.8-3.7-1.2-5.4-1zm6 4.3l-3.1.4-1-2.7-2.1.3 1 2.7-3.1.4.7 1.8 3.1-.4 1 2.6 2.1-.3-1-2.6 3.1-.4-.7-1.8zm-5.8 11.2l23.7-2.7c.1 0 .2-.1.2-.3 0-.1-.1-.2-.3-.2l-23.7 2.7c-.1 0-.2.1-.2.3.1.1.2.2.3.2zm1.4 3.6l27.6-3.1c.1 0 .2-.1.2-.3 0-.1-.1-.2-.3-.2l-27.6 3.1c-.1 0-.2.1-.2.3 0 .1.1.2.3.2zm3.1 6.4c-.5 0-1-.3-1.1-.6l-.8-2.3c-.1-.2 0-.4.1-.5.1-.2.4-.4.8-.4l24-2.7c.6-.1 1.2.2 1.4.6l1 2.4c.1.2.1.4 0 .6s-.5.4-.8.5l-24.3 2.6c-.2-.2-.2-.2-.3-.2zm23.1-6.1h-.1l-24 2.7c-.2 0-.4.1-.4.2v.1l.8 2.3c.1.2.4.3.8.3l24.3-2.6c.3 0 .4-.1.5-.2v-.1l-1-2.4c-.2-.2-.5-.3-.9-.3z"/><path d="M209.8 165.3c2.1-.2 3.8.3 3.9 1.2s-1.5 1.8-3.6 2.1-3.8-.3-3.9-1.3c-.1-.8 1.5-1.8 3.6-2z"/></g><path d="M260 196.6c-.4 0-.8 0-1.1.1l-2-.2-3.9-9.9-.8-2.4.1-.1-.9-2.5 1.5-1.2c-1.5-3.5-3.3-6.8-5.2-10.1-.8-1.1-4.5-4-5.4-4.6v-.2c-.1-1.6-3-5-3.4-12.3 0-.6-.6-4.6-.6-4.6s.2-.4.3-1c2.2 2.1 4.8 4 6.2 3.6 1.9-.6 4.6-12.4 4.6-12.4l-1.4-.8 1.3.6.3-.7-.2-.1.1-.2.2-.3c.6-.8 1.1-1.6 1.6-2.5.1-.2.7-1.2.6-1.4s-.3-.1-.6.4c-.1.1-.3.4-.4.6h-.1c.3-.5.5-1.1.6-1.6-.1-.2-.3-.1-.6.4-.1.1-.3.7-.5 1h-.1c.2-.5.4-1.1.4-1.7-.1-.2-.3 0-.5.5 0 .1-.2.6-.4 1h-.1c.2-.6.2-1.2.2-1.8-.2-.1-.3.1-.4.6-.1.4-.3 1.4-.5 1.9l-.1.2c-.1-.5-.4-1-.8-1.4-.1-.1-.3-.1-.4 0 0 0 0 .1-.1.1 0 .1.6.9.5 1.4 0 .3.1.7.1 1v.1l.1.1v.1l-.1.9.3.2-.2-.1-.3.7-.2-.1-4.2 8.9c-.2.3-6.3-8.9-9.9-11-.2-.1-.4-.2-.7-.3l-.4-.3v-.1h-.1l-.2-.2c-.4-1.5-.9-1.8-1.1-1.9-.2-.9-.3-1.8-.3-2.6 0-.5.1-1.2.1-1.6l1.4.2c.3-.4.6-.9.9-1.3h.1a5 5 0 0 0 1.8 2.7s-.7-2.3 1.5-5.7c2.7-4.2.2-13-3.4-13.5-1.5-.2-1.9.2-1.9.2s-8.3-1.6-9.7 5.8c-.7 3.9 0 6.7 1.2 8.6-.6-.9-1-1.8-1.2-2.8-.7-.1-1.4.4-1.5 1.1v.1.1c-1-1.2-2.8-1.4-4-.5-.2.1-.3.3-.5.5-2.9 3.2 3.1 9.8-1.9 13.1.8 1.3 2.5 1.8 3.8 1.1.1 0 .1-.1.2-.1 3.8-4.1-4.5-13.2 2.4-13.1.3 1.1 1.3 2 2.9.9a8.12 8.12 0 0 0 4.1 3.2l.5-.1v.5c-.1 1.1-.3 2.2-.6 3.3v-.3c-.9-.1-1.7.5-1.9 1.3-.4.8-.5 1.7-.4 2.5-3 3.6-10.6 11.6-8.4 16.3 2.4 5 7.8 5.5 7.8 5.5.1.1.3.2.5.2.5 0 .9-.8 1.1-1.8h.3c-.8 4.2-1.4 7.9-1.5 9 0-.4.1-1.2-.1.8-.6 6.4 3.8 7.3 5.2 9.3 1.9 2.8 4.8 11 5.5 11.1.9.1 1.6.1 2.4.1l.2.5 3.5 14.4c0 .1.1.2.1.3-.1.1-.1.3-.1.5.1.6.3 1.2.6 1.7 2.9.7 6.1 1.1 7.2.4.7-.5-.4-1.6-2.5-2.5-.3-.2-.7-.3-1.1-.4-.9-.5-1.9-.9-1.9-.9l-1.6-13h.1l-.2-1.1c2.4-.3 4.7-1.2 6.7-2.5l.7 1.5c2.7 6.2 5.9 12.6 6 12.7v.1h-.1s.4 1.9 1.3 1.9h.4c.7-.1 1.3-.1 2-.3.8-.1 1.5-.3 2.3-.5.2-.1.4-.1.6-.2.7-.2 1.3-.6 1.8-1.1.2-1.3-1.3-1.9-3.5-2zm-21.7-29.8c-.7.1-1.4.3-2.2.4 0-.8-.2-2.2-.2-2.2v.1l1.9-.1.5 1.8zm-6.6-32.2l-.3-.2c-.3-.4-.5-.9-.6-1.4l.9 1.6zm-8.7 7.8s0 .1 0 0l-.1.2.4 2.1c.1.6.3 1.1.5 1.7l-2.8.1 3.2 6.4h-.2c-.1 0-.3.1-.4.1-.6 0-7.5.1-.6-10.6z" class="B M"/><path d="M264.4 195.9c-.5.5-1.1.9-1.7 1.1-.2.1-.5.2-.7.2l-.4.1h-.1l-1.4.3h-.1-.3l-2.1.3h-.3c-.9 0-1.3-1.9-1.3-1.9h.3 0c1.4-1.1 3.2-1.6 4.9-1.6 2.2.2 3.7.8 3.2 1.5zm-17 4c-1.7-.7-3.5-.8-5.2-.3-.1.2-.2.4-.2.7.1.6.3 1.2.6 1.7 2.9.7 6.1 1.1 7.2.4.8-.5-.4-1.6-2.4-2.5z" class="I"/><path d="M234.1 125.3a5 5 0 0 0 1.8 2.7s-.7-2.3 1.5-5.7c2.7-4.2.2-13-3.4-13.5-1.5-.2-1.9.2-1.9.2s-8.3-1.6-9.7 5.8 2.5 11 5.5 12.1l6.2-1.6z" class="D"/><path d="M236.1 128.3l-.3-.2c-.9-.7-1.5-1.6-1.8-2.6l-6 1.5c-3.6-1.3-6.9-5.2-5.6-12.2s9.1-6 9.8-5.9c.6-.3 1.3-.4 1.9-.2 1.3.2 2.5 1.4 3.4 3.4 1.4 3 1.8 7.6.1 10.3-2.2 3.4-1.5 5.6-1.5 5.6v.3zm-1.9-3.1v.1c.2.9.8 1.8 1.5 2.4-.1-.7-.2-2.8 1.6-5.5s1.2-7.2-.1-10.1c-.9-1.9-2.1-3.1-3.3-3.2-1.4-.2-1.8.2-1.8.2h-.1c-.1 0-8.2-1.5-9.6 5.7-1.3 6.9 1.9 10.7 5.4 12l6.4-1.6z" class="B"/><path d="M253 131.1c0-.1-.1-.1-.2-.1-.2 0-.3.2-.5.5v.1c.2-.5.4-1 .3-1.1 0-.1-.1-.1-.2-.1-.2 0-.3.2-.5.5l-.1.3s.2-.8.1-.9c0-.1-.1-.1-.2-.1-.2 0-.3.2-.5.7l-.2.6c.1-.8.1-1.3 0-1.4s-.2-.1-.2-.1c-.2.1-.3.3-.4.7l-.5 1.9c-.1-.5-.4-1-.8-1.4-.1-.1-.2-.1-.3-.1s-.2.1-.3.2c0 .1 0 .2.2.5s.3.6.4.9c0 .3 0 .7.1 1v.3l-.1.9 1.5 1.1.2-.6.2-.3c.6-.8 1.1-1.6 1.6-2.5 0 0 0-.1.1-.2.3-.8.4-1.1.3-1.3z" class="F J K N"/><path d="M249.16 134.995l-.312.736 1.657.702.312-.736-1.657-.702z" class="E"/><path d="M250.4 136.5l-1.6-.7c-.1 0-.1-.1 0-.1l.3-.7h.1.1l1.6.7v.1l-.5.7h0zm-1.4-.8l1.4.6.2-.6-1.4-.6-.2.6z" class="B"/><path d="M235.5 141s7.5 8.9 10.4 8c1.9-.5 4.7-12.4 4.7-12.4l-1.9-1-4.2 8.9c-.2.3-7.3-10.6-10.8-11.4-1.3-.1-2.5.7-2.8 2-.4 2.3 4.6 5.9 4.6 5.9z" class="G"/><g class="B"><path d="M245.5 149.2c-3.1 0-9.7-7.6-10.1-8.1-.3-.2-5-3.8-4.6-6 .3-1.3 1.5-2.2 2.9-2.1 2.5.6 6.9 6.4 9.3 9.5.7.9 1.2 1.6 1.4 1.8.4-.7 2.9-6 4.2-8.8v-.1l2.1 1.1v.1c-.1.5-2.8 11.9-4.7 12.5-.2.1-.4.1-.5.1zm-12-16.1c-1.2-.1-2.3.8-2.5 2-.4 2.1 4.5 5.8 4.5 5.8.1.1 7.5 8.8 10.3 8 1.4-.4 3.6-8.2 4.5-12.3l-1.7-.9c-.5 1-4 8.5-4.2 8.8h-.1c-.1 0-.3-.2-1.6-2-2.4-3.1-6.7-8.9-9.2-9.5v.1z"/><path d="M244.486 144.199l-.563.945.172.103.563-.946-.172-.102z"/></g><path d="M258 194.4l-3.9-9.8-5.3-15.9-4 1.5 1.3 2.4c.5 4.3 9.8 23.3 9.9 23.5s.3.4.4.5c1.7.3 5.4-1.2 5.7-1.8 0-.2-4.1-.4-4.1-.4z" class="F"/><path d="M256.9 196.6h-.5c-.1 0-.2-.1-.3-.3l-.2-.2c-.1-.1-9.5-19.2-10-23.5l-1.3-2.5 4.2-1.6 5.3 16 3.9 9.8c4 .3 4.1.4 4.1.5-.3.6-3.4 1.8-5.2 1.8zm-12-26.4l1.3 2.4c.5 4.3 9.8 23.3 9.9 23.5l.2.2.2.2c1.5.3 4.9-1 5.5-1.6-.5-.1-2.6-.3-3.9-.4h-.1l-3.9-9.9-5.2-15.8-4 1.4z" class="B"/><path d="M244.4 198.6l-2.3-18c-1.3.4-3.1 1.2-4.3 1.6l4.1 17.2c0 .2.1.4.2.6 1.5.9 5.4.8 5.9.5.2-.1-3.6-1.9-3.6-1.9z" class="F"/><path d="M246.1 200.9c-1.4.1-2.7-.2-4-.7-.1 0-.1-.1-.2-.4s0-.2-.1-.3c-.6-1.9-2.5-10-4-16.5l-.2-.8h.1c.5-.2 1-.4 1.6-.6 1-.4 1.9-.8 2.7-1h.1l2.2 17.9c3.6 1.8 3.7 1.9 3.7 2v.1c-.6.2-1.2.3-1.9.3zm-8.1-18.5l.1.6c1.5 6.5 3.3 14.6 4 16.5 0 .1.1.2.1.3s0 .2.1.2c1.4.8 4.9.8 5.7.5-.5-.3-2.3-1.2-3.5-1.8l-2.2-17.8c-.8.2-1.7.6-2.6 1-.7.1-1.3.3-1.7.5z" class="B"/><path d="M226.3 133.2c-3.8 5.9-1.8 9.7 0 13.9 1.8 4.3 2 .1.7 6.6-1 5.1-1.7 9.8-1.7 9.8s3.8 2.8 12 1.9c0-.9-.1-1.8-.2-2.8l1.9-.2.7 2.6s3.8.1 3.7-1.7-2.9-5.1-3.3-12.4c0-.6-.6-4.6-.6-4.6s1.5-3.9.8-5.9c-.9-2.8-5.8-7-5.8-7s-2.4-2.1-3.5-2.2-4 .9-4.7 2z" class="G"/><path d="M234.3 165.8c-6.1 0-9-2.1-9.1-2.1v-.1l1.7-9.8.6-2.9c.3-1.2.3-1.2 0-1.4-.6-.6-1.1-1.4-1.3-2.2-.1-.3-.2-.6-.4-.8-1.6-3.9-3.2-7.6.4-13.2.8-1.2 3.5-1.9 4.7-1.8s3.5 2.1 3.6 2.2 5 4.2 5.9 7c.6 2-.7 5.6-.8 5.9.1.4.6 4 .6 4.6.2 3.5 1 7 2.6 10.2.4.7.6 1.4.8 2.1 0 .3-.1.6-.3.9-.9 1-3.4 1-3.5 1 0 0-.1 0-.1-.1l-.7-2.5-1.7.2c.3 2.6.2 2.7.2 2.7h-.1c-1.1 0-2.1.1-3.1.1zm-8.9-2.2c.5.3 4.3 2.6 11.8 1.9 0-.3-.1-1.5-.2-2.7v-.1h.1l1.9-.2c.1 0 .1 0 .1.1l.7 2.5c.4 0 2.5-.1 3.3-1a1.08 1.08 0 0 0 .3-.7 5.39 5.39 0 0 0-.8-2.1c-1.6-3.2-2.4-6.6-2.6-10.2 0-.6-.6-4.6-.6-4.6s1.5-3.9.8-5.8c-.9-2.8-5.7-6.9-5.8-6.9s-2.4-2.1-3.5-2.2-3.8.6-4.5 1.7c-3.5 5.5-2 9.2-.3 13 .1.3.2.5.4.8.3.8.7 1.6 1.3 2.2.3.3.3.4 0 1.6-.1.6-.4 1.5-.6 2.9-1.1 4.8-1.7 9.2-1.8 9.8z" class="B"/><path d="M227.2 157.4l3.8-1.5s1.5 6.4-2.5 7" class="G"/><path d="M228.5 163s-.1 0-.1-.1 0-.1.1-.1c.8-.1 1.5-.5 1.9-1.2 1.2-1.8.6-5 .5-5.6l-3.6 1.5c-.1 0-.1 0-.1-.1v-.1l3.8-1.5h.1v.1c0 .2.9 3.8-.5 5.9-.5.6-1.2 1.1-2.1 1.2z" class="B"/><path d="M232.9 132.4l.6 4.7-6.1-4.8c-.1 0 3.5 1.5 5.5.1z" class="E"/><path d="M233.5 137.2l-6.2-4.8v-.1h.1s3.6 1.5 5.5.1h.1s.1 0 .1.1l.6 4.7h-.2zm-5.6-4.6l5.4 4.2-.5-4.3c-1.5 1.1-3.8.5-4.9.1z" class="B"/><path d="M227 138.8c.8 0 1.5.6 1.5 1.4s-.6 1.5-1.4 1.5-1.5-.6-1.5-1.4.6-1.5 1.4-1.5zm5.6 1.7c-.2.3-.2.7-.1.8s.4-.1.6-.4.2-.7.1-.7c-.2-.2-.4-.1-.6.3zm2.2-1c-.1.1-.1.4.1.7s.5.5.6.4.1-.4-.1-.7c-.2-.4-.5-.5-.6-.4z" class="O"/><path d="M237.1 163c-.1 0-.1 0-.1-.1s-1.3-14.3-1.6-18.5-2-6-2-6c0-.1.1 0 .1 0v-.1s1.8 1.8 2.1 6.1l1.6 18.4 1.7-.1c-.2-1.3-2-13.2-1.9-16.3.1-3.3-1-7.8-1.9-8.5v-.1h.1c1 .8 2.1 5.5 2 8.7s1.9 16.3 1.9 16.4v.1h-.1-1.9z" class="B"/><path d="M228.5 125.6c.1 2.2-.3 4.4-1.2 6.5v.2c1.3.8 2.9 1 4.4.6l.8-.3c.1-.1.2-.1.3-.2-1.4-1.3-1.2-6.2-1.2-6.2" class="F"/><path d="M230.3 133.2c-1.1 0-2.1-.3-3-.8v-.1-.2c.8-2.1 1.2-4.3 1.2-6.5 0-.1.1-.1.1-.1s.1 0 .1.1c.1 2.2-.3 4.5-1.2 6.5v.1c1.3.8 2.8 1 4.3.6l.8-.3c.1 0 .1-.1.2-.1-1.3-1.4-1.1-6-1.1-6.2 0-.1 0-.1.1-.1s.1 0 .1.1-.2 4.9 1.1 6.1v.1.1c-.1.1-.2.2-.3.2l-.8.3c-.6.2-1.1.3-1.6.2z" class="B"/><path d="M221 122.1s-2.3-2.7-4.6-.1c-2.9 3.2 3.1 9.8-1.9 13.1.8 1.3 2.5 1.8 3.8 1.1.1 0 .1-.1.2-.1 3.8-4.1-4.6-13.3 2.5-13.1v-.9z" class="D"/><path d="M216.9 136.5c-1 0-1.9-.6-2.4-1.4v-.1c2.7-1.8 2.1-4.6 1.5-7.3-.5-2.2-1-4.3.4-5.7.5-.7 1.3-1.1 2.2-1.1 1 .1 1.9.5 2.5 1.3v.1l.1.7v.1h-.1c-.9-.2-1.8.1-2.5.8-.8 1-.3 2.8.3 4.8.7 2.6 1.5 5.6-.3 7.5-.5.1-1.1.3-1.7.3zm-2.2-1.4c.2.4 1.4 2 3.8.8 1.7-1.8.9-4.8.2-7.3-.6-2-1.1-3.9-.2-5 .7-.7 1.6-1 2.5-.8l-.1-.6a3.47 3.47 0 0 0-2.3-1.2 2.61 2.61 0 0 0-2.1 1.1c-1.2 1.4-.8 3.4-.3 5.6.6 2.7 1.2 5.5-1.5 7.4z" class="B"/><path d="M234 111.7s5.9 6-.9 14.9l-5.1-.8-.4-6.6" class="F"/><path d="M233.2 126.7l-5.2-.8-.4-6.7c0-.1 0-.1.1-.1s.1 0 .1.1l.4 6.5 5 .8c6.6-8.6.9-14.6.9-14.7v-.1h.1s5.8 6.1-1 15z" class="B"/><path d="M231.6 120.6l-3.2.1c-.6 0-.6-.4-.6-1v-.7a.94.94 0 0 1 1-1l3.1-.1c.5 0 .6.5.6 1v1.2c0 .5-.4.5-.9.5z" class="C"/><path d="M228.2 120.9c-.1 0-.3-.1-.4-.1-.1-.1-.2-.2-.2-.4l-.1-2c0-.1 0-.3.1-.4s.2-.2.4-.2l3.9-.1a.47.47 0 0 1 .5.5l.1 2c0 .1-.1.3-.1.4-.1.1-.2.2-.4.2l-3.8.1zm3.8-2.9l-3.9.1c-.2 0-.3.1-.3.3l.1 2c0 .1 0 .2.1.2.1.1.1.1.2.1l3.9-.1c.1 0 .2 0 .2-.1.1-.1.1-.1.1-.2l-.1-2c.1-.2-.1-.3-.3-.3z" class="B"/><path d="M231.2 123.6c.4-.1.8-.1 1.1-.1.5 0 1.2.1 1.3.4s0 .2 0 .2h.1s.1.9-.6 1-1.4-.1-1.9-1.5z" fill="#f77474"/><path d="M232.6 119.6c0 .1-.1.1 0 0-.1 0-.1-.1-.1-.1.5-.5 1.3-.5 1.7 0v.1h-.1a1.07 1.07 0 0 0-1.4-.1c0 .1 0 .1-.1.1 0 .1 0 .1 0 0zm-3-2.5c.6-.5 1.4-.5 2-.1h.1v-.1a1.81 1.81 0 0 0-2.3.1v.1h.2s-.1 0 0 0zm4.6.6c-.1 0-.1 0-.1-.1v-.1c.6-.5 1.6-.6 2.3-.1v.1h-.1c-.7-.3-1.5-.3-2.1.2zm2-2.7s-.1 0 0 0c-.2-.2-.4-.3-.6-.4-.3 0-.7.1-.9.3h-.1v-.1c.3-.2.7-.4 1.1-.4.2 0 .5.2.6.4-.1.1-.1.2-.1.2zm-3.9.4s0-.1 0 0c-.3-.5-.7-.8-1.1-.9-.5-.1-1 0-1.4.3h-.1v-.1c.5-.3 1-.5 1.6-.4.5.2.9.5 1.1.9 0 .1 0 .1-.1.2h0z" class="B"/><path d="M234.1 109.9c.6 2.5-2.8 6.4-4.8 7.8-1.3 1-2.5 2.2-3.5 3.6 0 0-.8-8.6 4.7-11.1" class="D"/><path d="M225.7 121.6v-.3c0-.1-.7-8.7 4.8-11.1 0 0 .1 0 .1.1v.1c-4.8 2.2-4.7 9.2-4.6 10.7 1-1.3 2.1-2.4 3.4-3.4 2-1.5 5.4-5.3 4.8-7.7 0-.1 0-.1.1-.1s.1 0 .1.1c.6 2.5-2.8 6.4-4.9 7.9a19.33 19.33 0 0 0-3.5 3.5l-.3.2z" class="B"/><path d="M234.1 110.2s6.3 5.1 1.2 12.7c0 0 3.1-6.7-1.5-11 .4-.5.5-1.1.3-1.7z" class="P"/><path d="M236.5 120.5h-1.8c-.5 0-.5-.4-.5-.9v-.8c0-.6-.1-1 .4-1l1.8-.1c.5 0 1-.1 1 1l.1 1.2c0 .6-.4.6-1 .6z" class="C"/><g class="B"><path d="M234.6 120.6a.47.47 0 0 1-.5-.5l-.1-2a.47.47 0 0 1 .5-.5l2.5-.1c.1 0 .3 0 .4.1s.2.2.2.4l.1 2c0 .1 0 .3-.1.4s-.2.2-.4.2h-2.6zm2.4-2.8l-2.5.1c-.2 0-.3.1-.3.3l.1 2c0 .2.1.3.3.3l2.5-.1c.1 0 .2 0 .2-.1.1-.1.1-.1.1-.2l-.1-2c0-.1 0-.2-.1-.2 0-.1-.1-.1-.2-.1z"/><path d="M233.1 122.5s-.1 0-.1-.1 0-.1.1-.1l1.3-.4-1.6-8.2c0-.1 0-.1.1-.1 0 0 .1 0 .1.1l1.6 8.3s0 .1-.1.1l-1.4.4zm1 1.3c.1 0 .1-.1 0-.1h-.1c-1.1.5-2.3.3-3.1-.6h-.1v.1c.5.6 1.3.9 2.1.9.4 0 .8-.1 1.2-.3zm-3.9-5.2c-.1 0-.2.2-.2.4s.1.4.2.4.2-.2.2-.4 0-.4-.2-.4zm4.5 0c-.1 0-.2.2-.2.4s.1.4.2.4.2-.2.2-.4-.1-.4-.2-.4zm15.8 14.7c-.1-.3-.4-.5-.8-.6v-.2c.4 0 .8.3 1 .7l-.2.1z"/></g><path d="M237.1 146.4c.1-3.3-1-7.9-2-8.6l-1.2-.2-.4.8s1.7 1.7 2 6l1.7 20.5 2.1-.5c.1.1-2.4-14.6-2.2-18z" class="E"/><path d="M237.2 165l-.2-2.1c0-.1-1.3-14.2-1.6-18.5s-2-5.9-2-5.9l-.1-.1.5-1 1.3.2c1.1.8 2.2 5.5 2 8.7-.1 3.3 1.9 16.3 1.9 16.4l.4 1.7-2.2.6zm-3.5-26.6c.3.4 1.8 2.1 2 6s1.6 18.9 1.7 20.3l1.8-.4c-.3-1.3-2.4-14.7-2.2-17.8.1-3.3-1-7.7-1.9-8.5l-1.1-.2-.3.6z" class="P"/><path d="M252.5 179.5l.8 2.5c-.8.9-2 1.4-3.3 1.4l-.7-1.5c-2 1.4-4.3 2.2-6.6 2.5l.2 1.1c-1.1.9-2.5 1.2-3.9 1l-.7-1.9c-.8 0-1.5 0-2.4-.1-.7 0-3.6-8.2-5.5-11.1-1.4-2-5.8-2.9-5.2-9.3.2-2.5 0-.7 0-.7 8.1 4 17.9.1 17.9.1s4.8 3.5 5.6 4.8c1.9 3.2 3.7 6.6 5.2 10.1l-1.4 1.1zm-28.5-26c.1 1.5.8 2.7 1.5 2.6s1.2-1.3 1.1-2.8-.6-2.7-1.3-2.7-1.3 1.4-1.3 2.9z" class="I"/><path d="M222.3 144.3l11-.3 4.2 11h-9.8l-5.4-10.7z" class="D"/><path d="M227.6 155.1l-5.5-10.9 11.2-.3v.1l4.2 11-9.9.1zm-5.2-10.7l5.3 10.5 9.6-.1-4.1-10.7-10.8.3z" class="B"/><path d="M230.9 144l-.4-.5h-1.6s-.7-1.4-1.7-1.2c-.5.1-.8.5-.8 1 0 .1 0 .2.1.2l-1.6.1.3.6" class="O"/><path d="M225.1 144.2l-.3-.7 1.6-.1c-.1-.3 0-.5.1-.8.2-.2.4-.4.7-.4 1-.2 1.7 1 1.8 1.2h1.6l.4.6-.2.1-.3-.5-1.6.1v-.1s-.7-1.4-1.6-1.2c-.2 0-.5.1-.6.3s-.1.5 0 .7v.1l-1.5.1.2.5-.3.1z" class="B"/><path d="M227.77 143.735c.179-.128.195-.415.035-.639s-.437-.303-.616-.175-.196.415-.035.64.436.302.616.174z" class="C"/><path d="M227.6 143.9c-.2 0-.5-.2-.6-.4a.45.45 0 0 1 0-.5c0-.1.1-.2.2-.3.3-.1.6 0 .8.3a.45.45 0 0 1 0 .5c0 .1-.1.2-.2.3s-.2.1-.2.1zm-.2-1h-.1c-.1 0-.1.1-.1.1v.3c.1.2.3.3.5.2.1 0 .1-.1.1-.1v-.3c-.1-.1-.2-.1-.4-.2z" class="B"/><path d="M229.1 152.6l-.8.1c.4-.1 1.4-.4 1.4-.5s-.2-.3-.8-.2l-.9.1c.4-.1 1.3-.4 1.4-.6s-.2-.3-.8-.1l-1.7.4h-.1l.1-.6c-.2.1-.5.2-.7.2-.3.1-.6.3-.9.5l-.3.1c-.6.4-.8 1.3-.4 1.9 0 .1.1.2.2.2l.2.1c.3.1.6.1 1 .1.3.1.6.1.9 0 .4-.1.7-.2 1.1-.4.2-.1 1.4-.2 1.5-.5s-.1-.3-.7-.2h-.5v-.1c.4-.1 1.3-.2 1.4-.4s0-.2-.6-.1z" class="F"/><path d="M226.4 154.5h-.4c-.3 0-.7 0-1-.1l-.2-.2c-.3-.4-.4-.8-.4-1.3.1-.4.3-.7.6-.9l.3-.1c.3-.2.6-.4.9-.5.2 0 .5-.1.7-.2l.2-.1-.1.7 1.6-.4c.4-.1.7-.1.8 0s.1.2.1.2c0 .1-.2.2-.5.4.4-.1.7 0 .8.1v.2c0 .1-.2.2-.4.3.2 0 .4 0 .5.1v.3c0 .1-.2.2-.5.3.1 0 .2 0 .3.1v.2c-.1.2-.4.2-1 .4-.2 0-.5.1-.5.1-.4.2-.7.3-1.1.4h-.7zm-1.3-.3c.3.1.6.1.9.1h.9c.4-.1.7-.2 1.1-.4.2-.1.4-.1.6-.1.3 0 .6-.1.9-.2l-4.4.6zm4.4-.8s-.1-.1-.6 0h-.2-.3v-.3h.1c.4 0 .9-.2 1.3-.4 0 0-.1-.1-.6 0l-.8.1h-.1l-.1-.2h.1c.5-.1.9-.2 1.3-.5 0 0-.2-.1-.6 0l-.9.1h-.1v-.1l-.1-.1.1-.1c.5-.1.9-.3 1.3-.6 0 0-.2-.1-.6.1l-1.7.4-.2-.1.1-.1.1-.4c-.2.1-.4.1-.5.2-.3.1-.6.3-.8.5l-.3.1c-.3.2-.4.5-.5.8-.1.4.1.8.3 1.1l4.3-.5z" class="B"/><path d="M226.1 133.5c-2.5 3.1-11.3 12-8.9 17s7.8 5.5 7.8 5.5-2.2-2.7 0-5.2c0 0-8.9.9.3-12.1" class="G"/><path d="M225.3 156.1h-.3s-5.5-.6-7.9-5.6c-2-4.3 4.1-11.5 7.5-15.3l1.5-1.8.2.1c-.4.5-.9 1.1-1.5 1.8-3.3 3.8-9.4 10.9-7.4 15.1 1.5 2.9 4.3 4.9 7.5 5.5a4.2 4.2 0 0 1 0-5c-.6 0-2.5-.1-3.3-1.5-1.2-2 .1-5.6 3.8-10.8l.2.1c-4.5 6.4-4.5 9.2-3.8 10.6.9 1.6 3.4 1.4 3.4 1.4h.2l-.2.2a4.06 4.06 0 0 0 0 5.1l.1.1zm1.8-14.3a1.53 1.53 0 0 1-1-.4c-.3-.3-.5-.7-.5-1.1 0-.9.6-1.6 1.5-1.6s1.6.6 1.6 1.5c-.1.8-.7 1.5-1.6 1.6zm0-2.9c-.4 0-.7.2-1 .4-.2.3-.4.6-.4 1s.2.7.4.9c.3.3.6.4 1 .4.7 0 1.3-.6 1.3-1.4 0-.4-.2-.7-.4-.9-.2-.3-.6-.4-.9-.4zm5.5 2.4h-.1c-.1-.1-.2-.2-.1-.4 0-.2.1-.3.2-.5.2-.4.5-.6.8-.5s.2.5 0 .9a.78.78 0 0 1-.4.4c-.2.1-.3.2-.4.1zm.5-1.2c-.1 0-.3.1-.5.4-.1.1-.1.3-.1.4v.2s.1 0 .2-.1l.3-.3c.1-.3.1-.5.1-.6zm2.4.6c-.3-.1-.5-.2-.6-.5-.2-.4-.3-.7-.1-.9.1-.1.3-.1.4 0a.78.78 0 0 1 .4.4c.2.2.2.4.2.7 0 .1-.1.1-.1.2-.1.1-.2.1-.2.1zm-.6-1.2c-.1 0 0 .3.2.6.1.2.3.3.4.4h.1 0c0-.2-.1-.4-.2-.5l-.3-.3c-.1-.2-.2-.2-.2-.2z" class="B"/><path d="M223.9 123.7c-2 1.5-3.2-.4-3-1.8a1.27 1.27 0 0 1 1.4-1.2h.1c.3 1 .8 2.1 1.5 3zm4.6 3.6l3.1 1.2-.1-2.2-3-.5v1.5zm-3.1 11.4s.4 4-.8 3.8l-.4-2.1 1.2-1.7zm7.2 2l-6.4-7.4v-.1h.1l6.2 7.2 1.2-2.9h.1l2.4.5-1.9-4.5v-.1h.1c.2.4 1.9 4.6 1.9 4.7v.1h-.1l-2.5-.5-1.2 2.9c.2 0 .2 0 .1.1z" class="P"/><path d="M226.6 138.8c-1.5-4.9-1.1-6-.8-7l.1-.2c.2-.9 1.1-1.5 2-1.4v.2c-.8-.1-1.6.5-1.8 1.3l-.1.2c-.3.9-.8 2.1.8 6.9h-.1-.1zm8.3-4.9c-.3-.5-.8-.9-1.4-1v-.2h-.2c-.4-2.1-1.3-2.2-1.3-2.2v.2s.7.1 1.1 2h-.3v.4c-.5.3-.8.8-1 1.4-.6 1.5-.3 3.5.9 6l.1-.1.1-.1c-1.3-3-1.2-4.8-.8-5.7.2-.5.5-.9.9-1.3h.6v-.1c.5.1.9.5 1.2.9.9 1.4.6 4 .3 5.3h.1l.1.1c.2-1.4.5-4-.4-5.6z" fill="#434359"/><path d="M67.5 98.9c-.1-.2-.3-.1-.6.4l-.4.7h-.1c.3-.5.5-1.1.6-1.8-.1-.2-.3 0-.6.4-.1.1-.3.7-.5 1.1h-.1c.2-.6.3-1.2.3-1.8-.1-.2-.3 0-.5.6l-.4 1.1h-.1c.1-.6.2-1.3.1-1.9-.2-.1-.3.1-.4.7l-.4 2-.1.2a2.37 2.37 0 0 0-.9-1.5c-.1-.1-.3-.1-.4 0 0 0 0 .1-.1.1 0 .1.6 1 .6 1.5 0 .4.1.8.2 1.2l.1.2-.2.6c-.7 2.2-1.9 4.1-3.5 5.8-.6.7-1.4 1.1-2.3 1.3 0-1.1-.4-1.9-1-1.9h-.4v-.1s-3.8.2-4.4-.3l-.1-.1.7-4.1c.6-.8 1-1.7 1.2-2.7 2.3 0 2.9-.8 2.4-2.5-.1-.2-.2-.4-.4-.5.3-.2.5-.5.6-.9 0 0 1.7-3.3 0-4.7.1-.5-.3-.9-.7-1h-.1v-1c-.3-1.9-1.7-3.3-3.2-3.1-.9.2-1.7.8-2 1.7-.2-.6-.6-1.1-1.1-1.6.6-.3 1.3-.8 1-1.6-.5-1.5-3.6-1-3.6-1s1.2-1.3.2-2.2c2.5-.4 2.1-3.3.4-4 .1 0 1.2-2.8-1.3-3-2.1-.2-3.4 1.9-3.1 1.1-.4-.2-.9-.2-1.3-.1 0 0 2.8-4.6-.3-5.6s-4 .4-4.4 1.6c0 0-2.8-.5-3.1 2.8 0 0-.2-.5-.9-.1 0 0 .2-1.8-2.1-1.4-2.6-3.2-7.1 1.9-2.7 3.2 0 0-.3.4.2 1-1.3-.3-2.6.3-3.2 1.4-4-1.6-7.1 5.5-.8 3.8 0 0 .1.7 1.4 1.1 0 0-1.2.2-1.2 1.2-1.3-.2-2.5.6-2.7 1.9v.7c-.8.2-1.3 1-1.1 1.8s1 1.3 1.8 1.1c.2 0 .4-.1.6-.3 0 0 .5 1.4 1.7 1.2-.6.1-1.1.6-1.2 1.3 0 .5.3.9.8 1 .1 0 .3 0 .4-.1-.3.6-.5 1.4-.4 2.1.2 1.1 1.8 1.2 1.8.2.3.2.7.2 1.1.1 0 .9.7.9 1.3.6v.4.3a1.58 1.58 0 0 0 .7 3.1c.4-.1.7-.3.9-.6.6.3 1.2.5 1.9.5h.2c0 .9 0 1.5-.1 1.5-.2.7-.7 1.3-1.4 1.6-.6.1-1.3.3-1.8.6h-.2c-1.5 0-2.9.8-3.9 1.9-.5.5-.8 1.2-.8 1.9-.1.6-.2 1.3-.1 1.9 0 3.6.8 8.5.8 9.1-.3 2 1 3.9 3 4.3.3.1.5.1.8.1-.1 4.3-1.8 5.7-2.3 7.2-1.1 3.2-1.9 5.2-1.7 5.6.4.6.9 1.1 1.6 1.4-.3-.1-.5-.1-.5-.1-2.8 4 2 19.6 1.7 21.6-1.2 7.2 1.8 18.3 2.2 19.7-.1.1-.3.3-.4.5-1.2 1.9-1 7.1 1 6.2s2.3-4.6 2.2-5.4c-.1-.4-.3-.7-.7-1 .3-2.5.5-12.2.7-15.6-.1-1.7 0-3.3.2-5 1.4-8.3.8-11.8.8-11.8l1-.1c1.3 10.7-.9 20.5.6 32.5 0 .1 0 .6.1.9s0 1.5.2 1.6c3.2 1.4 6.7 2.5 8.2 2 1-.4-1-1.8-3.2-3.3-.9-.6-1.8-1-2.8-1.4-.5-2.5 1.8-9.6 2.1-12.9.1-2.2.5-8.5 1.2-10.9.1-.4.2-1 .4-1.8 1.4-3.4 2.2-7 2.6-10.7.4-.5.9-1 .8-1.2-.1-.6-.4-1.1-.8-1.5v-.5l.3-.1H44l.1-.1s.8-3.9 1.4-5.9c.6.1 1.1.1 1.2-.1.7-.9 1.6-1.8 2.5-2.5.6-.1 1.2-.4 1.7-.8.3.2.7.4.8.3.1 0 .1-.3-.4-.6h-.1l.1-.1c.4.2.9.4 1 .4s.1-.3-.4-.6l-.3-.2v-.1c.4.2.9.4 1 .3s.1-.4-.5-.6l-.3-.2v-.1c.3.2.7.2 1 .2.2-.1 0-.4-.5-.6l-.3-.1c.1-.2.1-.5.1-.8l.1-15 3.3.8c0-.1-.1-.2-.1-.2.1.2.3.3.6.4.4.1.9-.3 1.2-.8 4.2.4 7-6.2 7.8-8.4l.2-.5.2-.3c.8-.7 1.3-1.6 1.6-2.7 0-.2.6-1.3.5-1.5zm-27.2 19.4l.2-.2.3-.1-.3 1h-.2v-.7zm.1 11.3l.9-.9 1.1-1 .6.1c-.8 1.2-1.5 2.4-2 3.7-.3-.5-.4-1.2-.6-1.9zM43.3 96c.1.5.3 1 .7 1.4-.3 2.4.2 5 2.2 6.4 0 0 0 .1.1.2v-.2l.3.2v.1c-.1 0-.2-.1-.2-.1l.1.9-.2 2.1c-.6.2-1.2.4-1.7.7-.1-.1-.1-.1-.1-.2-.8-1.2-1.2-2.1-3.1-2.8l-1.2-.4c-.4-.2-.9-.4-1.3-.5l-.9-.3c-.5-.2-.9-.5-1-.8s-.1-1.2-.1-2.2c.5-.1.9-.5 1.1-1 .7.2 1.4.2 2.1.1 1.7-.4 2.9-1.9 2.9-3.6h.3zm-1.2 38.6c-.3-.7-.6-1.5-.9-2.3l1.4.4c-.1.7-.3 1.3-.5 1.9z" class="B M"/><path d="M49.8 129c.1 0 .1-.1.1-.2 0-.2-.2-.4-.6-.6l-1.5-.8.4-.3v-.1s0-.1-.1-.1c-.2-.1-.5-.1-.7-.3-.6-.1-1.2-.2-1.8-.1l-.7-.4h-.1-.1l-.8 1.7v.1h.1l.6.2c.1.3.2.5.5.7.2.3.5.5.8.6.3.2.7.4 1.1.5l.5.2c.3.2.6.3.9.4h.1c.1 0 .1-.1.2-.2 0-.1-.1-.2-.2-.3.3.1.5.2.6.1.1 0 .1-.1.2-.2 0-.1-.1-.3-.3-.4a.9.9 0 0 0 .5.1c.1 0 .1-.1.1-.2 0-.2-.2-.4-.6-.6.5.3.7.3.8.2z" class="H J K Q"/><path d="M29.4 179.3a1.59 1.59 0 0 1 .8 1c.2.7-.1 4.4-2.1 5.4s-2.3-4.2-1.2-6.2c.2-.7 1-1.1 1.7-.9a1.85 1.85 0 0 1 .8.7zm3.4 0s0 .6.1 1 .1 1.5.2 1.6c3.3 1.3 6.8 2.4 8.3 1.8 1-.4-1-1.8-3.2-3.2-4.2-2.5-5.4-1.2-5.4-1.2z" class="I"/><path d="M38.2 154.7l-.4 1.8c-.6 2.5-.7 7.5-.7 9.7-.2 3.3-2.4 10.7-1.8 13-.8.4-1.7.4-2.5.1-1.7-12.1.3-22-1.2-32.7l-1 .1s.6 3.6-.6 11.9c-.2 1.7-.2 3.3-.1 5l-.3 15.7c0 .1-2.1.1-2.2-.1 0 0-3.8-12.1-2.7-19.8.3-2-4.6-18.8-2.5-23.1 0 0 10.2 4.1 17.9.6l.1.1c-.1 0 2.2 5.5-2 17.7z" class="B"/><path d="M37.6 118.3c2.2-1.9 3.9-3.5 4-5.3a4.1 4.1 0 0 0-1.4-3.1l2.4-1-.2-.1c-.5-.4-1-.9-1.3-1.4-.7-1.1-1.6-2.3-3-2.5-3.9-1.7-5.8-1.3-9.9-.5l-1.4.3.2-.3h-.2c-3-.4-5.7 1.7-6.1 4.7-.1.6-.1 1.2.1 1.8v.1l1.2-.1c3.7 10.2 2.8 13.8 1.8 17.6-.2.6-.3 1.2-.5 1.8-.2 1-.4 1.8-.6 2.6-.4 1.3-.6 2.5-.8 3.9 1.2 2.7 10 3.4 10.4 3.4 7-.1 8.4-2.9 8.5-3v-.2c-4.1-6.5-4.4-11.1-3.6-18.4l.4-.3z" class="D J K Q"/><path d="M31.5 142.8l-.3.3c-1.2 1.3-2.1 1.2-2.9.5s-.5-2.3.7-3.6c.7-.9 1.7-1.4 2.7-1.4 1-.2 1.6 1.2 1.6 1.8.2.6-1.3 1.9-1.8 2.4zm9.9-1.2c-.1-.6-.7-1.9-1.7-1.8-1.1 0-2.1.5-2.7 1.4-1.2 1.3-1.5 2.9-.7 3.6s1.7.7 2.9-.6l.3-.3c.4-.4 1.9-1.8 1.9-2.3z" class="I"/><path d="M33.9 118.4s3 .8 4.8-.8z" class="D"/><path d="M35.6 118.6c-.6 0-1.2-.1-1.7-.2v-.2s2.9.8 4.7-.8l.1.1c-.9.8-2 1.2-3.1 1.1z" fill="#133c5b"/><g class="J K Q"><path d="M35.7 179.3l-.4-.2h-.1-2.5-.1v.1l.2 1.1s0 .1.1.1c1.8.5 3.6.9 5.5 1 .2 0 .4 0 .6-.1.1 0 .1-.1.1-.2-.1-.2-1-.7-3.4-1.8zm-6.1-.1s-.1 0 0 0c-.7.2-1.4.2-2 0h-.1a2.44 2.44 0 0 0 0 2.6h.1l1.6.1s.1 0 .1-.1l.1-.5c.2-.7.3-1.4.2-2.1 0 .1 0 .1 0 0z" class="H"/><path d="M31.5 103.5c-3 0-6.2.6-6.2 1.7s3.1 1.7 6.2 1.7 6.2-.6 6.2-1.7-3.2-1.7-6.2-1.7z" class="S"/></g><path d="M47.4 85.8c-.5-1.5-3.6-1-3.6-1s1.2-1.3.2-2.2c2.5-.4 2.1-3.3.4-4 .1 0 1.2-2.8-1.3-3-2.1-.2-3.4 1.9-3.1 1.1-.4-.2-.9-.2-1.3-.1 0 0 2.8-4.6-.3-5.6s-4 .4-4.4 1.6c0 0-2.8-.5-3.1 2.8 0 0-.2-.5-.9-.1 0 0 .2-1.8-2.1-1.4-2.6-3.1-7.1 1.9-2.7 3.2 0 0-.3.4.2 1-1.3-.3-2.6.3-3.2 1.4-4-1.6-7.1 5.5-.8 3.8 0 0 .1.7 1.4 1.1 0 0-1.2.2-1.2 1.2-1.3-.2-2.5.6-2.7 1.9v.7c-.8.1-1.4.8-1.3 1.6s.8 1.4 1.6 1.3c.3 0 .6-.2.8-.4 0 0 .5 1.4 1.7 1.2-.7.1-1.1.7-1.1 1.4 0 .5.3.9.8 1h.4c-.3.6-.5 1.4-.4 2.1.2 1.1 1.8 1.2 1.8.2.3.2.7.2 1.1.1 0 .9.7.9 1.3.6v.4.3a1.58 1.58 0 0 0 .7 3.1c.4-.1.7-.3.9-.6.6.3 1.2.5 1.9.5.9 0 1.9-.4 2.6-1l.2.2c.4.5 1.1.8 1.7.7.5-.1 1-.5 1.2-1 .7.2 1.4.2 2.1.1 1.7-.4 2.9-1.9 2.9-3.6h.8c.6-.1 1.1-.5 1.4-1.1.2.3.6.5 1 .5.6-.1.8-1 .6-1.9 0-.2-.1-.3-.2-.5 2.3.2 3.8-2.3 1.3-3.2.4 0 2.5-1.1.9-2.2-.1-.3 2.3-.7 1.8-2.2zM33 93.9c-.5.6-.7 1.3-.8 2-.3-.5-.8-1-1.3-1.2l2.1-.8z" class="I"/><path d="M36.5 104.4c.1-.1-2.7-.8-2.7-1.5s-.3-5.3-.3-5.3L29 93c.3 3.1.4 6.2.2 9.3-.2.8-.8 1.5-1.6 1.7-.3.1-.6.1-.8.2-.3.1-.5.1-.4.2-.1.1-.2.2-.2.4 0 .6 2.4 1.1 5.4 1.1s5.4-.5 5.4-1.1c-.2-.2-.3-.3-.5-.4z" class="H"/><g class="B"><path d="M31.4 106c-2.7 0-5.5-.4-5.5-1.2 0-.2.1-.3.2-.4 0-.1.2-.2.5-.2.3-.1.5-.2.8-.2.8-.2 1.4-.9 1.6-1.6.2-3.1.1-6.2-.2-9.3 0-.1.1-.1.1-.1h.1l4.5 4.5v.1l.3 5.3c0 .5 1.6 1 2.2 1.3.3.1.4.1.5.2.2.1.4.3.4.5 0 .7-2.8 1.1-5.5 1.1zm-5-1.6c.1.1.1.1 0 0-.1.1-.2.2-.2.3 0 .5 2.2 1 5.3 1s5.3-.6 5.3-1c0-.1-.1-.2-.3-.3l-.4-.1c-1.1-.4-2.3-.9-2.4-1.4s-.3-4.8-.3-5.3l-4.2-4.3c.3 3 .3 6 .2 9-.2.9-.9 1.5-1.7 1.8-.3.1-.6.1-.8.2l-.5.1z"/><path d="M29.1 93.2l4.4 3.7v2.7c-1.5-.4-2.9-1-4.2-2l-.2-4.4z"/></g><path d="M27 87c-1 5.7 3.8 10.8 7.4 10.8 1.7 0 4.8-2.6 5-8.8.1-3-1.6-8.1-6.3-7.2-4.3.8-6.2-.5-6.1 5.2z" class="H"/><path d="M34.4 97.9c-2.1-.2-4-1.3-5.2-3-1.9-2.2-2.8-5.1-2.3-8-.1-4.6 1.3-4.8 3.9-5 .7-.1 1.4-.1 2.3-.3 1.4-.3 2.9.1 4 1 1.8 1.5 2.5 4.3 2.4 6.4-.3 6.3-3.4 8.9-5.1 8.9zm-.3-16.1c-.4 0-.7 0-1.1.1-.9.2-1.6.2-2.3.3-2.7.3-3.7.4-3.7 4.8-.4 2.8.4 5.7 2.3 7.8 1.2 1.6 3 2.7 5 2.9 1.6 0 4.7-2.6 4.9-8.7.1-2-.6-4.7-2.3-6.2-.8-.7-1.7-1-2.8-1z" class="B"/><path d="M27.3 88.3s-2-.3-2.2 1.3c-.2 1.3.2 3.4 2.9 2.9" class="H"/><path d="M27.2 92.7c-.6 0-1.1-.2-1.5-.6-.6-.7-.9-1.7-.7-2.6 0-.4.3-.8.6-1 .5-.3 1.1-.5 1.8-.4.1 0 .1.1.1.1 0 .1-.1.1-.1.1a2.22 2.22 0 0 0-1.6.3c-.3.2-.5.6-.5.9-.2.9.1 1.7.6 2.4.6.5 1.4.6 2.1.4.1 0 .1 0 .1.1s0 .1-.1.1c-.3.2-.6.2-.8.2z" class="B"/><path d="M35.8 95.5a1.27 1.27 0 0 0-.9-.7c-.5 0-1 0-1.5.2l-.5-.2c.3.7 1 1.3 1.8 1.5.5-.1 1-.4 1.1-.8z" fill="#b63b58"/><path d="M27.3 91.7s-.1 0 0 0c-.1-.1-.2-.2-.3-.2-.2 0-.4.1-.5.2h-.1c-.5-.5-.6-1.2-.3-1.9.2-.3.6-.4 1-.3.1 0 .1.1.1.1 0 .1-.1.1-.1.1-.3-.1-.6 0-.8.2-.2.5-.1 1.1.2 1.6.2-.1.4-.2.6-.1.2 0 .3.1.4.3-.1-.1-.1 0-.2 0z" class="B"/><path d="M35.1 80.6c.1-.5.1-.9 0-1.4-.8-4.4-8.3-1.1-8.3-1.1L22.1 81l2 5.2c-.5.5-.7 1.1-.7 1.8 0 1.4 1.1 2.5 2.5 2.6.2 0 .5 0 .7-.1.2.6.5 1.2 1.2 1 .8-.3 1.2-2.2 1.1-3.6.9-.2 1.6-1 1.7-2h.1c1.3-.1 2.4-1.2 2.3-2.5.7.2 1.3 0 1.8-.4.6-.7.7-1.6.3-2.4z" class="I"/><path d="M40.2 111.2s-3.3 9.2-4.4 13.5c0 .2 8.1 4.4 13.2 2.8l.1-15 3.4.8c-.8-1.7-.4-3.8.9-5.1 0 0-3.9.2-4.4-.3-.9-1-5.4-.7-5.4-.7s-2.6.2-5.5 3.4l-.6.8s-.2 1.2 1.8 1.8l.9-2z" class="E"/><path d="M46.4 127.9c-3.7-.2-7.4-1.3-10.6-3.2l-.1-.1c.8-3 2.7-8.7 3.7-11.6l-.1.3h-.1c-2.1-.6-1.9-1.8-1.9-1.9l.6-.8c2.9-3.2 5.4-3.5 5.6-3.5s4.6-.2 5.5.7c.4.4 2.8.4 4.3.3h.2l-.2.2c-1.3 1.3-1.6 3.3-.9 5l.1.2-3.4-.8-.1 14.9v.1h0c-.9.1-1.7.2-2.6.2zm-10.5-3.3c.6.5 8.2 4.2 13 2.8l.1-14.9v-.1l3.3.8c-.7-1.7-.3-3.5.8-4.9-.9 0-3.7.1-4.2-.4-.9-.9-5.3-.7-5.3-.7s-2.6.3-5.4 3.4l-.6.8c0 .2 0 1.1 1.6 1.6l.9-1.8.2.1c-.1 0-3.4 9.1-4.4 13.3zm17.6-32.2c.1-.5-.3-.9-.7-1h-.1v-1c-.3-1.9-1.7-3.3-3.2-3.1-.9.2-1.7.8-1.9 1.7-.4-1.3-1.6-2.2-2.9-2.1-1.1.2-1.9 1.1-2.1 2.2h-.5c-1.1.1-2 1.4-1.8 2.9.1.7.3 1.3.8 1.9-.5.5-.8 1.2-.8 1.9 0 1.2.6 2.1 1.4 2.1.1 0 .2 0 .4-.1 2 1 4.1 1.9 6.3 2.4 0 0 4.2-.9 5.2-3-.1-.1 1.6-3.5-.1-4.8z" class="B"/><path d="M48.4 104l-.5 5.2s-1.3 1.8-4.9-.8l.5-4.3" class="H"/><g class="B"><path d="M46.4 109.9c-1.2-.1-2.4-.6-3.4-1.4v-.1l.5-4.3c0-.1 0-.1.1-.1s.1 0 .1.1v.1l-.5 4.2c3.2 2.3 4.5 1 4.7.8l.5-5.1.1-.1c.1 0 .1 0 .1.1l-.5 5.2c-.5.4-1.1.7-1.7.6z"/><path d="M43.4 105.2c1 1.7 3.9 1.3 4.7 1.1l-.1 1.3-.2 1.6 1.1-1.1 1-6.4c.1-.9-.5 1.1-.2.4-.9 2.9-2.7 2.3-4 2.3-1.9.1-2.4-.5-2.4-.5l.1 1.3z"/></g><path d="M53.3 98.4c-.3-1.1-2.3-.6-2.7-.3l1-3.6s-.7-2.4-5.8-2.8-8.1 12.6.7 13.2c3.5.2 4.4-4.1 4.4-4.1 2.2.2 2.8-.7 2.4-2.4z" class="H"/><g class="B"><path d="M53.4 98.4c-.1-.3-.3-.6-.7-.7-.7-.2-1.4-.1-2 .2l.9-3.3-.3.7-.8 2.8v.1h.1c.6-.3 1.3-.4 2-.3.3.1.5.3.5.5.2.6.2 1.2-.1 1.7-.3.4-1.1.6-2.2.6l-.1.1s-.8 3.9-3.9 4l-.1.2c3.1 0 4.1-3.5 4.2-4.1 1.2 0 1.9-.2 2.3-.7.4-.4.5-1.1.2-1.8z"/><path d="M46.5 104.9c-2.1 0-4-1.2-4.9-3-1.1-2.7-.8-5.7.8-8.1.6-1.1 1.8-1.8 3.1-1.9h.3c4.7.4 5.6 2.4 5.7 2.7l-.2.6.3-.6c0-.1-.8-2.4-5.9-2.9-1.4 0-2.8.8-3.5 2-1.6 2.5-1.9 5.6-.8 8.3 1 1.9 2.9 3.1 5.1 3.1h.3l.1-.2h-.4z"/><path d="M51.1 93.2s-1.4 5.2-.5 5.2 2.7-2.3 2.7-2.3l-2.2-2.9z"/></g><path d="M32.4 129a13.06 13.06 0 0 0-2.4 10.3v.6c1 .4 2.2.1 2.9-.7v-.2c-.6-.1.2-7.4 1.4-7.7.1 0-1.8-1.2-1.9-2.3z" class="H"/><path d="M31 140.2c-.2 0-.5 0-.7-.1-.4-.1-.4-.1-.4-.2v-.6c-.6-3.6.2-7.3 2.4-10.3h.1v.1c.1.9 1.8 2.1 1.9 2.2v.1s0 .1-.1.1c-.4.1-.8 1.1-1.1 2.8-.5 2.3-.5 4.5-.3 4.7 0 0 .1 0 .1.1v.2c-.4.5-1.1.9-1.9.9zm-.9-.4c1 .4 2.1.1 2.8-.7 0 0-.2-.3-.2-1.1 0-1.8.6-6 1.5-6.6-.8-.5-1.4-1.2-1.8-2.1-2.1 2.9-2.9 6.5-2.3 10v.5z" class="B"/><path d="M29.8 137c.9.7 2.1.7 3 .1 0 .7 0 1.3.1 2-.7.9-1.9 1.2-2.9.7l-.2-2.8z" class="S"/><path d="M31 140.2c-.4 0-.7-.1-1.1-.2 0 0-.1 0-.1-.1l-.2-2.9s0-.1.1-.1h.1c.8.6 2 .7 2.8.1h.1v.1c0 .7 0 1.3.1 2 0 0 0 .1-.1.1-.2.6-.9 1-1.7 1zm-.9-.4c1 .4 2.1.1 2.7-.7-.1-.6-.1-1.2-.1-1.8-.9.5-1.9.4-2.8-.1 0 .9.1 1.8.2 2.6z" class="B"/><path d="M40.3 130.2a13.06 13.06 0 0 0-2.4 10.3v.6c1 .4 2.2.1 2.9-.7v-.1c-.6-.1.2-7.4 1.4-7.7.1 0-1.8-1.3-1.9-2.4z" class="H"/><path d="M39 141.4c-.2 0-.5 0-.7-.1-.4-.1-.4-.1-.4-.2 0-.2 0-.4-.1-.6-.6-3.6.2-7.3 2.4-10.3h.1v.1c.1.9 1.8 2.1 1.9 2.2v.1s0 .1-.1.1c-.4.1-.8 1.1-1.1 2.8-.5 2.3-.5 4.6-.3 4.7l.1.1v.2c-.4.5-1.1.9-1.8.9zm-.9-.4c1 .4 2.1.1 2.8-.7 0 0-.2-.3-.2-1.1 0-1.8.6-6 1.5-6.6-.8-.5-1.4-1.2-1.8-2.1-2.1 2.9-2.9 6.5-2.3 10-.1.1-.1.4 0 .5z" class="B"/><path d="M37.8 138.2c.9.7 2.1.7 3 .1 0 .7 0 1.3.1 2-.7.9-1.9 1.2-2.9.7-.2-.9-.3-1.8-.2-2.8z" class="S"/><path d="M39 141.4c-.4 0-.7-.1-1.1-.2 0 0-.1 0-.1-.1l-.2-2.9s0-.1.1-.1c0 0 .1 0 .1.1.8.6 2 .7 2.8.1h.1s0 .1.1.1c0 .7 0 1.3.1 2 0 0 0 .1-.1.1-.3.6-1.1.9-1.8.9zm-1-.4c1 .4 2.1.1 2.7-.7-.1-.6-.1-1.2-.1-1.8-.9.5-1.9.4-2.8-.1 0 .9.1 1.8.2 2.6zm11.1-13.6c-.1 0-.1 0 0 0-.2 0-7.8.7-13-2.9H36c-2.1 1-3.8 2.5-4.9 4.5v.1c1.3 1.3 3 2.3 4.7 2.9h.1c.6-1.1 1.5-2.1 2.4-2.9l1.1-1 .4.1a16.52 16.52 0 0 0-2.1 4.2s0 .1.1.1c1.8.6 3.6 1.1 5.4 1.3.3 0 .6-.1.6-.2a13.63 13.63 0 0 1 2.4-2.4c1.7-.4 3-1.9 2.9-3.8z" class="B"/><path d="M54.671 110.963c.221-1.475-.22-2.764-.984-2.878s-1.564.988-1.785 2.463.22 2.763.984 2.877 1.564-.988 1.785-2.462z" class="I"/><path d="M64.4 99.1c-.1-.2-.3-.1-.6.4l-.4.7h-.1c.3-.5.5-1.1.6-1.8-.1-.2-.3 0-.6.4-.1.1-.3.7-.5 1.1h-.1c.2-.6.3-1.2.3-1.8-.2-.2-.4 0-.5.6 0 .2-.2.7-.4 1.1H62c.1-.6.2-1.3.1-1.9-.2-.1-.3.1-.4.7l-.4 2-.2.2a2.37 2.37 0 0 0-.9-1.5c-.1-.1-.3-.1-.4 0 0 0 0 .1-.1.1 0 .1.6 1 .6 1.5 0 .4.1.8.2 1.2l.1.2-.2.6c-.7 2.2-1.9 4.1-3.5 5.8-2.6 2.6-4.6.6-4.6.6a5.24 5.24 0 0 0-.3 2.5c5.3 3.2 8.9-5.1 9.9-7.7l.2-.5.2-.3c.8-.7 1.3-1.7 1.5-2.7.1-.2.8-1.3.6-1.5z" class="H"/><path d="M54.4 112.6c-.9 0-1.7-.3-2.4-.7v-.1a5.24 5.24 0 0 1 .3-2.5s0-.1.1-.1h.1c.5.4 1.1.7 1.8.7 1-.1 2-.5 2.6-1.3 1.6-1.6 2.8-3.5 3.4-5.7v-.1l.2-.5-.1-.2c-.1-.4-.2-.8-.2-1.2-.1-.4-.2-.7-.4-1s-.2-.5-.2-.6.1-.2.3-.3c.1 0 .2 0 .3.1.4.4.7.8.8 1.4l.4-2c.1-.4.2-.7.4-.8.1 0 .2 0 .2.1 0 0 .2.1 0 1.5l.2-.6c.1-.4.3-.7.5-.7.1 0 .2 0 .2.1 0 0 .1.1-.1 1.2l.1-.2.1-.3c.2-.4.4-.6.5-.6s.2 0 .2.1c.1.1 0 .5-.3 1.2l.1-.1c.2-.4.4-.6.6-.6.1 0 .2.1.2.1.1.2-.1.5-.3 1.1-.1.2-.2.3-.2.5-.2 1.1-.8 2-1.6 2.7l-.2.3-.2.5c-.8 2.1-3 7.1-6.3 8.2-.2.3-.6.4-1.1.4zm-2.2-.8a3.94 3.94 0 0 0 3.5.5c3.2-1.1 5.4-6 6.2-8.1l.2-.5.2-.4a4.61 4.61 0 0 0 1.5-2.6c0-.2.1-.4.2-.6.2-.3.3-.6.3-.9 0 0-.1 0-.4.5l-.3.4-.2.3h-.1-.1l-.1-.1v-.1c.3-.5.5-1.1.6-1.7 0 0-.1 0-.4.5 0 .1-.1.1-.1.3s-.3.6-.4.8l-.1.1h-.1c-.1 0-.1-.1-.1-.1.2-.5.3-1.1.4-1.7 0 0-.2.1-.3.6-.1.2-.2.7-.4 1.1 0 .1-.1.1-.2.1h-.1v-.1c.1-.6.2-1.2.1-1.8-.1 0-.2.2-.2.6-.1.4-.3 1.4-.4 2l-.1.2h-.1s-.1 0-.1-.1c-.1-.5-.4-1-.8-1.4 0 0-.1-.1-.2-.1s-.1.1-.1.1c.1.1.1.3.2.4.2.3.3.7.4 1.1 0 .4.1.8.2 1.1l.1.2v.1l-.2.6c-.7 2.2-1.9 4.1-3.5 5.8-.7.8-1.7 1.3-2.8 1.4-.7 0-1.3-.2-1.8-.7-.3.7-.4 1.4-.4 2.2z" class="B"/><path d="M43.7 119.4l-.9.1c.4-.1 1.4-.3 1.5-.5s-.2-.3-.8-.2l-.9.1c.4-.1 1.4-.4 1.4-.6s-.2-.3-.8-.1c-.3.1-1.2.3-1.8.4h-.1l.2-.6c-.2.1-.5.2-.7.2-.5.3-1 .6-1.4 1l-.8.1.5 1.8.6-.2c.2.2.5.3.8.3.3.1.7.1 1 0 .4 0 .8-.2 1.1-.3.2-.1 1.4-.2 1.6-.4s-.1-.3-.7-.2H43v-.1c.4-.1 1.3-.2 1.4-.4s-.2-.5-.7-.4z" class="H"/><path d="M41 121.2h-.5c-.3 0-.6-.1-.8-.3l-.6.2H39v-.1l-.5-1.8v-.1h.1l.8-.1c.4-.4.9-.8 1.5-1 .2 0 .5-.1.7-.2h.1v.1l-.1.5 1.7-.4c.4-.1.7-.1.8 0s.1.2 0 .2c0 .1-.3.2-.6.4.4-.1.7 0 .8.1v.2c0 .1-.2.2-.4.3.3 0 .4 0 .5.2v.2c0 .1-.2.2-.6.3.1 0 .2.1.3.1v.2c-.1.2-.4.2-1 .3-.2 0-.4.1-.6.1-.4.2-.8.3-1.2.3 0 .3-.2.3-.3.3zm-1.3-.5c0-.1 0-.1 0 0 .3.2.5.3.8.3.3.1.6.1.9 0 .4 0 .8-.1 1.2-.3.2-.1.4-.1.6-.1.3 0 .6-.1.9-.2l-4.4.3zm4.4-.5s-.1-.1-.6-.1H43h-.1v-.1-.1s0-.1.1-.1c.5 0 .9-.1 1.3-.3 0 0-.1-.1-.6-.1l-.9.1s-.1 0-.1-.1v-.1s0-.1.1-.1c.5 0 1-.2 1.4-.4 0 0-.2-.1-.7 0l-.9.1s-.1 0-.1-.1v-.1s0-.1.1-.1c.5-.1.9-.3 1.3-.5 0 0-.2-.1-.7 0l-1.8.4h-.1l-.1-.1s0-.1.1-.1l.1-.4c-.2.1-.4.1-.6.2-.5.2-1 .6-1.4 1l-.7.1.4 1.6.6-.2 4.4-.4z" class="B"/><path d="M23.5 111.4c.8 2.4 1.3 4.9 1.7 7.4 0 .1 0 .3.1.4l.8.5 13.3-.6.4 1.9s-12.9 3.4-15.3 2.8c-2-.4-3.3-2.3-3-4.3 0-.9-2-12.2.4-12.9" class="D"/><path d="M25.3 123.9c-.3 0-.6 0-.9-.1-2-.4-3.3-2.3-3.1-4.3v-.1c0-.2-.1-.7-.2-1.4-.7-5.4-1.2-11.1.6-11.6l.1.2c-1.8.6-.8 8.4-.5 11.4.1.7.2 1.2.2 1.4v.1c-.3 1.9 1 3.7 2.9 4.1 2.2.6 13.9-2.4 15.1-2.8l-.4-1.7-13.1.8-.8-.5c0-.1-.1-.3-.1-.4-.4-2.5-1-5-1.7-7.4l.2-.1c.8 2.4 1.3 4.9 1.7 7.4 0 .1 0 .2.1.3l.7.4 13.3-.6.4 2h-.1c-.5.2-10.8 2.9-14.4 2.9z" fill="#133c5b"/><path d="M41.3 107.7c-.2.2-2.6 7.2-2.6 7.2l-3.6-1.5v-4.2l3.8-3.1 2.4 1.6z" class="D"/><path d="M37 89.1c0 .3-.1.5-.2.5s-.3-.2-.3-.5.1-.5.3-.5c0 0 .2.2.2.5zm-4.9-.7c-.2 0-.3.2-.2.5s.2.5.3.5.3-.2.3-.5-.2-.5-.4-.5zm3.8 7.4l.1-.1-.1-.1c-1.2.2-2.3-.4-2.9-1.4h-.1v.1c.6.9 1.6 1.5 2.7 1.5 0 .1.1 0 .3 0zM34.7 94l1.9-1v-.1l-1.8-8.5c0-.1 0-.1-.1-.1s-.1 0-.1.1l1.8 8.4-1.8 1v.1c0 .1 0 .1.1.1zm-4-7.2c.7-.5 1.7-.5 2.5 0h.1v-.1c-.8-.6-1.9-.6-2.8 0v.1h.2zm5.2.1c.7-.6 1.7-.6 2.5 0h.2v-.1a2.25 2.25 0 0 0-2.7 0s-.1.1 0 .1c-.1 0-.1.1 0 0-.1 0-.1.1 0 0zm15.3 12.7l1.2-.8s.1-.1 0-.1c0 0-.1-.1-.1 0l-1.2.8v.1h.1zm.6.5s.3-.2.3-.4-.1-.3-.4-.5h-.1v.1c.2.1.3.2.3.3s-.2.2-.2.2v.1c-.1.2 0 .2.1.2zm-5.2 1.3v-.1c-.1 0-.1 0-.1.1-.2.4-.7.7-1.2.6-.1 0-.1 0-.1.1 0 0 0 .1.1.1h.2c.4 0 .9-.3 1.1-.8zm-2.2-4.8c-.1 0-.3.2-.3.4s.1.5.2.5.3-.2.3-.5 0-.4-.2-.4zm3.3.6c-.1 0-.3.2-.3.4s.1.5.2.5.3-.2.3-.5c0-.2-.1-.4-.2-.4zm-2.8 3c0-.1 0-.1-.1-.1-.4 0-.8-.3-.9-.7-.1-.3-.1-.6.2-.8.1-.1.2-.1.3-.1.2 0 .3.2.4.4.1.1.2.3.4.4h.2c.4-.2.6-2.5.6-3.2 0-.1 0-.1-.1-.1s-.1 0-.1.1c0 1-.2 2.1-.5 3.1l-.3-.3c-.2-.2-.3-.4-.6-.5-.2 0-.3.1-.4.2-.3.3-.4.7-.2 1 .1.2.5.6 1.1.6 0 0-.1 0 0 0 0-.1 0-.1 0 0zm-1.1-5.6c.3-.3.8-.4 1.1-.1h.1v-.1c-.4-.3-1.1-.3-1.4.1v.1c.1.1.1.1.2 0 0 0 0 .1 0 0zm5.1.6c.1 0 .1-.1.1-.1 0-.3-.2-.5-.4-.6-.3-.1-.6-.1-.9.1v.1c0 .1.1.1.1.1.2-.1.4-.1.7-.1.2 0 .4.2.4.5zm-7.6 12.6c-.1 0-.1 0-.1.1l-1.2 3.5c-.4-1.1-.9-2.1-1.7-3h-.1v.1c.8.9 1.4 2 1.7 3.1 0 0 0 .1.1.1l.1-.1v-.1l-.1.5 1.4-4c0-.1 0-.1-.1-.2h0zm8.6-4.4a5.39 5.39 0 0 0 1.1-3.2c0-.1 0-.1-.1-.1s-.1.1-.1.1c-.1 1.2-.5 2.3-1.1 3.2h.1c-.1 0 0 0 .1 0-.1 0-.1 0 0 0z" class="P"/><path d="M142.4 47.7a8.9 8.9 0 0 0 8.9-8.9c0-4.915-3.985-8.9-8.9-8.9s-8.9 3.985-8.9 8.9a8.9 8.9 0 0 0 8.9 8.9z" fill="#169ec5"/><path d="M142.4 46.7a7.9 7.9 0 1 0 0-15.8 7.9 7.9 0 1 0 0 15.8z" class="B"/><path d="M142.6 33c3.6-.1 3.6 5.7 0 5.6s-3.7-5.6 0-5.6zm5.2 9.2c-1.1-3.3-9.7-3.5-10.7.1.3 3.6 10.6 3.8 10.7-.1z" class="C"/><path d="M192.4 139.3c-10.8-16.8-57.6-42.2-30-67.3 21.1-19.2 29.3 7.3 30 7.3 1.6.5 7.8-26 30.4-7.3 28.1 23.3-24.9 56.5-30.4 67.3z" class="D"/><g class="C"><path d="M214.6 99.5c-1.5 0-2.8 1-3.1 2.4h-7.9l-5.2-15.7c0-.2-.2-.3-.4-.3s-.3.1-.4.3L189 114l-7.5-21.8c-.1-.2-.2-.3-.4-.3s-.3.1-.4.2l-5.5 11.5h-17.5c-.2 0-.4.2-.4.4s.2.4.4.4h17.8c.2 0 .3-.1.4-.2l5.2-10.8 7.6 22.1c.1.2.2.3.4.3s.3-.1.4-.3l8.6-27.8 4.9 14.8c.1.2.2.3.4.3h8.1c0 1.8 1.5 3.2 3.2 3.2 1.8 0 3.2-1.5 3.2-3.2-.1-1.9-1.5-3.3-3.3-3.3zm-52.5-24.4c-.6-1 .8-2.9 3.1-4.2s4.6-1.6 5.2-.6-.8 2.9-3.1 4.2-4.5 1.6-5.2.6z"/><path d="M214.6 105.1c-1.3 0-2.4-1.1-2.4-2.4s1.1-2.4 2.4-2.4 2.4 1.1 2.4 2.4-1.1 2.4-2.4 2.4z"/></g><path d="M307.2 21.8a6.7 6.7 0 0 1-13.4 0 6.7 6.7 0 0 1 13.4 0zM84.6 47c-4.3 0-7.8 3.5-7.8 7.8s3.5 7.8 7.8 7.8 7.8-3.5 7.8-7.8-3.5-7.8-7.8-7.8z" class="B"/><path d="M300.5 29.8c-4.4 0-8-3.6-8-8s3.6-8 8-8 8 3.6 8 8-3.6 8-8 8zm0-15.6a7.6 7.6 0 1 0 0 15.2 7.6 7.6 0 1 0 0-15.2zm4.1 6.6h-3.1v-3.1h-2.1v3.1h-3v2.1h3.1V26h2.1v-3.1h3v-2.1zm-220 43.3c-5.1 0-9.3-4.2-9.3-9.3s4.2-9.3 9.3-9.3 9.3 4.2 9.3 9.3-4.2 9.3-9.3 9.3zm0-18.3c-4.9 0-8.9 4-8.9 8.9s4 8.9 8.9 8.9 8.9-4 8.9-8.9-4-8.9-8.9-8.9zm4.8 7.7h-3.6v-3.6h-2.4v3.6h-3.6v2.4h3.6v3.6h2.4V56h3.6v-2.5z" class="E"/><defs ><path id="B" d="M118.3 176.1c-3.8 0-6.9-3.1-6.9-6.9s3.1-6.9 6.9-6.9 6.9 3.1 6.9 6.9-3.1 6.9-6.9 6.9zm0-13.4a6.49 6.49 0 1 0 0 13 6.49 6.49 0 1 0 0-13z"/><path id="C" d="M95.9 120c-3.8 0-6.9-3.1-6.9-6.9s3.1-6.9 6.9-6.9 6.9 3.1 6.9 6.9c0 3.9-3.1 6.9-6.9 6.9zm0-13.3a6.49 6.49 0 1 0 0 13 6.49 6.49 0 1 0 0-13z"/><path id="D" d="M95.9 139.1c-3.8 0-6.9-3.1-6.9-6.9s3.1-6.9 6.9-6.9 6.9 3.1 6.9 6.9-3.1 6.9-6.9 6.9zm0-13.4a6.49 6.49 0 1 0 0 13 6.49 6.49 0 0 0 6.5-6.5c0-3.6-2.9-6.4-6.5-6.5z"/><path id="E" d="M153.4 167.8c-2.8.4 5.8 6.3 5.8 6.3s-24.3 22.5 1 30.1l-4.9.1 120.1-6.1c-19.5-23.7-31.3-39.4-31.3-39.4L155 170.9"/></defs></svg>