<?xml version="1.0" encoding="utf-8"?>
<!-- Generator: Adobe Illustrator 19.1.0, SVG Export Plug-In . SVG Version: 6.00 Build 0)  -->
<svg width="36px" height="36px" version="1.1" id="Layer_1" xmlns="http://www.w3.org/2000/svg" xmlns:xlink="http://www.w3.org/1999/xlink" x="0px" y="0px"
	 viewBox="0 0 65.7 171" style="enable-background:new 0 0 65.7 171;" xml:space="preserve">
<style type="text/css">
	.st0{fill:white;}
	.st1{fill:white;}
	.st2{fill:white;}
	.st3{fill:white;}
</style>
<path id="XMLID_2229_" class="st1" d="M60.6,90.2h-2.7H31.4h-2.6H0v48.1c0,18,14.7,32.7,32.7,32.7h0c18,0,32.7-14.7,32.7-32.7V90.2
	H60.6z"/>
<linearGradient id="XMLID_4_" gradientUnits="userSpaceOnUse" x1="28.7744" y1="124.7985" x2="57.9542" y2="124.7985">
	<stop  offset="0" style="stop-color:#81BEE1"/>
	<stop  offset="0.5167" style="stop-color:#FFFFFF"/>
</linearGradient>
<path id="XMLID_2228_" class="st2" d="M28.8,90.2v54.6c0,8,6.6,14.6,14.6,14.6S58,152.8,58,144.8V90.2h-2.7H28.8z"/>

<path id="XMLID_2226_" class="st0" d="M60.6,80.8h-2.7H31.4h-2.6H0V32.7C0,14.7,14.7,0,32.7,0h0c18,0,32.7,14.7,32.7,32.7v48.1H60.6
	z"/>
<linearGradient id="XMLID_5_" gradientUnits="userSpaceOnUse" x1="28.7744" y1="-895.7039" x2="57.9542" y2="-895.7039" gradientTransform="matrix(1 0 0 -0.985 0 -836.0654)">
	<stop  offset="0" style="stop-color:#81BEE1"/>
	<stop  offset="0.5167" style="stop-color:#FFFFFF"/>
</linearGradient>
<path id="XMLID_2225_" class="st3" d="M28.8,80.8V26.2c0-8,6.6-14.6,14.6-14.6S58,18.2,58,26.2v54.6h-2.7H28.8z"/>
</svg>
