<svg width="750" height="913" viewBox="0 0 750 913" fill="none" xmlns="http://www.w3.org/2000/svg">
<mask id="mask0" mask-type="alpha" maskUnits="userSpaceOnUse" x="0" y="0" width="750" height="913">
<path d="M750 0L0 451.5V635L750 913V0Z" fill="url(#paint0_linear)"/>
</mask>
<g mask="url(#mask0)">
<path d="M750 815.17C746.42 814.28 0 617.55 0 617.55V627.39L750 913.21V815.17Z" fill="#159FBB"/>
<path d="M653.243 356.11L56.823 514.4L53.7631 488.87L660.393 270.32L653.243 356.11Z" fill="#DFEDF6"/>
<path d="M649.623 513.84L0 567.48V550.49L646.933 396.71L646.963 398.019L647.123 397.98L650.183 484.79L648.96 484.948L649.623 513.84Z" fill="#DFEDF6"/>
<path d="M0 587.15L645.153 621.13L650.513 529.93L0 575.53V587.15Z" fill="#DFEDF6"/>
<path d="M0 604.14C5.36 604.14 643.353 766.86 643.353 766.86L646.903 645.32L0 589.83V604.14Z" fill="#DFEDF6"/>
<path d="M0 483L749.533 103.7V0.5L0 468.13V483Z" fill="#D3EAF2"/>
<path d="M0 544.24L651.403 371.68L658.563 215.21L0 516.52V544.24Z" fill="#D3EAF2"/>
<path fill-rule="evenodd" clip-rule="evenodd" d="M55.5333 524.32L52.1233 495.89L53.2433 495.48L662.083 268.12L654.653 357.32L653.653 357.59L55.5333 524.32ZM55.3833 497.9L58.1033 520.53L651.833 354.95L658.703 272.54L55.3833 497.9Z" fill="white"/>
<path fill-rule="evenodd" clip-rule="evenodd" d="M61.4434 562.07V538.76L648.593 396.09L651.763 486.09L650.413 486.27L61.4434 562.07ZM64.4434 541.07V558.61L648.633 483.43L645.633 399.82L64.4434 541.07Z" fill="white"/>
<path d="M664.403 635.39L665.823 635.47L676.373 538.35L124.153 566.01L124.303 569.01L673.013 541.52L663.143 632.32L121.243 603.8L121.083 606.8L664.403 635.39Z" fill="white"/>
<path d="M397.663 343.29L398.763 342.86L675.773 234.96L675.683 243.75L398.643 348.65L397.543 349.07L109.753 458.05L109.833 455.4L397.663 343.29Z" fill="#7591A6"/>
<path d="M120.323 507.84V505.54L664.223 357.72L664.483 364.79L120.323 507.84Z" fill="#7591A6"/>
<path d="M550.923 504.21L119.263 553.88V556.01L551.053 513.36L550.923 504.21Z" fill="#7591A6"/>
<path d="M118.803 553.94L117.643 554.07V556.17L118.803 556.06V553.94Z" fill="#7591A6"/>
<path d="M659.883 613.47L126.273 593.89L125.943 591.39L657.333 605.81L659.883 613.47Z" fill="#7591A6"/>
<path d="M392.613 697.78L391.573 697.55L117.643 637.75V640.73L655.483 765.13L655.983 755.27L392.613 697.78Z" fill="#7591A6"/>
<path d="M594.953 267.33L595.343 237.87C595.351 237.536 595.334 237.202 595.293 236.87C595.003 233.7 592.893 231.82 589.893 231.87C589.42 231.907 588.943 231.84 588.498 231.674C588.053 231.508 587.649 231.247 587.315 230.909C586.981 230.571 586.725 230.165 586.564 229.717C586.403 229.27 586.341 228.794 586.383 228.32V224.2L575.893 228.95L575.633 233.17C575.31 235.748 574.015 238.105 572.013 239.76C569.194 242.174 567.343 245.528 566.803 249.2C566.753 249.49 566.753 249.76 566.753 250.03L566.353 278.44L594.953 267.33Z" fill="#7591A6"/>
<path d="M603.263 343.32L603.703 374.67L575.413 382.21L575.013 351.78C574.993 351.484 574.993 351.187 575.013 350.89C575.176 349.084 575.703 347.33 576.562 345.733C577.421 344.137 578.595 342.731 580.013 341.6C581.01 340.822 581.831 339.843 582.424 338.727C583.016 337.61 583.367 336.381 583.453 335.12L583.593 330.64L593.963 327.27L594.083 331.71C594.037 332.754 594.38 333.777 595.045 334.582C595.71 335.388 596.65 335.918 597.683 336.07C600.623 336.5 602.813 338.85 603.203 342.33C603.233 342.61 603.263 342.94 603.263 343.32Z" fill="#7591A6"/>
<path d="M317.673 454.78L317.443 438.78C317.441 438.6 317.428 438.419 317.403 438.24C317.373 437.464 317.075 436.722 316.562 436.139C316.048 435.556 315.35 435.168 314.583 435.04C314.055 434.962 313.575 434.69 313.235 434.279C312.896 433.867 312.72 433.344 312.743 432.81L312.683 430.54L307.383 432.26L307.303 434.56C307.262 435.205 307.084 435.834 306.78 436.405C306.477 436.976 306.055 437.475 305.543 437.87C304.821 438.449 304.223 439.168 303.786 439.985C303.349 440.801 303.083 441.698 303.003 442.62C302.993 442.77 302.993 442.92 303.003 443.07L303.203 458.63L317.673 454.78Z" fill="#7591A6"/>
<path d="M437.113 520.23L478.153 515.77L477.473 458.43L436.563 467.68L437.113 520.23Z" fill="#7591A6"/>
<path d="M393.123 525.08L392.903 500.55C392.88 500.288 392.876 500.023 392.893 499.76C393.133 498.232 393.73 496.782 394.635 495.527C395.54 494.273 396.728 493.25 398.103 492.54C399.075 492.067 399.908 491.351 400.521 490.461C401.135 489.57 401.507 488.537 401.603 487.46V483.85L412.603 481.58L412.873 485.25C413.043 487.25 414.623 488.66 416.873 489.04C420.073 489.57 422.433 491.64 422.803 494.64C422.839 494.889 422.859 495.139 422.863 495.39L423.123 521.82L393.123 525.08Z" fill="#7591A6"/>
<path d="M347.743 529.46L372.823 526.74L372.463 482.3L347.433 487.96L347.743 529.46Z" fill="#7591A6"/>
<path d="M316.383 533.39L316.253 513.5C316.253 513.32 316.263 513.08 316.333 512.82C316.441 511.676 316.804 510.571 317.396 509.586C317.988 508.601 318.794 507.762 319.753 507.13C320.428 506.696 320.988 506.106 321.387 505.41C321.785 504.714 322.011 503.932 322.043 503.13V500.21L329.163 498.74L329.333 501.74C329.352 502.474 329.612 503.181 330.073 503.752C330.534 504.323 331.17 504.727 331.883 504.9C332.924 505.179 333.851 505.778 334.533 506.613C335.215 507.447 335.617 508.475 335.683 509.55V510.15L335.833 531.28L316.383 533.39Z" fill="#7591A6"/>
<path d="M134.593 552.3L134.583 536.05L140.603 534.78L140.613 551.64L134.593 552.3Z" fill="#7591A6"/>
<path d="M299.593 534.22L278.083 536.44L277.953 509.78L299.443 505.41L299.593 534.22Z" fill="#7591A6"/>
<path d="M188.643 546.05L200.533 545.03L200.433 514.91L188.563 517.04L188.643 546.05Z" fill="#7591A6"/>
<path d="M233.553 540.9L223.903 541.95L223.823 515.84L233.463 513.66L233.553 540.9Z" fill="#7591A6"/>
<path d="M358.353 567.33L358.883 598.58L338.263 598.03L337.723 568.31L358.353 567.33Z" fill="#7591A6"/>
<path d="M151.653 593.26L159.273 593.39L158.393 573.63L150.783 573.91L151.653 593.26Z" fill="#7591A6"/>
<path d="M195.543 595.47L186.613 595.19L186.113 577.05L195.043 576.68L195.543 595.47Z" fill="#7591A6"/>
<path d="M215.743 595.05L223.143 595.25L222.523 570.78L215.133 571.21L215.743 595.05Z" fill="#7591A6"/>
<path d="M605.523 552.12L606.473 608.31L569.383 607.33L568.413 553.88L605.523 552.12Z" fill="#7591A6"/>
<path d="M262.443 455.44L262.583 469.44L251.453 472.44L251.323 458.76V458.36C251.427 456.787 252.145 455.318 253.323 454.27C253.728 453.91 254.057 453.472 254.291 452.983C254.524 452.493 254.658 451.962 254.683 451.42L254.743 449.42L258.813 448.09V450.09C258.78 450.534 258.902 450.975 259.157 451.34C259.412 451.704 259.785 451.969 260.213 452.09C260.84 452.273 261.389 452.655 261.779 453.178C262.169 453.702 262.378 454.338 262.373 454.99C262.422 455.113 262.431 455.256 262.438 455.37L262.441 455.412L262.443 455.44Z" fill="#7591A6"/>
<path d="M153.423 496.77V487.03C153.423 486.92 153.423 486.82 153.343 486.75C153.37 486.332 153.286 485.914 153.1 485.538C152.914 485.163 152.632 484.843 152.283 484.61C152.04 484.451 151.847 484.228 151.725 483.964C151.603 483.701 151.557 483.408 151.593 483.12V481.74L149.593 482.41V483.81C149.59 484.504 149.346 485.176 148.903 485.71C148.274 486.49 147.922 487.458 147.903 488.46V498.32L153.423 496.77Z" fill="#7591A6"/>
<path d="M135.453 492.56V501.67L130.573 503V493.74C130.588 492.818 130.896 491.925 131.453 491.19C131.849 490.685 132.063 490.062 132.063 489.42V488.11L133.853 487.52V488.82C133.821 489.086 133.86 489.355 133.965 489.601C134.071 489.847 134.239 490.06 134.453 490.22C134.761 490.451 135.006 490.755 135.169 491.104C135.331 491.453 135.405 491.836 135.383 492.22C135.443 492.37 135.453 492.46 135.453 492.56Z" fill="#7591A6"/>
<path d="M123.553 504.89L128.593 503.52L128.583 486.38L123.543 488.09L123.553 504.89Z" fill="#7591A6"/>
<path d="M178.513 490.81L167.873 493.68L167.823 476.84L178.443 473.36L178.513 490.81Z" fill="#7591A6"/>
<path d="M223.763 477.59L223.673 465.39C223.673 465.26 223.663 465.13 223.553 465.01C223.575 464.46 223.424 463.918 223.123 463.457C222.822 462.997 222.385 462.641 221.873 462.44C221.522 462.301 221.225 462.051 221.029 461.728C220.832 461.405 220.746 461.026 220.783 460.65V458.91L217.593 459.97V461.72C217.565 462.641 217.181 463.515 216.523 464.16C215.583 465.102 215.027 466.361 214.963 467.69V468.03L215.043 479.97L223.763 477.59Z" fill="#7591A6"/>
<path d="M495.973 403.32L495.693 375.85C495.692 375.563 495.675 375.276 495.643 374.99C495.353 371.92 493.693 369.79 491.433 369.32C489.843 368.98 488.683 367.49 488.683 365.37L488.593 361.47L480.593 364.06L480.473 367.99C480.428 369.051 480.169 370.092 479.712 371.051C479.255 372.01 478.609 372.867 477.813 373.57C475.531 375.629 474.149 378.502 473.963 381.57V382.35L474.213 409.11L495.973 403.32Z" fill="#7591A6"/>
<path d="M465.533 714.47L444.713 709.89L446.313 657.89L467.303 660.53L465.533 714.47Z" fill="#7591A6"/>
<path d="M290.363 680.43L290.693 661.03C290.693 660.82 290.693 660.61 290.683 660.4C290.724 658.521 290.117 656.685 288.964 655.2C288.174 654.184 287.779 652.915 287.853 651.63V648.84L284.413 648.42L284.293 651.17C284.324 651.756 284.231 652.342 284.021 652.89C283.811 653.438 283.488 653.935 283.073 654.35C282.143 655.04 281.443 656.76 281.313 658.91V659.45L281.023 678.29L290.363 680.43Z" fill="#7591A6"/>
<path d="M276.773 650.95L276.493 672.71L266.993 670.54L267.243 649.18V648.57C267.363 646.14 268.073 644.19 269.033 643.43C269.897 642.44 270.342 641.153 270.273 639.84L270.373 636.75L273.873 637.27V640.39C273.794 641.812 274.192 643.22 275.003 644.39C276.183 646.106 276.792 648.149 276.743 650.23C276.762 650.387 276.769 650.535 276.772 650.684C276.773 650.772 276.773 650.86 276.773 650.95Z" fill="#7591A6"/>
<path d="M143.463 644.39V627.04C143.463 626.977 143.462 626.913 143.461 626.849L143.458 626.765C143.456 626.673 143.453 626.58 143.453 626.49C143.475 624.843 142.947 623.235 141.953 621.92C141.255 621.019 140.9 619.899 140.953 618.76V616.27L138.013 616L137.943 618.48C137.978 619.009 137.908 619.539 137.736 620.041C137.565 620.542 137.295 621.004 136.943 621.4C136.133 622.06 135.553 623.61 135.463 625.61V643.25L143.463 644.39Z" fill="#7591A6"/>
<path d="M177.483 651.07L170.143 649.42L170.233 627.75L177.593 628.81L177.483 651.07Z" fill="#7591A6"/>
<path d="M220.333 660.58L220.483 640.94C220.483 640.72 220.483 640.52 220.463 640.31C220.511 638.478 220.043 636.67 219.113 635.09C218.475 634.002 218.169 632.75 218.233 631.49V628.67L215.543 628.28L215.473 631.09C215.539 632.257 215.204 633.411 214.523 634.36C213.793 635.07 213.253 636.86 213.163 639.07V639.62L213.033 658.97L220.333 660.58Z" fill="#7591A6"/>
<path d="M258.213 670.88L242.973 668.12L242.743 630.32L258.053 631.67L258.213 670.88Z" fill="#7591A6"/>
<path d="M506.903 275.79L506.473 301.7L484.313 310.3L484.753 285.21V284.47C485.124 281.374 486.572 278.507 488.843 276.37C490.447 274.897 491.454 272.887 491.673 270.72L491.893 267L500.023 263.32V266.98C500.023 268.98 501.104 270.2 502.714 270.27C504.994 270.37 506.633 272.13 506.853 274.98C506.885 275.249 506.902 275.52 506.903 275.79Z" fill="#7591A6"/>
<path d="M453.543 322.17L475.443 313.67L476.293 266.02L454.413 276.23L453.543 322.17Z" fill="#7591A6"/>
<path d="M386.333 323.55L385.714 352.39L365.833 359.96L366.453 332.14V331.33C366.722 328.117 368.028 325.078 370.173 322.67C371.677 321.014 372.582 318.902 372.743 316.67L372.973 312.56L380.273 309.13V313.2C380.273 315.42 381.203 316.89 382.643 317.1C384.643 317.4 386.153 319.49 386.313 322.69C386.334 322.977 386.341 323.264 386.333 323.55Z" fill="#7591A6"/>
<path d="M319.833 377.51L320.443 352.32C320.443 352.02 320.443 351.76 320.453 351.49C320.343 348.69 319.243 346.78 317.693 346.41C316.593 346.16 315.903 344.82 315.903 342.88V339.32L310.323 341.98L310.123 345.58C310.027 347.473 309.326 349.285 308.123 350.75C306.425 352.87 305.416 355.46 305.233 358.17V358.88L304.623 383.31L319.833 377.51Z" fill="#7591A6"/>
<path d="M295.653 363.11L295.053 386.92L281.443 392.1L282.043 368.97V368.3C282.193 365.76 283.099 363.322 284.643 361.3C285.734 359.911 286.364 358.215 286.443 356.45L286.623 353.05L291.623 350.7V354.07C291.623 355.91 292.233 357.19 293.213 357.46C294.593 357.84 295.573 359.67 295.663 362.33C295.653 362.6 295.653 362.85 295.653 363.11Z" fill="#7591A6"/>
<path d="M251.353 403.57L251.783 387.39C251.814 387.222 251.833 387.051 251.843 386.88C251.793 385.07 251.213 383.78 250.363 383.46C249.733 383.24 249.363 382.34 249.363 381.08V378.78L246.293 380.16L246.163 382.49C246.124 383.661 245.734 384.794 245.043 385.74C244.066 387.113 243.501 388.737 243.413 390.42V390.88L242.983 406.76L251.353 403.57Z" fill="#7591A6"/>
<path d="M218.903 401.32L218.483 416.11L211.483 418.78L211.893 404.23V403.81C211.959 402.298 212.436 400.832 213.273 399.57C213.88 398.706 214.227 397.686 214.273 396.63L214.383 394.5L216.903 393.32V395.43C216.903 396.57 217.203 397.43 217.693 397.64C218.403 397.96 218.883 399.16 218.923 400.82L218.903 401.32Z" fill="#7591A6"/>
<path d="M143.823 442.5L144.173 431.26C144.177 431.221 144.179 431.184 144.181 431.146C144.185 431.068 144.19 430.991 144.203 430.91C144.257 430.466 144.221 430.015 144.099 429.584C143.978 429.153 143.772 428.751 143.493 428.4C143.302 428.157 143.162 427.877 143.083 427.578C143.004 427.279 142.987 426.966 143.033 426.66V425.06L141.493 425.76L141.413 427.37C141.396 428.137 141.193 428.888 140.823 429.56C140.298 430.53 140.007 431.608 139.973 432.71V433.03L139.623 444.13L143.823 442.5Z" fill="#7591A6"/>
<path d="M130.443 437.15L130.113 447.83L126.313 449.3L126.653 438.74V438.44C126.684 437.394 126.951 436.369 127.433 435.44C127.773 434.802 127.958 434.093 127.973 433.37L128.043 431.83L129.443 431.2V432.73C129.399 433.02 129.412 433.316 129.482 433.601C129.553 433.886 129.679 434.154 129.853 434.39C130.353 435.085 130.577 435.94 130.483 436.79C130.461 436.888 130.455 436.975 130.45 437.063L130.45 437.064C130.448 437.093 130.446 437.121 130.443 437.15Z" fill="#7591A6"/>
<path d="M120.783 451.42L124.763 449.87L125.403 429.66L121.423 431.51L120.783 451.42Z" fill="#7591A6"/>
<path d="M162.203 436.35L154.493 439.32L155.073 420.13L162.793 416.64L162.203 436.35Z" fill="#7591A6"/>
<path d="M193.523 423.21L193.903 409.95L193.913 409.5C193.913 408.01 193.503 406.93 192.913 406.62C192.503 406.41 192.263 405.62 192.263 404.62V402.73L190.113 403.73L190.023 405.64C189.992 406.569 189.716 407.473 189.223 408.26C188.513 409.397 188.113 410.701 188.063 412.04V412.42L187.673 425.48L193.523 423.21Z" fill="#7591A6"/>
<path d="M603.533 715.48L602.683 750L582.683 745.42L583.443 712.11V711.16C583.733 707.36 585.233 704.35 587.243 703.16C588.693 702.33 589.743 700.23 589.883 697.58L590.153 692.71L597.563 693.62L597.493 698.57C597.423 699.743 597.598 700.917 598.006 702.019C598.414 703.121 599.046 704.126 599.863 704.97C601.933 706.77 603.383 710.33 603.523 714.34C603.543 714.74 603.543 715.11 603.533 715.48Z" fill="#7591A6"/>
<path d="M536.233 734.81L536.803 704.66C536.803 704.32 536.803 704.01 536.813 703.75C536.693 700.25 535.583 697.16 534.003 695.63C532.706 694.079 532.051 692.089 532.173 690.07V685.75L526.503 685.06L526.313 689.32C526.223 691.64 525.423 693.5 524.313 694.25C522.773 695.25 521.633 697.92 521.413 701.25V702.09L520.903 731.32L536.233 734.81Z" fill="#7591A6"/>
<path d="M507.753 708.52L507.413 729.1L497.503 726.83L497.813 706.83V706.26C497.953 703.98 498.683 702.15 499.683 701.43C500.121 700.987 500.461 700.458 500.683 699.876C500.905 699.294 501.004 698.672 500.973 698.05L501.093 695.14L504.753 695.58V698.58C504.673 699.925 505.081 701.253 505.903 702.32C507.125 703.897 507.767 705.846 507.723 707.84C507.753 708.07 507.763 708.32 507.753 708.52Z" fill="#7591A6"/>
<path d="M492.703 720.91L492.993 697.83C492.993 697.58 492.993 697.32 492.983 697.09C492.903 694.41 492.143 692.06 491.143 690.89C490.277 689.644 489.852 688.145 489.933 686.63V683.31L486.223 682.76L486.103 686.05C486.181 687.44 485.711 688.804 484.793 689.85C483.773 690.66 483.023 692.72 482.893 695.3V695.95L482.623 718.61L492.703 720.91Z" fill="#7591A6"/>
<path d="M639.203 249.04L609.103 260.74L609.973 205.19L640.053 191.17L639.203 249.04Z" fill="#7591A6"/>
<path d="M529.483 292.68L557.573 281.77L558.363 227.75L530.303 240.84L529.483 292.68Z" fill="#7591A6"/>
<path d="M656.433 360.56L655.903 327.32C655.903 326.99 655.843 326.64 655.743 326.27C655.642 324.623 654.963 323.065 653.825 321.87C652.687 320.675 651.163 319.921 649.523 319.74C648.407 319.622 647.376 319.089 646.635 318.246C645.894 317.403 645.497 316.312 645.523 315.19L645.383 310.49L633.743 314.27L633.583 319.02C633.474 320.384 633.073 321.709 632.407 322.905C631.741 324.1 630.826 325.139 629.723 325.95C628.162 327.135 626.862 328.63 625.903 330.34C624.945 332.05 624.349 333.939 624.153 335.89V336.83L624.633 369.03L656.433 360.56Z" fill="#7591A6"/>
<path d="M344.623 447.63L344.353 430.63C344.37 430.454 344.377 430.277 344.373 430.1C344.32 429.258 343.972 428.463 343.39 427.852C342.809 427.241 342.031 426.855 341.193 426.76C340.618 426.705 340.085 426.434 339.701 426.002C339.317 425.569 339.11 425.008 339.123 424.43L339.053 422.03L333.053 423.96L332.973 426.39C332.917 427.09 332.708 427.769 332.363 428.38C332.018 428.992 331.543 429.52 330.973 429.93C330.175 430.538 329.51 431.304 329.02 432.179C328.53 433.055 328.225 434.022 328.123 435.02C328.118 435.106 328.115 435.192 328.116 435.277C328.116 435.348 328.119 435.419 328.123 435.49L328.363 451.96L344.623 447.63Z" fill="#7591A6"/>
<path d="M212.213 543.23V530.41C212.213 530.32 212.213 530.14 212.283 530C212.3 528.69 212.807 527.435 213.703 526.48C214.329 525.812 214.667 524.925 214.643 524.01V522.15L217.543 521.55L217.603 523.43C217.575 523.839 217.652 524.249 217.827 524.62C218.002 524.992 218.269 525.312 218.603 525.55C219.091 525.902 219.484 526.37 219.747 526.911C220.011 527.451 220.137 528.049 220.113 528.65V542.37L212.213 543.23Z" fill="#7591A6"/>
<path d="M146.123 498.74L140.363 500.31L140.333 482.37L146.093 480.41L146.123 498.74Z" fill="#7591A6"/>
<path d="M161.503 647.71L153.143 646.52L153.253 615.89L161.623 616.58L161.503 647.71Z" fill="#7591A6"/>
<path d="M266.903 381L266.463 397.81L257.463 401.26L257.893 384.77V384.29C257.983 382.524 258.592 380.823 259.643 379.4C260.38 378.418 260.802 377.236 260.853 376.01L260.983 373.59L264.303 372.1L264.253 374.49C264.253 375.8 264.653 376.73 265.303 376.95C266.213 377.27 266.853 378.59 266.913 380.47L266.903 381Z" fill="#7591A6"/>
<path d="M133.893 446.33L138.303 444.62L138.963 423.33L134.553 425.39L133.893 446.33Z" fill="#7591A6"/>
<path d="M671.153 760.36L693.243 765.21L695.123 707.99L672.853 705.19L671.153 760.36Z" fill="#7591A6"/>
<path d="M548.133 359.97L548.493 389.33L523.653 395.95L523.333 367.39C523.319 367.117 523.319 366.843 523.333 366.57C523.457 364.912 523.908 363.295 524.66 361.813C525.412 360.33 526.45 359.01 527.714 357.93C528.602 357.193 529.328 356.278 529.844 355.246C530.361 354.213 530.657 353.084 530.714 351.93L530.853 347.72L539.943 344.77L540.053 348.93C540.113 351.19 541.383 352.76 543.203 353.08C545.784 353.54 547.693 355.78 548.033 359.08C548.113 359.32 548.133 359.66 548.133 359.97Z" fill="#8CCFE6"/>
<path d="M398.333 408.15L398.833 433.2L372.493 440.2L372.063 416.33C372.049 416.097 372.049 415.863 372.063 415.63C372.252 414.123 372.752 412.672 373.531 411.369C374.311 410.065 375.354 408.939 376.593 408.06C377.472 407.46 378.21 406.676 378.755 405.763C379.301 404.85 379.641 403.829 379.753 402.77L379.873 399.22L389.503 395.91L389.633 399.43C389.652 400.309 390.018 401.145 390.651 401.754C391.285 402.363 392.134 402.696 393.013 402.68C394.305 402.686 395.55 403.164 396.513 404.024C397.477 404.885 398.092 406.068 398.243 407.35C398.294 407.614 398.324 407.882 398.333 408.15Z" fill="#8CCFE6"/>
<path d="M173.963 580.32L174.463 593.96L166.593 593.79L166.103 580.32V579.93C166.071 579.297 166.171 578.665 166.397 578.073C166.622 577.48 166.968 576.941 167.413 576.49C167.727 576.183 167.969 575.81 168.123 575.399C168.276 574.988 168.338 574.548 168.303 574.11V572.11L171.193 572.01L171.283 574.01C171.274 574.461 171.364 574.907 171.547 575.319C171.731 575.73 172.002 576.096 172.343 576.39C172.833 576.821 173.228 577.348 173.505 577.938C173.782 578.528 173.935 579.169 173.953 579.82C173.97 579.986 173.973 580.154 173.963 580.32Z" fill="#8CCFE6"/>
<path d="M289.433 462.32L289.253 447.32C289.253 447.14 289.24 446.959 289.213 446.78C289.193 446.077 288.939 445.401 288.492 444.857C288.045 444.314 287.429 443.935 286.743 443.78C286.263 443.684 285.835 443.415 285.541 443.024C285.246 442.634 285.104 442.148 285.143 441.66L285.083 439.53L280.433 441.04L280.363 443.19C280.33 443.781 280.175 444.359 279.908 444.887C279.642 445.415 279.269 445.883 278.813 446.26C278.167 446.813 277.636 447.488 277.252 448.247C276.867 449.005 276.637 449.832 276.573 450.68V451.1L276.733 465.7L289.433 462.32Z" fill="#8CCFE6"/>
<path d="M380.163 700.13L380.973 667.59C380.983 667.24 380.983 666.89 380.933 666.5C380.803 662.73 379.483 659.36 377.483 657.67C376.717 656.878 376.122 655.937 375.737 654.904C375.351 653.872 375.183 652.771 375.243 651.67L375.313 647.01L368.313 646.16L368.073 650.75C367.933 653.24 366.943 655.22 365.583 656.01C363.684 657.1 362.273 659.94 361.993 663.51V664.41L361.273 695.81L380.163 700.13Z" fill="#8CCFE6"/>
<path d="M318.063 657.39L317.533 685.81L303.073 682.51L303.553 654.95V654.16C303.753 651.02 304.833 648.51 306.283 647.52C307.283 646.81 308.083 645.06 308.183 642.87L308.363 638.87L313.703 639.52V643.59C313.588 645.495 314.203 647.373 315.423 648.84C316.903 650.28 317.953 653.19 318.073 656.49C318.073 656.78 318.073 657.08 318.063 657.39Z" fill="#8CCFE6"/>
<path d="M234.843 409.86L235.263 394.38L235.253 393.89C235.213 392.15 234.673 390.91 233.903 390.59C233.363 390.36 233.033 389.49 233.033 388.29V386.09L230.213 387.35L230.093 389.58C230.07 390.686 229.722 391.76 229.093 392.67C228.19 393.99 227.671 395.534 227.593 397.13V397.57L227.163 412.78L234.843 409.86Z" fill="#8CCFE6"/>
<path d="M428.503 333.84L401.063 344.4L401.813 308.79L429.243 296.4L428.503 333.84Z" fill="#E67D22"/>
<path d="M641.163 501.47L540.693 511.86L539.923 456.86L640.043 436.51L641.163 501.47Z" fill="#E67D22"/>
<path d="M266.123 537.26L248.633 539.07L248.543 514.93L266.013 511.38L266.123 537.26Z" fill="#E67D22"/>
<path d="M543.593 551.6L544.573 603.07L513.333 602.23L512.343 553.09L543.593 551.6Z" fill="#E67D22"/>
<path d="M323.463 597.63L322.913 569.02L305.543 569.85L306.093 597.17L323.463 597.63Z" fill="#E67D22"/>
<path d="M391.153 599.21L390.783 575.34L373.833 575.66L374.213 598.76L391.153 599.21Z" fill="#E67D22"/>
<path d="M438.833 600.02L438.563 576.52L419.383 576.89L419.663 599.51L438.833 600.02Z" fill="#E67D22"/>
<path d="M486.173 601.91L485.813 563.49L460.043 564.08L460.423 601.07L486.173 601.91Z" fill="#E67D22"/>
<path d="M183.073 489.58L194.883 486.39L194.783 468L182.993 471.86L183.073 489.58Z" fill="#E67D22"/>
<path d="M394.783 699.05L429.733 706.87L431.353 650.19L396.193 645.13L394.783 699.05Z" fill="#E67D22"/>
<path d="M233.073 664L233.303 643.17C233.303 642.95 233.303 642.73 233.253 642.47C233.307 640.495 232.752 638.55 231.663 636.9C230.922 635.763 230.571 634.415 230.663 633.06V630.06L227.453 629.58L227.353 632.58C227.42 633.828 227.016 635.055 226.223 636.02C225.353 636.76 224.703 638.63 224.583 640.96V641.54L224.363 662L233.073 664Z" fill="#E67D22"/>
<path d="M185.313 653.04L193.243 654.81L193.373 631.68L185.433 630.54L185.313 653.04Z" fill="#E67D22"/>
<path d="M173.793 431.89L165.463 435.09L166.063 415.17L174.403 411.41L173.793 431.89Z" fill="#E67D22"/>
<path d="M116.013 454.13L110.513 456.25L111.033 440L116.543 437.52L116.013 454.13Z" fill="#E67D22"/>
<path d="M655.263 757.15L618.183 748.85L619.683 691.65L656.983 697.02L655.263 757.15Z" fill="#E67D22"/>
<path d="M148.393 595.54L148.993 607.23L209.423 612.98L210.013 597.52L148.393 595.54Z" fill="#E67D22"/>
<path d="M394.843 603.77L396.193 630.45L534.123 643.56L535.483 608.29L394.843 603.77Z" fill="#E67D22"/>
<path d="M663.843 566.52L664.513 609.45L634.043 608.64L633.363 567.1L663.843 566.52Z" fill="#E67D22"/>
<path d="M149.683 550.59L149.673 533.23L156.563 531.77L156.583 549.84L149.683 550.59Z" fill="#E67D22"/>
<path d="M119.953 554.47V546.24L122.613 545.78V554.18L119.953 554.47Z" fill="#E67D22"/>
<path d="M209.934 593.69L200.044 593.38L199.544 574.3L209.414 573.89L209.934 593.69Z" fill="#E67D22"/>
<path d="M217.933 414.58V429.13L474.523 337.21L477.593 311.17L350.237 361.89L350.763 339.07C350.763 338.78 350.763 338.5 350.753 338.17C350.583 335.19 349.353 333.19 347.583 332.85C346.383 332.62 345.583 331.22 345.583 329.15V325.35L339.233 328.35L339.023 332.19C338.9 334.242 338.11 336.198 336.773 337.76C334.871 340.017 333.729 342.817 333.513 345.76V346.52L332.992 368.758L217.933 414.58Z" fill="#159FBB"/>
<path d="M448.903 392.24L449.553 419.69L418.003 428.09L417.444 402.09C417.428 401.837 417.428 401.583 417.444 401.33C417.694 398.25 419.823 395.04 422.843 392.92C425.013 391.4 426.523 389.14 426.603 387.03L426.743 383.15L438.273 379.15L438.434 382.99C438.534 385.08 440.153 386.37 442.503 386.43C445.843 386.52 448.344 388.36 448.803 391.37C448.858 391.657 448.891 391.948 448.903 392.24Z" fill="#159FBB"/>
<path d="M173.133 529.24L173.163 547.66L181.713 546.72L181.673 527.51L173.133 529.24Z" fill="#159FBB"/>
<path d="M266.863 573.25L267.363 595.43L255.763 595.12L255.263 573.73L266.863 573.25Z" fill="#159FBB"/>
<path d="M286.713 595.46L286.213 571.49L272.713 572.04L273.213 595.1L286.713 595.46Z" fill="#159FBB"/>
<path d="M143.403 571.09L144.143 591.94L136.753 591.8L136.023 571.38L143.403 571.09Z" fill="#159FBB"/>
<path d="M244.903 594.32L244.263 576.85C244.253 576.66 244.243 576.47 244.253 576.23C244.229 575.393 244.033 574.569 243.677 573.81C243.321 573.051 242.812 572.374 242.183 571.82C241.752 571.449 241.407 570.989 241.172 570.471C240.937 569.952 240.818 569.389 240.823 568.82L240.703 566.31L237.003 566.44V568.94C237.046 569.503 236.966 570.069 236.767 570.598C236.569 571.126 236.257 571.605 235.853 572C235.281 572.577 234.837 573.268 234.549 574.028C234.261 574.787 234.137 575.599 234.183 576.41V576.9L234.813 594.1L244.903 594.32Z" fill="#159FBB"/>
<path d="M232.643 475.13L243.223 472.24L243.013 447.36L232.443 450.97L232.643 475.13Z" fill="#159FBB"/>
<path d="M211.523 480.89L202.663 483.31L202.533 461.16L211.373 458.15L211.523 480.89Z" fill="#159FBB"/>
<path d="M356.053 691.38L356.713 661.06C356.713 660.73 356.713 660.41 356.703 660.13C356.593 656.61 355.393 653.49 353.703 651.94C353.018 651.182 352.488 650.297 352.145 649.334C351.802 648.372 351.652 647.351 351.703 646.33L351.763 641.98L345.683 641.24L345.473 645.52C345.323 647.85 344.503 649.71 343.323 650.45C341.673 651.45 340.443 654.11 340.213 657.45C340.198 657.73 340.198 658.01 340.213 658.29L339.623 687.62L356.053 691.38Z" fill="#159FBB"/>
<path d="M210.053 658.26L202.473 656.6L202.703 620.23L210.303 621.19L210.053 658.26Z" fill="#159FBB"/>
<path d="M206.253 418.22L199.373 420.89L200.123 394.81L207.013 391.6L206.253 418.22Z" fill="#159FBB"/>
<path d="M179.223 428.72L185.283 426.37L186.013 401.39L179.943 404.22L179.223 428.72Z" fill="#159FBB"/>
<path d="M577.793 708.55L577.103 740.72L559.673 736.72L560.293 705.61V704.72C560.543 701.17 561.843 698.35 563.593 697.24C564.843 696.46 565.763 694.49 565.883 692.02L566.103 687.47L572.543 688.26V692.87C572.47 693.957 572.615 695.047 572.969 696.078C573.322 697.108 573.878 698.057 574.603 698.87C576.403 700.52 577.663 703.87 577.793 707.56C577.803 707.86 577.803 708.21 577.793 708.55Z" fill="#159FBB"/>
<path d="M587.123 225.69L574.893 231.21L575.253 227.84L586.843 222.57L587.123 225.69Z" fill="#103B5D"/>
<path d="M632.693 316.71L646.273 312.33L645.843 308.74L632.993 312.94L632.693 316.71Z" fill="#103B5D"/>
<path d="M390.273 397.24L379.043 401.06L379.283 398.25L389.913 394.57L390.273 397.24Z" fill="#103B5D"/>
<path d="M413.733 482.99L400.903 485.59L401.213 482.7L413.353 480.16L413.733 482.99Z" fill="#103B5D"/>
<path d="M329.843 499.95L321.533 501.63L321.733 499.31L329.603 497.67L329.843 499.95Z" fill="#103B5D"/>
<path d="M121.363 554.88V556.98L122.523 556.86V554.74L121.363 554.88Z" fill="#103B5D"/>
<path d="M217.783 522.32L214.403 523.01L214.483 521.53L217.683 520.86L217.783 522.32Z" fill="#103B5D"/>
<path d="M168.043 573.06L171.413 572.95L171.263 571.43L168.083 571.54L168.043 573.06Z" fill="#103B5D"/>
<path d="M236.673 567.56L240.993 567.43L240.803 565.47L236.713 565.61L236.673 567.56Z" fill="#103B5D"/>
<path d="M339.443 422.95L332.493 425.19L332.653 423.27L339.223 421.12L339.443 422.95Z" fill="#103B5D"/>
<path d="M313.093 431.45L306.913 433.45L307.053 431.63L312.903 429.72L313.093 431.45Z" fill="#103B5D"/>
<path d="M285.443 440.37L280.023 442.12L280.143 440.42L285.283 438.75L285.443 440.37Z" fill="#103B5D"/>
<path d="M259.113 448.87L254.363 450.4L254.473 448.81L258.973 447.34L259.113 448.87Z" fill="#103B5D"/>
<path d="M151.793 482.27L149.413 483.05L149.473 481.95L151.733 481.2L151.793 482.27Z" fill="#103B5D"/>
<path d="M134.033 488.08L131.943 488.76L132.003 487.73L133.973 487.08L134.033 488.08Z" fill="#103B5D"/>
<path d="M221.083 459.6L217.363 460.82L217.453 459.44L220.973 458.27L221.083 459.6Z" fill="#103B5D"/>
<path d="M582.653 332.85L594.743 328.95L594.363 325.57L582.923 329.31L582.653 332.85Z" fill="#103B5D"/>
<path d="M479.893 366.01L489.193 363.01L488.913 360.02L480.113 362.9L479.893 366.01Z" fill="#103B5D"/>
<path d="M367.653 648.1L375.803 649.13L375.673 645.45L367.953 644.53L367.653 648.1Z" fill="#103B5D"/>
<path d="M345.123 643.01L352.203 643.91L352.083 640.48L345.373 639.68L345.123 643.01Z" fill="#103B5D"/>
<path d="M307.863 640.56L314.093 641.35L313.983 638.13L308.083 637.44L307.863 640.56Z" fill="#103B5D"/>
<path d="M284.093 649.59L288.113 650.1L288.043 647.91L284.223 647.46L284.093 649.59Z" fill="#103B5D"/>
<path d="M270.063 638.06L274.143 638.68L274.073 636.22L270.203 635.65L270.063 638.06Z" fill="#103B5D"/>
<path d="M227.153 630.88L230.893 631.45L230.823 629.09L227.273 628.57L227.153 630.88Z" fill="#103B5D"/>
<path d="M137.733 617.06L141.163 617.38L141.083 615.42L137.823 615.13L137.733 617.06Z" fill="#103B5D"/>
<path d="M215.303 629.48L218.433 629.94L218.373 627.71L215.403 627.3L215.303 629.48Z" fill="#103B5D"/>
<path d="M500.613 264.67L491.123 268.94L491.423 265.99L500.403 261.9L500.613 264.67Z" fill="#103B5D"/>
<path d="M380.813 310.65L372.293 314.61L372.583 311.35L380.643 307.55L380.813 310.65Z" fill="#103B5D"/>
<path d="M316.303 340.72L309.783 343.75L310.023 340.91L316.193 337.99L316.303 340.72Z" fill="#103B5D"/>
<path d="M291.983 352.05L286.153 354.77L286.373 352.08L291.893 349.47L291.983 352.05Z" fill="#103B5D"/>
<path d="M264.503 373.05L260.633 374.78L260.783 372.87L264.453 371.22L264.503 373.05Z" fill="#103B5D"/>
<path d="M249.583 379.7L245.993 381.3L246.133 379.46L249.533 377.93L249.583 379.7Z" fill="#103B5D"/>
<path d="M233.263 386.97L229.973 388.44L230.103 386.68L233.223 385.28L233.263 386.97Z" fill="#103B5D"/>
<path d="M217.043 394.2L214.033 395.53L214.163 393.86L217.003 392.58L217.043 394.2Z" fill="#103B5D"/>
<path d="M143.153 425.71L141.353 426.52L141.433 425.25L143.143 424.48L143.153 425.71Z" fill="#103B5D"/>
<path d="M129.533 431.85L127.903 432.58L127.983 431.37L129.533 430.67V431.85Z" fill="#103B5D"/>
<path d="M192.403 403.52L189.903 404.65L190.013 403.15L192.383 402.07L192.403 403.52Z" fill="#103B5D"/>
<path d="M598.053 695.89L589.403 694.8L589.723 691.02L597.913 691.99L598.053 695.89Z" fill="#103B5D"/>
<path d="M573.013 690.36L565.503 689.41L565.773 685.88L572.883 686.72L573.013 690.36Z" fill="#103B5D"/>
<path d="M532.583 687.64L525.973 686.81L526.203 683.49L532.463 684.23L532.583 687.64Z" fill="#103B5D"/>
<path d="M505.023 696.92L500.753 696.39L500.903 694.12L504.943 694.6L505.023 696.92Z" fill="#103B5D"/>
<path d="M490.203 684.81L485.873 684.15L486.023 681.6L490.123 682.2L490.203 684.81Z" fill="#103B5D"/>
<path d="M346.013 326.87L338.603 330.32L338.873 327.28L345.883 323.97L346.013 326.87Z" fill="#103B5D"/>
<path d="M530.073 349.82L540.683 346.4L540.353 343.21L530.313 346.5L530.073 349.82Z" fill="#103B5D"/>
<path d="M425.733 385.15L439.173 380.57L438.743 377.67L426.013 382.07L425.733 385.15Z" fill="#103B5D"/>
<path d="M176.843 531.5L176.853 537.44L182.203 536.6L182.193 530.5L176.843 531.5Z" fill="#EBF3FA"/>
<path d="M152.423 541.32V535.72L156.733 534.89L156.743 540.63L152.423 541.32Z" fill="#EBF3FA"/>
<path d="M474.873 579.6L474.753 567.57L459.093 567.77L459.122 570.588L450.653 570.83L450.763 582.75L472.803 582.59L472.782 579.591L474.873 579.6Z" fill="#EBF3FA"/>
<path d="M126.813 546.64V549.39L128.613 549.13V546.35L126.813 546.64Z" fill="#EBF3FA"/>
<path d="M120.963 550.22V547.58L122.613 547.32V549.98L120.963 550.22Z" fill="#EBF3FA"/>
<path d="M316.343 583.41L316.163 574.48L305.643 574.83L305.813 583.52L316.343 583.41Z" fill="#EBF3FA"/>
<path d="M382.693 578.24L382.813 585.72L372.493 585.68L372.373 578.35L382.693 578.24Z" fill="#EBF3FA"/>
<path d="M430.493 587.57L430.413 580.21L418.753 580.34L418.843 587.53L430.493 587.57Z" fill="#EBF3FA"/>
<path d="M140.573 576.45L140.803 583.02L136.293 583.04L136.063 576.56L140.573 576.45Z" fill="#EBF3FA"/>
<path d="M529.943 581.03L529.633 564.97L510.703 565.61L511.013 581.23L529.943 581.03Z" fill="#EBF3FA"/>
<path d="M649.293 571.73L649.513 585.2L630.943 585.13L630.733 571.93L649.293 571.73Z" fill="#EBF3FA"/>
<path d="M613.823 229.32L613.363 259.08L622.793 255.42L623.253 225.26L613.823 229.32Z" fill="white"/>
<path d="M595.093 256.87L595.343 237.87C595.35 237.566 595.336 237.262 595.303 236.96L566.803 249.21C566.753 249.5 566.753 249.77 566.753 250.04L566.493 268.39L595.093 256.87Z" fill="white"/>
<path d="M655.903 327.32L656.243 348.75L624.463 357.62L624.153 336.83V335.89L655.803 326.32L655.812 326.387L655.817 326.426L655.831 326.533L655.832 326.534C655.867 326.793 655.903 327.063 655.903 327.32Z" fill="white"/>
<path d="M449.324 409.93L448.903 392.24C448.891 391.952 448.857 391.664 448.803 391.38L417.444 401.3C417.428 401.553 417.428 401.807 417.444 402.06L417.803 418.87L449.324 409.93Z" fill="white"/>
<path d="M471.313 486.34L471.663 516.47L458.163 517.94L457.833 488.65L471.313 486.34Z" fill="white"/>
<path d="M393.043 516.36L392.903 500.55C392.887 500.287 392.89 500.023 392.913 499.76L422.813 494.64C422.849 494.889 422.869 495.139 422.873 495.39L423.043 512.46L393.043 516.36Z" fill="white"/>
<path d="M368.733 503.74L368.923 527.16L360.723 528.05L360.553 505.14L368.733 503.74Z" fill="white"/>
<path d="M316.333 526.33L316.253 513.5C316.253 513.32 316.263 513.08 316.313 512.86L335.683 509.55V510.15L335.783 523.8L316.333 526.33Z" fill="white"/>
<path d="M137.013 538.24V543.47L140.773 542.87V537.51L137.013 538.24Z" fill="white"/>
<path d="M153.053 556.41L147.613 556.77V550.02L153.053 549.42V556.41Z" fill="white"/>
<path d="M173.403 555.52L165.593 556.04L165.573 547.97L173.383 547.11L173.403 555.52Z" fill="white"/>
<path d="M299.483 512.98L288.623 514.9L288.613 512.3L299.463 510.27L299.483 512.98Z" fill="white"/>
<path d="M198.683 529.24L198.733 545.18L194.893 545.51L194.843 529.76L198.683 529.24Z" fill="white"/>
<path d="M212.213 538.67V530.41C212.213 530.32 212.213 530.14 212.243 530.02L220.113 528.67V537.67L212.213 538.67Z" fill="white"/>
<path d="M232.043 526.65L232.083 541.06L228.963 541.4L228.913 527.19L232.043 526.65Z" fill="white"/>
<path d="M315.753 609.36L331.883 610.3L331.643 597.85L315.513 597.42L315.753 609.36Z" fill="white"/>
<path d="M382.593 613.25L405.093 614.56L404.883 599.8L382.373 599.2L382.593 613.25Z" fill="white"/>
<path d="M349.453 583.05L349.283 573.32L336.803 573.74L336.973 583.18L349.453 583.05Z" fill="white"/>
<path d="M262.223 584.38L262.073 577.43L255.013 577.63L255.173 584.43L262.223 584.38Z" fill="white"/>
<path d="M250.293 602.34L261.473 602.99L261.233 592.65L250.063 592.36L250.293 602.34Z" fill="white"/>
<path d="M281.163 583.52L281.013 576.02L272.803 576.25L272.963 583.58L281.163 583.52Z" fill="white"/>
<path d="M174.283 589.12L173.963 580.32C173.967 580.173 173.96 580.026 173.943 579.88L166.103 579.99V580.38L166.413 589.04L174.283 589.12Z" fill="white"/>
<path d="M152.283 582.96L152.753 593.28L155.163 593.32L154.693 582.93L152.283 582.96Z" fill="white"/>
<path d="M186.243 581.82L190.503 581.73L190.453 579.99L186.203 580.11L186.243 581.82Z" fill="white"/>
<path d="M216.473 582.35L216.803 595.08L219.133 595.14L218.813 582.31L216.473 582.35Z" fill="white"/>
<path d="M244.673 588.13L244.263 576.85C244.253 576.661 244.243 576.47 244.173 576.29L234.173 576.43V576.92L234.583 588.04L244.673 588.13Z" fill="white"/>
<path d="M589.503 580.39L589.193 562.88L566.753 563.64L567.063 580.63L589.503 580.39Z" fill="white"/>
<path d="M398.333 408.15L398.663 424.29L372.343 431.75L372.063 416.34C372.049 416.107 372.049 415.873 372.063 415.64L398.243 407.36C398.294 407.621 398.324 407.885 398.333 408.15Z" fill="white"/>
<path d="M344.353 430.63L344.533 441.63L328.273 446.17L328.123 435.53C328.113 435.374 328.113 435.217 328.123 435.06L344.303 430.14C344.306 430.161 344.31 430.182 344.313 430.202C344.317 430.232 344.321 430.261 344.324 430.29L344.329 430.329L344.333 430.369C344.342 430.456 344.349 430.543 344.353 430.63Z" fill="white"/>
<path d="M317.443 438.78L317.593 449.11L303.133 453.11L303.003 443.06C303.001 443.025 302.999 442.99 302.998 442.954C302.996 442.913 302.996 442.872 302.996 442.831C302.996 442.757 302.998 442.684 303.003 442.61L317.403 438.23C317.428 438.413 317.442 438.596 317.443 438.78Z" fill="white"/>
<path d="M289.253 447.32L289.373 456.99L276.673 460.54L276.573 451.11V450.69L289.213 446.84C289.225 446.918 289.234 446.996 289.24 447.074C289.247 447.156 289.252 447.238 289.253 447.32Z" fill="white"/>
<path d="M262.443 455.44L262.533 464.49L251.413 467.6L251.323 458.76V458.36L262.393 454.99C262.413 455.063 262.423 455.143 262.429 455.22C262.431 455.245 262.433 455.269 262.434 455.293L262.44 455.387L262.441 455.409L262.443 455.44Z" fill="white"/>
<path d="M153.423 487.03V493.32L147.863 494.9V488.44L153.413 486.73C153.418 486.774 153.421 486.82 153.422 486.869C153.423 486.92 153.423 486.974 153.423 487.03Z" fill="white"/>
<path d="M141.193 500.08L141.173 490.5L142.993 489.94L143.013 499.59L141.193 500.08Z" fill="white"/>
<path d="M135.453 492.56V498.44L130.583 499.83V493.77L135.443 492.27C135.443 492.304 135.445 492.336 135.446 492.368L135.451 492.464C135.452 492.495 135.453 492.527 135.453 492.56Z" fill="white"/>
<path d="M124.273 504.7V495.73L125.873 495.23V504.26L124.273 504.7Z" fill="white"/>
<path d="M172.903 479.68L167.833 481.26V479.68L172.893 478.07L172.903 479.68Z" fill="white"/>
<path d="M234.153 474.72L234.053 461.79L237.383 460.76L237.493 473.81L234.153 474.72Z" fill="white"/>
<path d="M223.673 465.39L223.733 473.25L215.013 475.74V467.69L223.693 465.01C223.669 465.106 223.671 465.209 223.672 465.312L223.673 465.339L223.673 465.368L223.673 465.39Z" fill="white"/>
<path d="M205.383 489.51L205.342 482.577L206.723 482.2L206.653 470.26L203.863 471.12L203.925 481.565L195.333 483.91L195.373 491.98L205.383 489.51Z" fill="white"/>
<path d="M276.373 469.81L263.753 472.95L263.673 464.5L276.273 461.08L276.373 469.81Z" fill="white"/>
<path d="M149.003 504.96L156.183 503.19L156.163 496.15L148.983 498.1L149.003 504.96Z" fill="white"/>
<path d="M125.523 510.76L131.513 509.28L131.503 502.86L125.523 504.49V510.76Z" fill="white"/>
<path d="M603.263 343.32L603.553 363.53L575.263 371.43L575.013 351.78C574.993 351.484 574.993 351.187 575.013 350.89L603.203 342.32C603.233 342.61 603.263 342.94 603.263 343.32Z" fill="white"/>
<path d="M548.133 359.97L548.363 378.9L523.533 385.83L523.333 367.39C523.319 367.117 523.319 366.843 523.333 366.57L548.063 359.05C548.113 359.32 548.133 359.66 548.133 359.97Z" fill="white"/>
<path d="M495.693 375.85L495.873 393.56L474.133 399.63L473.963 382.35V381.57L495.613 374.99C495.655 375.275 495.682 375.562 495.693 375.85Z" fill="white"/>
<path d="M431.193 722L406.193 715.63L406.813 696.26L431.883 701.78L431.193 722Z" fill="white"/>
<path d="M380.973 667.59L380.453 688.59L361.523 684.71L361.993 664.4V663.5L380.923 666.5C380.983 666.89 380.983 667.24 380.973 667.59Z" fill="white"/>
<path d="M356.714 661.06L356.283 680.63L339.833 677.26L340.214 658.26C340.199 657.98 340.199 657.7 340.214 657.42L356.663 660.06C356.713 660.41 356.714 660.73 356.714 661.06Z" fill="white"/>
<path d="M318.063 657.39L317.723 675.74L303.243 672.74L303.553 654.92V654.13L318.033 656.45C318.073 656.78 318.073 657.08 318.063 657.39Z" fill="white"/>
<path d="M290.693 661.03L290.483 673.55L281.123 671.63L281.313 659.45V658.91L290.663 660.4C290.693 660.61 290.693 660.82 290.693 661.03Z" fill="white"/>
<path d="M276.773 650.95L276.593 664.95L267.083 662.95L267.243 649.14V648.53L276.733 650.21C276.773 650.48 276.773 650.71 276.773 650.95Z" fill="white"/>
<path d="M154.353 646.69L154.413 630.37L157.063 630.66L157.003 647.07L154.353 646.69Z" fill="white"/>
<path d="M143.463 627.04V638.24L135.463 637.18V625.61L143.463 626.49C143.46 626.543 143.459 626.598 143.459 626.652C143.459 626.721 143.46 626.789 143.461 626.858V626.86C143.462 626.92 143.463 626.981 143.463 627.04Z" fill="white"/>
<path d="M173.733 634.04L170.213 633.46L170.223 631.42L173.743 631.98L173.733 634.04Z" fill="white"/>
<path d="M220.483 640.94L220.383 653.61L213.083 652.13L213.163 639.62V639.07L220.453 640.31C220.479 640.488 220.483 640.658 220.483 640.84L220.483 640.938V640.94Z" fill="white"/>
<path d="M215.863 667.42L208.443 665.54L208.543 655.53L215.963 657.19L215.863 667.42Z" fill="white"/>
<path d="M203.573 656.84L203.693 637.46L206.093 637.86L205.963 657.36L203.573 656.84Z" fill="white"/>
<path d="M134.013 650.34L129.553 649.2L129.563 640.86L134.033 641.84L134.013 650.34Z" fill="white"/>
<path d="M151.923 654.9L146.793 653.59L146.813 644.66L151.953 645.79L151.923 654.9Z" fill="white"/>
<path d="M188.513 662.63L181.953 660.95L182.013 650.87L188.573 652.32L188.513 662.63Z" fill="white"/>
<path d="M245.143 668.51L245.023 648.34L249.823 648.97L249.923 669.38L245.143 668.51Z" fill="white"/>
<path d="M533.893 263.36L533.453 291.13L542.263 287.71L542.693 259.57L533.893 263.36Z" fill="white"/>
<path d="M506.623 292.49L506.903 275.79C506.899 275.519 506.879 275.249 506.843 274.98L484.753 284.47V285.21L484.463 301.41L506.623 292.49Z" fill="white"/>
<path d="M457.123 296.37L456.663 320.96L463.533 318.29L463.993 293.41L457.123 296.37Z" fill="white"/>
<path d="M571.653 297.07L609.033 283.65L609.303 262.14L571.933 276.63L571.653 297.07Z" fill="white"/>
<path d="M461.703 336.52L488.083 327.06L488.393 309.02L462.023 319.25L461.703 336.52Z" fill="white"/>
<path d="M385.933 342.14L386.333 323.55C386.329 323.249 386.308 322.949 386.273 322.65L366.453 331.33V332.14L366.053 350.14L385.933 342.14Z" fill="white"/>
<path d="M350.363 356.39L350.763 339.07C350.763 338.78 350.763 338.5 350.714 338.23L333.473 345.78V346.54L333.083 363.32L350.363 356.39Z" fill="white"/>
<path d="M320.053 368.56L320.443 352.32C320.443 352.02 320.443 351.76 320.403 351.53L305.233 358.17V358.88L304.843 374.65L320.053 368.56Z" fill="white"/>
<path d="M295.263 378.46L295.653 363.11C295.653 362.85 295.653 362.6 295.613 362.36L282.043 368.3V368.97L281.653 383.91L295.263 378.46Z" fill="white"/>
<path d="M266.613 391.84L266.903 381L266.893 380.47L257.893 384.29V384.77L257.613 395.42L266.613 391.84Z" fill="white"/>
<path d="M251.503 397.82L251.783 387.39C251.787 387.22 251.78 387.05 251.763 386.88L243.413 390.42V390.88L243.133 401.14L251.503 397.82Z" fill="white"/>
<path d="M234.993 404.38L235.263 394.38L235.243 393.87L227.593 397.11V397.55L227.313 407.38L234.993 404.38Z" fill="white"/>
<path d="M218.633 410.85L218.903 401.32V400.81L211.903 403.81V404.23L211.633 413.63L218.633 410.85Z" fill="white"/>
<path d="M217.653 423.48L225.453 420.67L225.703 411.57L217.903 414.58L217.653 423.48Z" fill="white"/>
<path d="M143.953 438.51L144.173 431.26C144.183 431.14 144.183 431.03 144.163 430.91L139.973 432.71V433.03L139.753 440.2L143.953 438.51Z" fill="white"/>
<path d="M134.883 434.91L134.533 446.08L135.923 445.54L136.283 434.31L134.883 434.91Z" fill="white"/>
<path d="M130.233 444.03L130.443 437.15C130.453 437.03 130.453 436.92 130.443 436.81L126.653 438.44V438.74L126.433 445.56L130.233 444.03Z" fill="white"/>
<path d="M121.703 440.57L121.363 451.19L122.623 450.71L122.963 440.03L121.703 440.57Z" fill="white"/>
<path d="M154.923 425.17L158.623 423.57L158.673 421.74L154.973 423.37L154.923 425.17Z" fill="white"/>
<path d="M200.763 406.58L200.363 420.51L202.543 419.66L202.943 405.65L200.763 406.58Z" fill="white"/>
<path d="M193.653 418.5L193.903 409.95L193.883 409.53L188.063 412.04V412.42L187.813 420.85L193.653 418.5Z" fill="white"/>
<path d="M180.483 415.3L180.103 428.38L182.013 427.64L182.403 414.48L180.483 415.3Z" fill="white"/>
<path d="M122.103 458.38L126.793 456.7L127.033 449.15L122.343 450.97L122.103 458.38Z" fill="white"/>
<path d="M140.213 451.88L145.603 449.95L145.853 441.85L140.463 443.95L140.213 451.88Z" fill="white"/>
<path d="M175.293 439.3L182.183 436.83L182.453 427.66L175.563 430.34L175.293 439.3Z" fill="white"/>
<path d="M674.293 761.05L675.203 731.6L682.173 732.78L681.223 762.57L674.293 761.05Z" fill="white"/>
<path d="M603.533 715.48L602.983 737.77L582.903 733.65L583.393 712.11V711.16L603.473 714.37C603.543 714.74 603.543 715.11 603.533 715.48Z" fill="white"/>
<path d="M577.793 708.55L577.343 729.32L559.903 725.74L560.303 705.62V704.73L577.753 707.52C577.803 707.86 577.803 708.21 577.793 708.55Z" fill="white"/>
<path d="M536.803 704.66L536.433 724.12L521.073 720.97L521.403 702.07V701.23L536.763 703.69C536.803 704.01 536.803 704.32 536.803 704.66Z" fill="white"/>
<path d="M507.753 708.52L507.533 721.8L497.613 719.8L497.813 706.87V706.3L507.733 707.88C507.753 708.07 507.763 708.32 507.753 708.52Z" fill="white"/>
<path d="M492.993 697.83L492.803 712.72L482.713 710.6L482.893 695.95V695.3L492.963 697.09C492.975 697.18 492.982 697.275 492.987 697.371C492.993 697.521 492.993 697.677 492.993 697.828V697.83Z" fill="white"/>
<path d="M587.473 462.93L640.333 453.57L640.223 447.47L587.393 457.32L587.473 462.93Z" fill="white"/>
<path d="M257.244 519.74L266.044 518.18L266.034 515.75L257.234 517.38L257.244 519.74Z" fill="white"/>
<path d="M199.673 579.32L204.383 579.22L204.333 577.39L199.623 577.53L199.673 579.32Z" fill="white"/>
<path d="M447.673 710.54L448.533 682.79L455.103 683.9L454.213 711.98L447.673 710.54Z" fill="white"/>
<path d="M395.823 659.35L412.433 662.09L412.573 656.89L395.953 654.27L395.823 659.35Z" fill="white"/>
<path d="M233.303 643.17L233.153 656.61L224.443 654.77L224.583 641.55V640.97L233.283 642.5C233.303 642.73 233.303 642.95 233.303 643.17Z" fill="white"/>
<path d="M185.403 636.46L189.203 637.09L189.213 634.95L185.413 634.35L185.403 636.46Z" fill="white"/>
<path d="M636.913 709.64L619.283 706.74L619.423 701.35L637.063 704.12L636.913 709.64Z" fill="white"/>
</g>
<defs>
<linearGradient id="paint0_linear" x1="-3.9883e-05" y1="457" x2="750" y2="457" gradientUnits="userSpaceOnUse">
<stop stop-color="white" stop-opacity="0"/>
<stop offset="0.692708" stop-color="white" stop-opacity="0.2"/>
<stop offset="1" stop-color="white" stop-opacity="0"/>
</linearGradient>
</defs>
</svg>
