<svg xmlns="http://www.w3.org/2000/svg" xmlns:xlink="http://www.w3.org/1999/xlink" width="388" height="352" fill="none" xmlns:v="https://vecta.io/nano"><style><![CDATA[.B{fill:#103b5d}.C{fill:#ffccdf}.D{fill:#fff}.E{fill:#159fbb}.F{fill:#e67d22}.G{fill:#9daab3}.H{fill:#7591a6}.I{fill:#0e3457}.J{fill:#dfedf6}.K{stroke:#103b5d}.L{stroke-width:.5}.M{stroke-miterlimit:10}.N{fill:#feffff}]]></style><path d="M318.9 292.9V51.4c0-5.2-4.3-9.4-9.5-9.4H68.8c-5.2 0-9.5 4.2-9.5 9.5v241.3l259.6.1z" class="E"/><path d="M72.1 55.6H306V292.5H72.1V55.6Z" class="D K L M"/><path d="M318.9 293H59.1V51.4c0-5.4 4.4-9.7 9.8-9.7h240.6c5.4 0 9.7 4.4 9.8 9.7v241.4h-.2v.2h-.2zm-259.4-.5h259.1V51.4c0-5.1-4.1-9.2-9.2-9.2H68.8c-5.1 0-9.2 4.1-9.2 9.2l-.1 241.1z" class="B"/><path d="M281.3 293.3c.2-19.7-27.9-61.1-65.8-103.5C162.9 131.2 192 54.6 78.9 62.2v231l202.4.1z" fill="#d3eaf2"/><path d="M.9 292.8h386.7v.7H.9v-.7z" class="G"/><path d="M243 30v18.3H136.1V30h35.2c-1.3-2.7-2-5.6-2-8.6 0-11.6 9.9-21.1 22.1-21.1s22.1 9.5 22.1 21.1c0 3-.7 5.9-2 8.6H243zm-.5 17.8V30.5h-31.7l.2-.3c1.4-2.7 2.1-5.7 2.1-8.8C213.1 10 203.4.8 191.5.8s-21.7 9.3-21.7 20.6c0 3 .7 6.1 2.1 8.8l.2.3h-35.4v17.3h105.8z" class="B"/><path d="M242.4 30.5v17.3H136.6V30.5H172l-.2-.3c-1.4-2.7-2.1-5.7-2.1-8.8C169.7 10 179.4.8 191.3.8S213 10.1 213 21.4c0 3-.7 6.1-2.1 8.8l-.2.3h31.7zm-47.5 0c3.9-1.3 6.6-5 6.7-9.1a10.27 10.27 0 0 0-10.7-9.8c-5.3.2-9.6 4.5-9.8 9.8.1 4.1 2.8 7.8 6.7 9.1h7.1z" class="G"/><path d="M201.6 21.4c-.1 4.1-2.7 7.8-6.7 9.1h-7.2c-3.9-1.4-6.6-5-6.7-9.1a10.27 10.27 0 0 1 10.7-9.8c5.4.2 9.6 4.5 9.9 9.8zm-6.8 8.6c3.7-1.3 6.2-4.7 6.3-8.6a9.68 9.68 0 0 0-10.2-9.3c-5 .2-9.1 4.3-9.3 9.3.1 3.9 2.6 7.3 6.3 8.6h6.9 0z" class="B"/><path d="M284.4 138H87.2v-14.2h197.2V138zm-196.7-.5h196.2v-13.2H87.7v13.2zm181.5-36.8H86.6v-14h182.7v14h-.1zm-182.1-.5h181.7v-13H87.1v13zM265 208.9H106.6v-14.2H265v14.2zm-158-.5h157.5v-13.2H107.1l-.1 13.2zm163.8 35.3h-170v-14.2h170v14.2zm-169.6-.5h169V230h-169v13.2h0zm169.6 30h-170V259h170v14.2zm-169.6-.5h169v-13.2h-169v13.2h0zM270 173.4H99.8v-14H270v14zm-169.7-.5h169.2V160H100.2l.1 12.9z" class="G"/><path d="M237.2 158c-32.9-26.7-41.9 11.1-44.3 10.3-1 0-12.9-37.8-43.7-10.3-40.1 35.8 43.7 96.2 43.7 96.2s85.4-62.8 44.3-96.2z" class="E"/><g class="D"><path d="M226.3 197.1c-1.8 0-3.3 1.3-3.6 3.1 0-.1-.1-.2-.2-.2h-11.9l-7.6-22.7c0-.1-.1-.2-.2-.2s-.2.1-.2.2l-12.9 40.9-11.2-32.3c0-.1-.1-.2-.2-.2s-.2 0-.2.1l-8.2 16.6H144c-.1 0-.2.1-.2.2s.1.2.2.2h25.8c.1 0 .2-.1.2-.1l8-16.2 11.3 32.5c0 .1.1.2.2.2s.2-.1.2-.2l12.9-40.9 7.4 22.2c0 .1.1.2.2.2h12.1c.1 0 .1 0 .2-.1v.3c0 2 1.6 3.7 3.6 3.7s3.7-1.6 3.7-3.6-1.4-3.7-3.5-3.7zm0 6.8c-1.7 0-3.2-1.4-3.2-3.1s1.4-3.2 3.1-3.2 3.2 1.4 3.2 3.1-1.4 3.2-3.1 3.2zm69.8 51.8l3.6-1.7-1.3-56.8h-2.7l.4 58.5z"/><use xlink:href="#B"/></g><path d="M27.1 223.5c-5.3 9.8 14.7 14.6 5.4 24.8-3.3-.3-5.7-.6-9.4-4.6-4.6-4.9-6.8 3.2-3.2 7.8 6.2 8.1-8.4 14.1 9 18.3 2.8 2.4-.2 5.7.2 8.6.5 1.4 1.3 2.7 2.3 3.7-1.5-.8-3.3-1.2-5-1.2-5.6-.1-10.3 4.3-10.4 10 0 .6.1 1.2.2 1.8h34V276c.5-.8 1-1.7 1.3-2.6 4.1-1 7.7-4.1 9.2-10.1 2.9-9.7-10.1-13.6-11.2-22.5.5-10.7-11.9-27.3-22.4-17.3zm6.1 59.8l.2.1-.2-.1zm331.8-6.1c-3.3 0-6.5 1.1-9 3.3-1.8-2.1-4.3-3.6-7-4.1a5.2 5.2 0 0 1 1.3-3.8c19.5-7.2 3.3-13.4 10.4-24.5 4.1-6.3 1.8-16.5-3.4-9.7-4.5 5.9-7.3 6.2-11.4 7.1-.3-.6-.5-1.2-.9-1.7-11.5-11.8 12.3-18.2 5.1-28.1-9.4-13-24.3 7.1-23.8 19-1.1 9.8-14.9 14.1-11.8 24.9 1.5 6.2 4.9 9.6 8.9 10.9v22h54.8c.1-.8.2-1.6.2-2.4.1-7.1-5.9-12.9-13.4-12.9z" class="G"/><path d="M95.3 318.4c-4.9 0-9.9.2-14.8.5l-.6 16.5.2-.1c.9-.5.3-.2 0 0l-.2.1c-1.5.9-2.9-.6-2.9-.6l.2-15.7c-12.3 1-22.5 3-28.7 5.6 0 .6-.2 1.1-.6 1.6-.6.5-1.6.1-2.2-.2-2.3 1.3-3.5 2.8-3.5 4.3 0 6.6 23.7 12 53 12s53-5.4 53-12-23.6-12-52.9-12zm185.2 0c4.9 0 9.9.2 14.8.5l.6 16.5-.2-.1c-.9-.5-.3-.2 0 0l.2.1c1.5.9 2.9-.6 2.9-.6l-.2-15.7c12.3 1 22.5 3 28.6 5.6 0 .6.2 1.1.6 1.6.6.5 1.6.1 2.2-.2 2.3 1.3 3.5 2.8 3.5 4.3 0 6.6-23.7 12-53 12s-53-5.4-53-12 23.7-12 53-12z" fill="#d6dee5"/><path d="M245.5 284.1l-.1-5.2s32.8-9.3 34.8-15.7c.4-1.1 1-40.5 1-40.5l-.8-28.6s-.6-6.5 12.1-5.9c11 .6 17.2 1.4 17.2 1.4l17.6 2.2s9.3-.3 9.6 11.4-2.3 57.8-2.3 57.8l-.8 14.1c-.4 6.4-1.5 11.2-6.6 14.3l1.1 11-.1.4-3.5-1-1.2-8.7c-6.4 2.5-17.7 5.8-25.5 8l.4 10.2-3.7-1.5-.4-7.6-4.7 1.3-39.9-15.5-3.9 33.8c-.5.6-1.2.9-2 .8-.8 0-1.4-.7-1.4-1.4v-.2l3.4-34.7-.3-.2z" class="G"/><path d="M302.3 191l23.7 3.3s5.7.2 6.2 7.9-1.6 65.9-1.6 65.9 1.7 15.7-10.4 19.4-32.2 8.2-32.2 8.2l-42.3-16.6 28.4-10.4c1.8-1 3.5-2.2 5-3.5 1.6-1.7 1.9-3.2 2-9.7.3-13.4-.9-59.1-.9-59.1s-.9-7.9 6.1-7.3 16 1.9 16 1.9z" class="D"/><path d="M242 320.1l.1.1c1.2.6 2.6.6 3.7-.2l.1-.1v-.1l4-33.4 39.8 15.4 4.6-1.4 1.1 35.5h.2c.4.1.8.2 1.2.2.9 0 1.8-.4 2.4-1l.1-.1-.8-35.9 24.9-7.6h-.1l4.2 35.1h.2c.3.1.6.1.9.1 1 0 2-.4 2.7-1.2l.1-.1v-.1l-3.9-35.9.5-.4c5.7-3.8 5.9-8.6 6-12.7 0-.6 0-1.3.1-1.9 1.4-18.2 3.3-64.9 2.9-74.3-.3-8.4-9.4-8.8-9.4-8.8l-33.5-3.9-9.8 1.2c-1.3.1-2.5.8-3.1 1.9-1.3 2.2-1.1 5.9-.9 6.7.4 8.1 2.3 62.7-.8 67.2s-32.9 14.1-33.2 14.2l-.4.1v-.1h-.5v5.8l.2.1h.1l-3.7 35.6zm43.2-130.7l39.7 4.7h.1c2.8.3 7 .7 7.2 8.1s-1.3 54.3-2 70.6c-.2 4-1.5 11.1-7.6 14-3.3 1.5-5.2 1.9-10.4 3.1-4.5 1-11.2 2.5-23.2 5.7L247 279c4.6-1.5 29.8-9.8 32.8-14.2 3.5-5 .9-66.8.8-67.4v-.3c-.1-1-.3-5.1 1.5-7 .6-.6 1.4-.9 2.3-.9.3 0 .6.1.8.2zm38.5 102a13.04 13.04 0 0 0 3.1-1.6l3.8 35.5c-.7.7-1.8 1.1-2.8.9l-4.1-34.8zm-28.8 9.1l2.9-.7 1 35s-1.5 1.3-2.9.6l-1-34.9zm-5.7-4.5c11.9-3.1 18.6-4.6 23-5.6 5.2-1.2 7.2-1.6 10.5-3.1 6.4-3 7.7-10.3 7.9-14.4l2-70.6c-.2-7.8-4.9-8.3-7.6-8.6h0c-8.8-.9-33.4-3.9-38.7-4.6l7.5-.9 33.4 3.9c.4 0 8.7.4 9 8.4.4 9.4-1.5 56.1-2.9 74.3 0 .6-.1 1.2-.1 1.9-.2 5.1-.4 11.5-12.7 15.4l-.8.3-30.1 9v.1l-.4-5.5zM246 284.4l-.3-.1v-5.1l43.1 16.9h-.1l.4 5.2-43.1-16.9zm-3.5 35.5l3.4-35 3.4 1.3-3.9 33.5c-.8.5-1.9.6-2.9.2z" class="H"/><path d="M285.1 197.3s-2.6 9.8-1.3 24.1 5.2 28.6-7 39.6c0 0 16.1 9 52.8 2.6 0 0-2.6-10.7-1.8-17.3s-2.5-42.4-14.2-49.4l-2.3-2.6c-7.3 2.8-15.5 2.8-22.8 0l-3.4 3z" class="F"/><path d="M296.1 255.7l3.6-1.7-1.3-56.8h-2.7l.4 58.5z" class="D"/><path d="M295.9 256.1v-.4l-.4-58.8h3.2v.2l1.3 57-4.1 2zm.1-58.7l.4 57.9 3.1-1.5-1.3-56.4H296z" class="H"/><path d="M305 266.1c-19.3 0-28.2-4.8-28.4-4.9l-.3-.2.3-.2c10.3-9.3 9-20.8 7.6-32.9l-.7-6.4c-1.3-14.2 1.3-24.1 1.3-24.2v-.1l3.5-3.1.1.1a32.54 32.54 0 0 0 22.6 0l.2-.1 2.4 2.7c12.1 7.3 15 43.6 14.3 49.6-.8 6.5 1.8 17.1 1.8 17.2l.1.3h-.3c-8 1.4-16.3 2.2-24.5 2.2zm-27.8-5.2c2.4 1.2 18.8 8.2 52.1 2.5-.4-1.7-2.5-11.1-1.8-17.1.9-7.4-2.9-42.4-14.1-49.1l-.1-.1-2.2-2.5a32.82 32.82 0 0 1-22.7 0l-3.2 2.9c-1.7 7.9-2.1 15.9-1.3 23.9.2 2.1.4 4.3.7 6.4 1.5 12.2 2.8 23.7-7.4 33.1z" class="B"/><g class="C"><path d="M228 222.5l-2.3-.5s-.1-6.2 1.6-7.2 2.4-.5 2.4-.5l2.7-.7 3.1.7.8 3.3.6 2 .4 2.3-9.3.6z"/><path d="M231.4 214.7l-8.1-2.3c-2-.7-2.8-.5-2.6.4s6 2.9 6.9 3.2"/></g><path d="M227.5 216.2c-.1 0-6.8-2.3-7.1-3.4a.96.96 0 0 1 .2-.9c.4-.4 1.3-.3 2.7.2 2 .7 8 2.3 8.1 2.3l-.1.5c-.1 0-6.1-1.6-8.1-2.3-1.7-.6-2.1-.4-2.2-.3s-.1.1-.1.4c.2.5 4.5 2.3 6.7 3l-.1.5z" class="B"/><path d="M227.8 216.1l-5.2-.8c-2-.3-2.9 0-2.5.8s6.3 2 7.2 2.1" class="C"/><path d="M227.3 218.4c-.1 0-7-1.2-7.4-2.3a.61.61 0 0 1 0-.8c.3-.4 1.2-.6 2.8-.3l5.2.8-.1.5-5.2-.8c-1.9-.3-2.2 0-2.3.1s0 .2 0 .3c.3.6 5.7 1.8 7 2v.5z" class="B"/><path d="M226.8 218.2c-1.3.1-4.3 0-5 0-1.9 0-2.6.5-2.2 1.2s6.2 1 7.1 1" class="C"/><path d="M226.7 220.6c-.1 0-6.8-.2-7.3-1.1-.2-.3-.2-.6 0-.9.3-.5 1.1-.7 2.5-.7h5v.5c-1 .1-3 0-4.1 0h-.9c-1.6 0-2 .4-2 .5s-.1.1 0 .4c.4.5 5.4.9 6.9.9l-.1.4z" class="B"/><path d="M237.8 222.2h-1.3c-3.2 1.5-6.9 1.8-10.3.8-.9-.3-4.9 0-5.4-.7s.3-1.2 2.2-1.3c.7 0 2.4-.3 3.7-.4" class="C"/><path d="M230.2 223.9c-1.4 0-2.7-.2-4-.6-.7-.1-1.3-.2-2-.2-1.9-.1-3.2-.1-3.5-.6-.2-.2-.2-.6-.1-.8.2-.5 1.1-.8 2.5-.9.4 0 1-.1 1.8-.2l1.9-.2v.5l-1.9.2c-.6.1-1.2.2-1.8.2-1.4.1-2 .4-2.1.6 0 0-.1.1.1.3s2.1.4 3.2.4c.7 0 1.4 0 2.1.2 3.3 1 6.9.7 10.1-.8h1.4v.5h-1.2c-2.2.9-4.3 1.4-6.5 1.4z" class="B"/><path d="M235.6 214.4c-1-1-2.1-1.9-3.3-2.6-1.4-.7-3.2-4.4-3.7-4.4s-1.3.3-1.1 1.3c.7 2.3 2.1 4.4 3.9 6" class="C"/><path d="M231.2 214.9c-1.9-1.6-3.3-3.8-4-6.1-.1-.4 0-.9.3-1.3.3-.3.7-.4 1.1-.3.3 0 .6.4 1.4 1.6.6 1.1 1.4 2.1 2.4 2.8a17.04 17.04 0 0 1 3.4 2.6l-.4.4c-1-1-2.1-1.8-3.2-2.6-.9-.4-1.8-1.9-2.6-3-.3-.5-.6-1-1-1.4-.2 0-.5 0-.7.2s-.2.5-.1.8c.7 2.3 2 4.3 3.8 5.9l-.4.4z" class="B"/><path d="M236.4 213.1s-2-2.6-3 2.5-1.1 9.5 2.7 8.7" class="D"/><path d="M235.3 224.6c-.6 0-1.3-.2-1.7-.6-1.2-1.2-1.3-3.9-.4-8.4.4-2.1 1-3.1 1.8-3.3.6-.1 1.2.2 1.6.7l-.4.3s-.5-.7-1.1-.6c-.4.1-1 .6-1.5 3-.9 4.4-.8 7 .3 8 .6.5 1.4.7 2.1.4l.1.5c-.2 0-.5.1-.8 0z" class="H"/><path d="M246 329.5c-.3.2-14.4 6.6-16.7 14.6 0 0 .4 2 6.4.9s16.6-6.6 17-7.1.7-7.3.7-7.3l-2.7-1.9-4.7.8zm30 2.8s-13.1 9.7-14.6 15.4c0 0-.6 2.1 2.7 2.7s20-10.5 20.1-10.8.2-5.2-.4-5.9-7.8-1.4-7.8-1.4z" class="F"/><path d="M283.6 151.3l-3.3.1-.9 4.7 1.6 3c-.8 1-1.3 2.3-1.4 3.6-.2 2.2 2.5 8.1 2.5 8.1l1.2.4 1.8-12-1.5-7.9z" class="E"/><path d="M283.5 171.5l-1.6-.5v-.1c-.1-.2-2.7-6-2.5-8.2.1-1.3.6-2.6 1.4-3.6l-1.6-2.9 1-5h.2l3.3-.1h.2l1.5 8.1-1.9 12.3zm-1.2-.9l.8.3 1.8-11.7-1.5-7.7-2.9.1-.9 4.4 1.6 3.1-.1.1c-.8 1-1.2 2.2-1.3 3.5-.1 2 2.1 7.1 2.5 7.9z" class="B"/><path d="M282.8 213.6c-19.8 12.1-31.3 14.5-46.6 10.7-2.7-.7-1.5-12.2 1-11.9 11.8 1.1 26.8 1.5 47-14.9" class="F"/><path d="M248.5 226.2c-4.2 0-8.3-.6-12.4-1.6-1.9-.5-2-5.3-1.4-8.3.2-1.3.9-4.2 2.5-4.1 12.4 1.2 27.2 1.1 46.8-14.8l.3.4c-19.7 16-34.7 16.1-47.2 15-.7-.1-1.5 1.4-1.9 3.6-.6 3.4-.3 7.4 1 7.8 15.4 3.8 27.1 1.1 46.4-10.7l.3.4c-14 8.5-24 12.3-34.4 12.3z" class="B"/><path d="M249.2 304.9s-.9 23.2-3.3 25.2-7.5 6.2-7.3 7 12.2-4.2 13.4-5.3 5-27.1 5-27.1l-1.1.5" class="C"/><g class="B"><path d="M238.8 337.5h-.2c-.1 0-.2-.1-.3-.3-.3-1.1 6.1-6.2 7.4-7.2 1.9-1.6 2.9-18.6 3.2-25 0-.1.1-.2.2-.2s.2.1.2.2c0 1-.9 23.3-3.4 25.4-3.4 2.6-6.9 5.9-7.2 6.7 1.5 0 11.7-4.2 12.9-5.3.8-.8 3.4-16.5 4.9-26.5l-.7.3c-.1.1-.3 0-.3-.1-.1-.1 0-.3.1-.3l1.5-.7-.1.5c-.6 4.4-3.9 26.2-5.1 27.2-.7.7-11.1 5.3-13.1 5.3z"/><path d="M233 347c-1.2.1-2.4-.3-3.3-1-.7-.8-.8-2-.1-3.6 2-4.7 12.1-10.9 16.3-13.4l.3-.2c.1-.1.3 0 .4.1s0 .3-.1.4l-.3.2c-4.2 2.4-14.2 8.6-16.1 13.1-.6 1.4-.6 2.5 0 3.1 1.3 1.5 5.4.8 7.6.2 4.3-1.4 13.5-5 14.5-7.3s1-5.1 1-7v-.7l-.6-.6c-.1-.1-.1-.2 0-.4.1-.1.2-.1.3-.1.2.2.8.6.8 1v.7c0 1.9 0 4.9-1 7.2-1.5 3.1-14.7 7.5-14.9 7.5-1.6.5-3.2.8-4.8.8z"/></g><path d="M277.3 310s1.1 21.2-1.1 23.4-6.8 6.9-6.6 7.7 12.4-6.1 13.5-7.2 1.3-26 1.3-26v.7" class="C"/><g class="B"><path d="M269.7 341.4c-.2 0-.3-.1-.4-.2-.3-1.2 6.6-7.9 6.7-8 1.7-1.7 1.3-17.3 1-23.2 0-.1.1-.3.2-.3s.2.1.3.2c0 .9 1.1 21.3-1.2 23.6-2.8 2.7-6.2 6.4-6.5 7.3 1.6-.2 12-6.1 13-7.2.8-.8 1.1-16.3 1.2-25.8h.5v.7.1c0 4.7-.3 24.3-1.4 25.4-.7.9-11.7 7.4-13.4 7.4z"/><path d="M264.1 351.6c-.9.1-1.9-.2-2.6-.8-.8-.7-1-1.9-.5-3.5 1.8-6 15.1-15 15.2-15.1s.3 0 .4.1 0 .3-.1.4-13.3 9.1-15 14.9c-.4 1.4-.3 2.5.3 3 1.5 1.4 5.4.3 7.5-.5 3-1.2 12.9-6.1 13.9-8.7.9-2.4.6-5.3.3-7.2l-.1-.5c0-.1-.1-.2-.2-.3s-.1-.2-.1-.4c.1-.1.2-.1.4-.1.2.2.4.4.4.7l.1.5c.2 2 .5 5-.4 7.5-1.1 2.9-11.5 7.9-14.1 8.9-1.7.5-3.5.9-5.4 1.1z"/></g><path d="M284.2 151.6c-.1.7-2.8 1.6-.3 9.7.2.6-.8 2-1 4.5-2 20.9 23.7 20.7 26.2 3.4" class="C"/><path d="M293.3 177.1c-.2 0-.5 0-.7-.1-.1 0-.2-.2-.2-.3s.1-.2.3-.2c.7.1 1.4 0 2-.3.4-.3.7-.8.8-1.4 0-.1.2-.2.3-.2s.2.1.2.3c-.1.7-.4 1.3-1 1.7a2.79 2.79 0 0 1-1.7.5z" class="B"/><path d="M294.3 184.7c-.9 12.5-5.8 9.6-5.8 9.6 7.2 3.5 15.6 3.5 22.8 0-3.8-5.8-1.6-20.2-1.6-20.2" class="C"/><path d="M329.7 264.2s-15.2 4.7-53.7-2.7c0 0-21.9 3.8-28.7 23.1-1.7 5.5-2.4 11.3-2 17.1 1 1.5 2.5 2.6 4.2 3.1l-.5 7.4c2.5.3 5-.2 7.1-1.4l.7-6.4c3.7-.9 6.4-2 9-.6 3 1.7 6.9 5.7 11.4 6l.2 6.9c2.5.1 4.9-.6 6.9-2.1l.1-5.8c2.3-.5 4-1.2 4.4-2 .8-1.1 1.5-2.4 2-3.7.4-1.6.6-3.3.4-4.9l7.2-.6c4-1.3 11.5-2.7 20.2-6.9 5.5-2.7 10.6-5.6 11.8-11.6 1-6.1-.7-14.9-.7-14.9z" class="B"/><path d="M278.4 258.7l-2.1 2.3s16 9.1 53.9 3.4l-.7-3.6c-.2.1-27.8 6.6-51.1-2.1z" class="D"/><g class="B"><path d="M306.8 266.6c-21 0-30.6-5.2-30.7-5.3l-.3-.2 2.5-2.7.1.1c22.9 8.5 49.9 2.4 51.1 2.1l.9 4.1h-.3c-7.7 1.2-15.5 1.8-23.3 1.9zm-30.1-5.6c2.4 1.2 18.8 8.4 53.1 3.2l-.6-3.1c-3.4.8-29.1 5.9-50.7-2.1l-1.8 2z"/><path d="M300.2 267c.3 0 27.6-10.4 25.2-13.1s-27.5 9.6-27.5 9.6l-1.7 2.2-.1 1.9 4.1-.6z"/></g><path d="M296.9 257.6l-5.8-1c-1.1-.7-2.4-1.3-3-.4-.5.6-.4 1.6.3 2.1.1.1.1.1.2.1l3.2 1.5c-1 .7-1.8 1.5-2.6 2.4-.7 1-1.7 2.3-1.7 2.8-.1.7-.1 1.4-.1 2.1.1.9.2 1.4.6 1.2s1-1.6 1-1.6l1-2.3.5-.4-.7 2.2-.4 2.3.3 1.4.7.5.6-.9.5-2.6 1.4-1.7-.8 2.5-.2 2 .3 1.6s.6.6.7.5.7-1.3.7-1.3V269c0-.2.7-2.1.7-2.1l.8-.7-.7 2.7.2 1.5 1.1-.1.6-1.4c.3-.6.5-1.2.6-1.9-.1-.1.2-1.1.2-1.1l4.3-2.8c-.2.2-2.4-2.4-4.5-5.5z" class="C"/><path d="M316.7 210.7s3.3 31.4-.5 34.1c-4.9 3.6-20.6 11.4-20.6 11.4s6.6 1.3 7.1 7.6c0 0 24.1-10.9 26.9-16.6s-.7-36.9-11.1-44.7" class="F"/><g class="B"><path d="M302.5 264.2v-.4c-.5-6-6.8-7.4-6.9-7.4l-.7-.1.7-.3c.2-.1 15.7-7.8 20.6-11.4 3-2.1 1.3-25.2.4-33.9 0-.1.1-.3.2-.3s.2.1.3.2c.1 1.3 3.3 31.6-.6 34.3-4.3 3.2-17.1 9.7-20 11.1 1.7.5 6 2.4 6.6 7.3 2.9-1.3 23.9-11.1 26.5-16.3 2.7-5.5-.8-36.7-11-44.4-.1-.1-.1-.2 0-.4.1-.1.2-.1.3 0 10.5 7.9 14.1 39 11.2 45-2.8 5.7-26 16.3-27 16.7l-.6.3zm-10.9-4.3c.2 0 .3-.1.3-.2s0-.3-.2-.3c-2.6-.6-3.8-1.2-3.9-2-.1-.6.1-1.1.6-1.5a1.23 1.23 0 0 1 1.3.2c1.6.8 3.3 1.2 5 1.2.1 0 .2-.1.3-.2 0-.1-.1-.3-.2-.3 0 0-3.1-.1-4.8-1.2-.5-.5-1.3-.5-1.9-.2-.6.5-.9 1.2-.8 2 .3 1.3 1.9 2 4.3 2.5z"/><path d="M301.3 263.4c-.1-.1-.2-.1-.4-.1l-4.2 2.8v.1c-.5 2.2-1.3 4.6-1.8 4.7-.1 0-.1-.1-.2-.1-1.1-1.4.6-4.4.6-4.4.1-.1 0-.3-.1-.3-.1-.1-.3 0-.3.1v.1c-.1 0-.1 0-.1.1-1 1.4-1.6 3-1.7 4.6-.1.7-.1.9-.3 1h-.2c-.3-.2-.4-1.1-.4-1.6.2-5.4 2.7-6.6 2.8-6.6.1-.1.2-.2.1-.3s-.2-.2-.3-.1a4.62 4.62 0 0 0-1.7 1.7c-.1 0-.2 0-.2.1-1.1 1.3-1.9 2.8-2.2 4.5-.1.6-.2.9-.4.9-.1 0-.2 0-.3-.1-.3-.5-.4-1.1-.3-1.6.7-5.2 3.3-6.3 3.3-6.3.1-.1.2-.2.1-.3v-.1c0-.1-.2-.2-.3-.2-.6.3-1.1.6-1.5 1.1h-.1c-1.2 1.1-2.2 2.6-2.6 4.2-.2.6-.3.9-.5.9-.1 0-.2 0-.3-.1-.2-.5-.2-1.1-.1-1.7 1.3-5.1 4.1-5.8 4.1-5.8.1 0 .2-.2.2-.3s-.2-.2-.3-.2-3.1.7-4.5 6.2c0 .1-.3 1.5.1 2.1.2.2.4.3.7.3.5 0 .7-.5 1-1.2.2-.7.5-1.3.9-1.9-.4 1-.6 2.1-.8 3.2 0 .1-.1 1.5.5 2.1.2.1.3.2.5.2h.2c.5-.1.6-.6.8-1.3.2-1 .6-2 1.1-2.9-.4 1.2-.5 2.4-.6 3.6 0 .2 0 1.6.6 2 .1.1.3.2.4.1h.2c.5-.1.6-.6.7-1.4.1-.7.2-1.3.4-2-.2.7 0 1.5.4 2.1.1.2.3.3.6.3h.1c1-.2 1.9-3.8 2.1-5l4-2.6c.2-.4.3-.5.2-.6z"/></g><use xlink:href="#B" class="D"/><path d="M301.1 264.9c-.7 0-1-.7-1.4-1.6s-.9-1.8-1.4-2.7c-.9-1.3-2.2-2.3-3.7-2.8-.6-.2-1-.4-1.1-.7-.1-.1-.1-.3 0-.4.3-.6 2-1.1 2.6-1.2h.1c6.5.8 7 8.2 7 8.2v.1l-.1.1c-.5.5-1.2.9-2 1zm-5-8.9c-.8.2-1.6.5-2.2 1 .3.2.5.3.8.4 1.6.5 3 1.6 4 3 .5.9 1 1.8 1.4 2.7.5 1 .6 1.4 1 1.3.6-.1 1.1-.3 1.5-.7 0-1-.7-7-6.5-7.7z" class="H"/><g fill="#eaeef1"><path d="M292 191.9a1.4 1.4 0 1 0 0-2.8 1.4 1.4 0 1 0 0 2.8zm2.5 1.9a1.4 1.4 0 1 0 0-2.8 1.4 1.4 0 1 0 0 2.8z"/><use xlink:href="#C"/><use xlink:href="#C" x="2.9" y="0.5"/><use xlink:href="#C" x="11.1" y="-3.7"/><path d="M305.8 193.4a1.4 1.4 0 0 0 0-2.8 1.4 1.4 0 1 0 0 2.8z"/><use xlink:href="#C" x="5.9" y="-0.5"/></g><g class="B"><path d="M308.2 188.4a1.58 1.58 0 0 0-1.6 1.6.9.9 0 0 0 .1.5 1.53 1.53 0 0 0-2.2.6c-.2.3-.2.6-.2.9v.1c-.3-.3-.7-.5-1.2-.5a1.58 1.58 0 0 0-1.6 1.6v.1c-1.5.6-3.3.1-4.3-1.2a1.69 1.69 0 0 0-1 .3v-.1a1.58 1.58 0 0 0-1.6-1.6 1.93 1.93 0 0 0-1 .3c.1-.2.1-.4.1-.6 0-.9-.7-1.7-1.6-1.7a1.58 1.58 0 0 0-1.6 1.6c0 .9.7 1.7 1.6 1.7a1.93 1.93 0 0 0 1-.3c-.1.2-.1.4-.1.6 0 .9.7 1.6 1.7 1.6a1.93 1.93 0 0 0 1-.3v.1c0 .9.7 1.7 1.6 1.7.6 0 1.1-.2 1.4-.7.2.7.9 1.2 1.6 1.2a1.58 1.58 0 0 0 1.6-1.6v-.1c.5.7 1.6.9 2.3.4.4-.3.7-.8.7-1.3v-.1c.3.3.7.5 1.2.5a1.58 1.58 0 0 0 1.6-1.6c0-.2 0-.3-.1-.5.8.5 1.8.2 2.3-.6s.2-1.8-.6-2.3c-.5-.1-.8-.2-1.1-.3zm-16.2 3.2a1.11 1.11 0 0 1-1.1-1.1c0-.6.5-1.2 1.1-1.2a1.11 1.11 0 0 1 1.1 1.1c0 .7-.5 1.2-1.1 1.2zm2.5 1.9a1.11 1.11 0 0 1-1.1-1.1c0-.6.5-1.2 1.1-1.2a1.11 1.11 0 0 1 1.1 1.1c0 .7-.5 1.2-1.1 1.2zm2.6 1.4a1.11 1.11 0 0 1-1.1-1.1c0-.6.5-1.2 1.1-1.2a1.11 1.11 0 0 1 1.1 1.1c.1.7-.4 1.3-1.1 1.2 0 .1 0 .1 0 0zm2.9.5a1.11 1.11 0 0 1-1.1-1.1c0-.6.5-1.2 1.1-1.2a1.11 1.11 0 0 1 1.1 1.1c0 .7-.5 1.2-1.1 1.2zm3-1a1.11 1.11 0 0 1-1.1-1.1c0-.6.5-1.2 1.1-1.2a1.11 1.11 0 0 1 1.1 1.1c0 .7-.5 1.2-1.1 1.2zm2.8-1.3c-.6 0-1.1-.6-1.1-1.2s.6-1.1 1.2-1.1a1.11 1.11 0 0 1 1.1 1.1c0 .7-.5 1.3-1.2 1.2 0 .1 0 .1 0 0zm2.4-1.9a1.11 1.11 0 0 1-1.1-1.1c0-.6.5-1.2 1.1-1.2a1.11 1.11 0 0 1 1.1 1.1c0 .7-.5 1.2-1.1 1.2zm-26 8.4c-.1 0-.1 0-.2-.1s-.1-.2 0-.3c1.9-1.9 4-3.6 6.2-5.1.1-.1.3 0 .3.1.1.1 0 .3-.1.3-2.2 1.5-4.2 3.2-6.2 5.1h0zm36.3-55.5c-.5-1.4-2.1-2.2-3.6-1.7-.4.1-.7.4-1 .7-3.1 2.4-.2 3.9-.2 3.9l4.8-2.9z"/><path d="M319.4 147.8c0 3.1-1.2 3.5-4.2 3.5s-5.4-1.1-5.4-4.2 2.4-4.9 5.4-4.9 4.2 2.5 4.2 5.6z"/><path d="M330.1 156.4c1.3-1.1 2-2.7 1.9-4.4 0-2.8-1.8-5.1-4.1-5.1-.6 0-1.1.1-1.6.4-.3-1.9-1.8-3.5-3.7-3.9-4.4-1-5.7 2-5.7 2l1.8 13.3c-1.8.3-3 2-2.9 3.8-.1 3.5 2.7 6.5 6.2 6.6s6.5-2.7 6.6-6.2v-.1c1.6-.4 2.8-1.8 2.8-3.5 0-1.2-.4-2.2-1.3-2.9zm-21.5 2.2c.6.1 1.2.2 1.8.4l1.7.6h-.9c-.3 0-.6-.1-.9-.2-.6-.1-1.2-.4-1.7-.8z"/></g><path d="M282.6 170.9s-6.3-1.1-2.1-10.9z" class="E"/><path d="M282.6 171.1c-1.3-.3-2.4-1.2-3.1-2.4-1.1-2.1-.9-5.1.8-8.9l.5.2c-1.6 3.7-1.9 6.5-.8 8.5.6 1.1 1.6 1.8 2.7 2.1l-.1.5zm3.3 25.1s-2.7 4.4-2.5 17.2L271 220c3.9-5.1 6.2-11.3 6.4-17.8l8.5-6z" class="B"/><path d="M297.3 196.8s.9 6 5.2 5.6 11-5.7 11-5.7l-2.3-2.6c-4.2 2.3-9.1 3.3-13.9 2.7z" class="D"/><path d="M302.1 202.7c-4.1 0-5-5.8-5-5.8v-.3h.3c4.7.6 9.5-.4 13.7-2.7l.2-.1 2.6 3-.2.2c-.3.2-6.8 5.4-11.1 5.8l-.5-.1zm-4.5-5.6c.3 1.2 1.4 5.4 4.9 5.1 3.8-.4 9.5-4.6 10.7-5.5l-2-2.2c-4.2 2.1-8.9 3.1-13.6 2.6z" class="H"/><path d="M297.1 196.7s-1.1 5.9-4.1 5.2-6.9-5.9-6.9-5.9l2.4-1.8c2.7 1.3 5.6 2.2 8.6 2.5z" class="D"/><path d="M293.5 202.2c-.2 0-.4 0-.5-.1-3-.7-6.9-5.8-7-6l-.1-.2 2.7-2 .1.1c2.7 1.3 5.5 2.1 8.5 2.5h.3v.3c0 .1-.7 3.9-2.6 5.1-.5.2-.9.3-1.4.3zm-7-6.1c.8.9 4.1 5 6.6 5.6.5.1 1 0 1.4-.3 1.4-.9 2.1-3.6 2.3-4.5-2.9-.3-5.7-1.2-8.3-2.4l-2 1.6z" class="H"/><path d="M309.5 177.1l1.6-17.1s-1.6-18.7-15.9-17.8-12.2 11.3-12.2 11.3" class="C"/><path d="M311.5 194.2c-2.7-4.1-2.3-12.9-1.9-17.3l.1-1c.1-1.1.2-1.7.2-1.8v-.1l1.4-14c0-.2-1.8-18.9-16.2-18-5 .3-8.6 1.8-10.7 4.5-1.5 2-2.1 4.6-1.7 7.1 0 0 0 .1.1.1-.4 1.4-.4 3.6.8 7.7 0 .4-.1.8-.3 1.1-.4 1.1-.6 2.2-.8 3.3-1 10.9 5.2 15.5 10.9 16.2.2 0 .5 0 .7.1l-.3 3.1c-.5 6.2-2 8.2-3.2 8.9-.6.3-1.4.4-2 .1l-.2-.1-.2.4.2.1c3.5 1.7 7.3 2.6 11.2 2.6 4 0 8-.9 11.7-2.7l.2-.1v-.2zm-21.3.6c.3-.1.5-.2.8-.3 1.9-1 3.1-4.1 3.5-9.3 2.4 0 12.5-.5 14-12.6.4-1.1.7-2.2.8-3.3 0-.1-.1-.3-.2-.3s-.3.1-.3.2c0 .3-.1.6-.2.8v-.2c0-.1-2.2 11.9-14.1 11.8-.3 0-.7 0-1-.1-5.5-.7-11.5-5.2-10.4-15.7.1-1.1.3-2.1.7-3.2.2-.4.3-.9.3-1.4-1.5-6.8-1-12.2.8-14.5 2-2.6 5.4-4 10.3-4.3 13.9-.9 15.6 17.4 15.6 17.5l-1.6 15.4c-.4 3.6-1.3 13.9 1.7 18.8-6.5 3.2-14 3.4-20.7.7z" class="B"/><path d="M281.9 160.6s-7.3-2.5-4.1-10.1c0 0-1.8-8.9 5.1-11.7 1.1-.6 2.4-.6 3.5 0 3.2-4.5 8.7-6.8 14.2-6.1 9.8 1 9.5 8.5 9.5 8.5s6.6-4.2 9.5 2.3-.1 8.2-.1 8.2 5.4 2.6 4.1 8.2-4.1 5.7-4.1 5.7.7 11-9.7 8.7l.4-4.9s1.2-6.9-.2-7.2c-3.9-.6-2.8-11.5-2.8-11.5s-11.9.8-15.1-4.9c0 0-3.8 7.8-11.3 6.6h.1" class="E"/><path d="M312.5 174.9c-.9 0-1.8-.1-2.7-.3h-.2v-.2l.4-4.9c.6-3.2.7-6.8 0-6.9-3.8-.6-3.2-9.7-3-11.5-1.9.1-11.6.3-14.8-4.7-.9 1.6-4.8 7.4-11.4 6.4v-.5h.1c7.2 1.1 10.9-6.4 11-6.5l.2-.4.2.4c3.1 5.5 14.8 4.8 14.9 4.8h.3v.3c0 .1-1 10.7 2.6 11.2 1.5.3.7 5.8.4 7.5l-.4 4.7c2.8.6 5 .2 6.6-1.1 2.9-2.4 2.6-7.3 2.6-7.3v-.2h.2s2.6-.3 3.9-5.5-3.8-7.8-4-7.9l-.4-.2.4-.2s2.8-1.7 0-7.9c-.6-1.5-1.8-2.7-3.3-3.3-2.8-.8-5.8 1.1-5.8 1.1l-.4.3v-.5c0-.3.2-7.3-9.3-8.2-5.4-.7-10.8 1.6-14 6l-.1.2-.2-.1c-1-.5-2.2-.5-3.3 0-6.6 2.7-5 11.3-5 11.4v.1c-.9 1.9-1 4.1-.3 6 .9 1.7 2.4 3.1 4.2 3.8l-.2.5c-2-.7-3.6-2.1-4.5-4-.8-2-.7-4.3.2-6.3-.2-.9-1.4-9.2 5.3-11.9 1.1-.5 2.4-.6 3.5-.1 3.3-4.4 8.8-6.7 14.3-6 8.5.9 9.6 6.7 9.7 8.3 1.8-1 3.9-1.4 5.9-.9 1.7.6 3 1.9 3.6 3.6 2.5 5.4.9 7.6.1 8.3 1.2.7 5 3.4 3.9 8.3s-3.3 5.7-4.1 5.9c0 1 0 5.2-2.8 7.5-1.1.5-2.7 1-4.3.9z" class="B"/><path d="M309.8 169.8s5.3-.3 5.3-5.3-5-5-5-5" class="C"/><path d="M309.8 170.1c-.1 0-.2-.1-.2-.2s.1-.2.2-.2c.2 0 5.1-.4 5.1-5.1s-4.6-4.8-4.8-4.8c-.1 0-.2-.1-.2-.2s.1-.2.2-.2c0 0 5.2.1 5.2 5.2s-5.4 5.5-5.5 5.5z" class="B"/><path d="M312.1 169.9a1.4 1.4 0 1 0 0-2.8 1.4 1.4 0 1 0 0 2.8z" fill="#eaeef1"/><path d="M312.1 170.1a1.58 1.58 0 0 1-1.6-1.6c0-.9.7-1.7 1.6-1.7a1.58 1.58 0 0 1 1.6 1.6c.1 1-.7 1.7-1.6 1.7zm0-2.8a1.11 1.11 0 0 0-1.1 1.1c0 .6.5 1.2 1.1 1.2a1.11 1.11 0 0 0 1.1-1.1c0-.6-.5-1.1-1.1-1.2zm-.7-.6c-.1 0-.2-.1-.2-.2-.6-1.9-.5-3.2.1-3.9.4-.4 1-.7 1.6-.6.1 0 .2.2.2.3s-.1.2-.3.2c-.4-.1-.8.1-1.1.4-.4.4-.6 1.4 0 3.5 0 .2-.1.3-.3.3h0zm-19.7 7c-.5 0-.9-.1-1.3-.4-.6-.6-.9-1.5-.7-2.3.4-3.8 2.5-15.8 2.5-15.9s.2-.2.3-.2.2.2.2.3-2.1 12.1-2.5 15.9c-.2.7 0 1.4.5 1.9.7.6 2 .1 2 .1.1-.1.3 0 .3.1.1.1 0 .3-.1.3a4.3 4.3 0 0 1-1.2.2z" class="B"/><path d="M306.8 159.3h3.7v1h-3.7c0 .1-.1-1.1 0-1z" class="I"/><path d="M292.7 159.8h-.1c-1.3-.9-1.8-.1-1.9-.1-.1.1-.2.1-.3 0s-.1-.2-.1-.3c0 0 .9-1.2 2.5-.1.1.1.1.2.1.4 0 0-.1 0-.2.1z" class="B"/><path d="M284.1 167.1a6.7 6.7 0 1 0 0-13.4 6.7 6.7 0 1 0 0 13.4z" class="D"/><path d="M284.1 167.4c-3.9 0-7-3.1-7-7s3.1-7 7-7 7 3.1 7 7v.1c-.1 3.7-3.2 6.8-7 6.9zm0-13.4c-3.6 0-6.4 2.9-6.4 6.5s2.9 6.4 6.5 6.4a6.38 6.38 0 0 0 6.4-6.4c-.1-3.6-3-6.5-6.5-6.5z" class="B"/><path d="M299.6 167.2a7 7 0 1 0 0-14 7 7 0 1 0 0 14z" class="D"/><path d="M299.6 167.4a7.17 7.17 0 1 1 0-14.4 7.17 7.17 0 1 1 0 14.4zm0-14a6.81 6.81 0 0 0-6.8 6.8 6.74 6.74 0 1 0 13.6 0 7.01 7.01 0 0 0-6.8-6.8z" class="B"/><path d="M285 160.3c.3 0 .6.5.6 1.1s-.3 1.1-.6 1.1-.6-.5-.6-1.1.3-1.1.6-1.1zm11.3.1c.3 0 .6.5.6 1.1s-.3 1.1-.6 1.1-.6-.5-.6-1.1.3-1.1.6-1.1z" class="I"/><path d="M300.4 157.2c-.1 0-.1 0-.2-.1-1.1-1.3-3-1.4-4.4-.4-.1.1-.3.1-.4 0s-.1-.3 0-.4c1.5-1.2 3.7-1 5 .4.1.1.1.2 0 .3.1.2.1.2 0 .2zm-12.9-.5c.1-.1.1-.2 0-.3-1.2-1.3-3.3-1.3-4.5 0-.1.1-.1.3 0 .4s.3.1.4 0 1.7-1.8 3.9 0c0-.1.1 0 .2-.1z" class="B"/><path d="M130.3 284.1l.1-5.2s-32.8-9.3-34.8-15.7c-.4-1.1-1-40.5-1-40.5l.8-28.6s.6-6.5-12.1-5.9c-11 .6-17.2 1.4-17.2 1.4l-17.6 2.2s-9.3-.3-9.6 11.4 2.3 57.8 2.3 57.8l.8 14c.4 6.4 1.5 11.2 6.6 14.3l-1.1 11 .1.4 3.5-1 1.2-8.7c6.4 2.5 17.7 5.8 25.5 8l-.4 10.1 3.7-1.5.4-7.6 4.7 1.3 40-15.5.2 41.1 7.7-1.4-4-41.5.2.1z" class="G"/><path d="M73.4 191l-23.7 3.2s-5.7.2-6.2 7.9 1.6 65.9 1.6 65.9-1.7 15.7 10.4 19.4 32.2 8.2 32.2 8.2L130 279l-28.3-10.4a29.79 29.79 0 0 1-5-3.5c-1.7-1.7-1.9-3.2-2-9.7-.3-13.4.9-59.1.9-59.1s.9-7.9-6.1-7.3-16.1 2-16.1 2z" class="D"/><path d="M130.3 284.7h.1l.2-.1v-5.8h-.5v.1l-.4-.1c-.3-.1-30.1-9.6-33.2-14.2s-1.2-59.1-.8-67.1c.2-.8.4-4.4-.9-6.7-.6-1.2-1.8-1.9-3.1-1.9l-9.7-1.2-33.5 3.9c-.1 0-9.1.4-9.4 8.8-.4 9.4 1.5 56.2 2.9 74.3 0 .6.1 1.2.1 1.9.1 4 .3 8.9 6 12.7l.5.4-3.9 36 .1.1c.7.7 1.7 1.2 2.7 1.2.3 0 .6 0 .9-.1h.2l4.2-35.1h-.1.1l3.2 1 21.5 6.6-.8 35.9.1.1c.6.6 1.5 1 2.4 1 .4 0 .8-.1 1.2-.2h.2l1.1-35.5 4.6 1.4 39.8-15.4 3.9 33.5.1.1c1.1.8 2.5.9 3.7.2l.1-.1-3.6-35.7zm-39.8-95.3c.3-.1.6-.1.9-.1.9 0 1.7.3 2.3.9 1.9 1.9 1.6 6 1.5 7v.3c0 .6-2.6 62.4.8 67.4 3 4.4 28.2 12.7 32.8 14.2l-42.1 16.5-23.2-5.7c-5.2-1.2-7.1-1.6-10.4-3.1-6.2-2.9-7.5-10-7.7-14-.7-16.3-2.2-63-2-70.6s4.4-7.9 7.2-8.1h.1l39.8-4.7zM48 326.3c-1 .2-2.1-.1-2.8-.9l3.8-35.6c1 .6 2 1.1 3.1 1.6L48 326.3zm31.9 9.1c-1.4.7-2.9-.6-2.9-.6l1-35 2.9.7-1 34.9zm6.3-34.1v-.1l-30.1-9-.8-.3c-12.4-3.9-12.6-10.3-12.8-15.4 0-.7 0-1.3-.1-1.9-1.4-18.2-3.3-64.9-2.9-74.3.3-8 8.6-8.4 9-8.4L82 188l7.5.9-38.8 4.6c-2.8.3-7.4.8-7.6 8.6-.2 7.6 1.3 54.3 2 70.6.2 4.1 1.5 11.5 8 14.4 3.3 1.5 5.3 2 10.5 3.1 4.4 1 11.2 2.5 23 5.6l-.4 5.5zm.5 0l.4-5.2H87l43.1-16.9v5.1l-.2.1h-.1l-43.1 16.9zm43.7 18.4l-4-33.5 3.4-1.3 3.4 35c-.9.4-2 .3-2.8-.2z" class="H"/><path d="M133.7 335.4c-.6 0-6.6 1.9-6.6 1.9s-.8 5.2 1.3 6.2 27.1 2.1 24.4.7-19.1-8.8-19.1-8.8zm13.9-10.3l-7.7 2.6s.4 4.8 2.5 5.1 26.6 3.2 21.8 0-16.6-7.7-16.6-7.7z" fill="#172937"/><path d="M90 202.9l1.3 36.6a69.11 69.11 0 0 0 1.8 14.3c.2.8 8.9 13.9 8.9 13.9s-28 21.6-50.1 11.2c0 0 .3-37.8-1.1-46.2s-8.8-41.8 11.8-44.2c17.5-2.1 25 1.5 27.4 14.4z" class="J"/><path d="M65.1 282c-4.6.1-9.1-.9-13.3-2.8l-.1-.1v-.2c0-.4.3-37.9-1.1-46.2l-.3-1.4c-1.4-7.5-5.1-27.6 2.2-37.4 2.4-3.3 6.1-5.3 10.1-5.7 17.8-2.1 25.3 1.8 27.7 14.6 0 .3 1.3 30.6 1.3 36.6.1 4.8.7 9.6 1.8 14.2.2.6 5.4 8.6 8.9 13.8l.1.2-.2.1c-.3.4-18.5 14.3-37.1 14.3zm-12.9-3.2c20.8 9.6 47-9.3 49.5-11.1-1.3-2-8.6-13-8.8-13.8a69.21 69.21 0 0 1-1.8-14.4c0-6-1.3-35.7-1.3-36.6-2.3-12.6-9.4-16.3-27.1-14.2-3.9.3-7.5 2.3-9.8 5.5-7.1 9.7-3.5 29.5-2.1 37l.3 1.4c1.3 8.1 1.1 43.4 1.1 46.2z" class="B"/><path d="M144.8 189.3l1.8-1.8s-3.6-4.8-5.7-4.5-2.5 1.1-2.5 1.1l-2.8 1.2-2.3 2.5 1.3 3.1.6 1.9 1.1 2 8.5-5.5z" class="C"/><path d="M90.6 204.7c26.4 9.1 46.8-6.2 46.8-6.2l-4.1-10.5s-17.1 22.2-50.4 2.3" class="J"/><g class="B"><path d="M107.5 207.8c-5.8 0-11.5-1-17-2.9l.2-.5c24.8 8.5 44.5-4.7 46.4-6.1l-3.9-9.9c-3.4 3.8-7.7 6.6-12.6 8.4-7.8 2.8-20.6 4-37.9-6.3l.3-.4c17.1 10.2 29.8 9.1 37.5 6.3 4.9-1.7 9.2-4.6 12.6-8.5l.3-.4 4.3 11.1-.1.1c-8.9 5.9-19.4 9.1-30.1 9.1z"/><path d="M134.1 200.4l-4.2-9.5.5-.2 4.2 9.5-.5.2z"/></g><path d="M137.1 185.5l5.7-6.9c1.3-1.8 2.2-2.2 2.5-1.4s-3.6 6-4.2 6.8" class="C"/><path d="M137.3 185.7l-.4-.3c0-.1 4.4-5.1 5.7-6.9 1-1.3 1.7-2 2.3-1.9.3 0 .5.3.6.6.1.2.4.9-4.2 7l-.4-.3c3.4-4.6 4.2-6.3 4.2-6.6s-.2-.2-.2-.2-.6 0-1.9 1.7l-5.7 6.9z" class="B"/><path d="M141.1 184.3l4.1-3.9c1.5-1.5 2.5-1.8 2.7-1s-4.3 5.5-5.1 6.2" class="C"/><path d="M143 185.8l-.3-.4c1-.9 5.1-5.3 5-5.9 0-.2-.1-.2-.2-.2-.3-.1-1 .2-2.1 1.4-.7.6-1.4 1.2-2 1.9l-2.1 2-.3-.4 4.1-3.9c.8-.8 1.9-1.7 2.6-1.5.3.1.5.3.5.6.2 1-4.9 6.1-5.2 6.4z" class="B"/><path d="M143.3 185.3l4.4-3.2c1.6-1.2 2.6-1.3 2.6-.5s-4.8 4.7-5.6 5.3" class="C"/><path d="M144.9 187.1l-.3-.4c1.4-1 5.4-4.5 5.5-5.1 0-.2-.1-.2-.1-.2-.2-.1-.8 0-2.1.9l-1.5 1.1-2.9 2.1-.3-.4 2.9-2.1 1.5-1.1c.7-.5 1.9-1.3 2.6-1 .2.1.4.4.4.7-.1 1-5.7 5.5-5.7 5.5z" class="B"/><path d="M136.1 195.3l1.1-.8c3.7-.9 7.1-3 9.5-6 .6-.8 4.3-3.1 4.3-4s-1-.8-2.7.4l-3.5 2.1" class="C"/><path d="M136.2 195.5l-.3-.4 1.2-.9c3.7-.9 7-3 9.4-5.9a11.51 11.51 0 0 1 1.7-1.4c1-.7 2.6-2 2.6-2.4 0-.2-.1-.3-.1-.3s-.6-.2-2.2.9c-.3.2-.7.4-1.2.7l-2.3 1.4-.3-.4 2.3-1.4 1.2-.7c1.3-.9 2.2-1.2 2.7-.9.3.2.4.5.4.8 0 .6-1.1 1.5-2.7 2.8-.6.4-1.1.9-1.6 1.4-2.5 3-5.8 5.1-9.6 6.1l-1.2.6z" class="B"/><path d="M133.3 187.9c.3-1.4.7-2.8 1.3-4.1.8-1.4.2-5.4.6-5.7.4-.4 1.1-.5 1.6 0 .1.1.2.2.2.3.7 2.3.8 4.7.2 7" class="C"/><path d="M133.6 188l-.5-.1c.3-1.4.7-2.8 1.3-4.2.4-1.2.5-2.5.4-3.8 0-1.3 0-1.8.2-2 .3-.3.8-.4 1.2-.4.4.1.7.4.9.8.8 2.3.8 4.8.2 7.2l-.5-.1c.6-2.3.5-4.6-.2-6.8-.1-.2-.3-.4-.6-.5-.3 0-.6.1-.8.3-.1.5-.1 1.1-.1 1.6 0 1.4 0 3.1-.5 4-.4 1.3-.8 2.6-1 4zm11 110.2c-3.6-20.7-7.2-27.6-20.2-30.9l-.1-.1h-.4c-8.3-1.7-16.6-3-25-3.8-.6 0-5.5 12.7-22.4 16.3-8 1.3-16.3 1-24.2-.8 0 0 1.7 5.9 13.9 8.1 11.2 2 23-1.5 32.3.3 8.1 2.4 17.2 7.7 21.1 19.3l5.2 31.4c5.2 1.1 11.3-3 11.3-3l-4.6-27.2c-3.6-27.7-23.2-30.7-33.8-33.8 3.1-.1 17.2 3.3 23.2 4.7 5.6 1.4 8.5 5 10.6 13.6 1.1 4.7 6.3 36.1 6.3 36.1 5.2 1.1 11.3-3 11.3-3l-4.5-27.2z" class="B"/><path d="M66.6 196.4L69 200h1.2l1.5 18.9 5.8 11.2.6-13.2-5.4-17.3.8-.5.2-4.2-3.9-3.2-3.2 4.7z" class="F"/><path d="M59.6 187.4c-1 .2-1.9.7-2.5 1.6-.6.7-.9 1.7-1 2.6l7.1 9.5 6.5-8.5 7.5 6.8 2.8-8.5s.1-2.9-4.5-4.6" class="J"/><path d="M63.2 201.5l-7.3-9.8v-.1c0-1 .4-2 1-2.8.6-.9 1.6-1.5 2.7-1.7v.5c-.9.2-1.8.7-2.3 1.5-.5.7-.9 1.5-1 2.4l6.9 9.2 6.5-8.5 7.5 6.8 2.7-8.1c0-.3-.2-2.8-4.3-4.3l.2-.5c4.7 1.7 4.7 4.7 4.7 4.8v.1l-2.9 8.9L70 193l-6.8 8.5z" class="B"/><path d="M58.5 157.1c.5 9.9-2 23.2 12.2 22.9 17.4.5 13.6-13.8 13.9-22.7 0 0 3.6-22.6-8.6-22.6s-18.6 5.9-18.6 5.9l1.1 16.5z" class="C"/><path d="M71.6 180.3h-.9c-3.9.1-6.7-.8-8.7-2.8-3.6-3.5-3.6-9.7-3.6-15.7 0-1.6 0-3.2-.1-4.7l-1.1-16.6.1-.1c.1-.1 6.6-6 18.8-6 2.3-.1 4.5.9 6 2.7 5.1 5.9 3 19.6 2.9 20.2 0 1.4 0 2.9.1 4.5.2 5.4.4 11.5-3.2 15.1-2.4 2.3-5.7 3.4-10.3 3.4zm-.9-.5c5 .1 8.4-.9 10.7-3.1 3.5-3.5 3.3-9.5 3.1-14.7-.1-1.6-.1-3.2-.1-4.6 0-.2 2.2-14.1-2.8-19.9-1.4-1.6-3.5-2.5-5.6-2.4-11.2 0-17.5 5.1-18.3 5.8l1.1 16.4c.1 1.5.1 3.1.1 4.7 0 5.9 0 12 3.5 15.3 1.8 1.7 4.6 2.5 8.3 2.5z" class="B"/><path d="M58.7 146.1l-6.1 1.6-.2 10.3 6.1-.9.2-11z" class="N"/><path d="M58.5 163.7c-6-.1-7.1-3.3-6.9-8.7s4-4.3 4-4.3l2.5.6.4 12.4z" class="C"/><g class="B"><path d="M58.8 164h-.3c-2.5 0-4.3-.6-5.5-1.9-1.3-1.4-1.8-3.5-1.7-7.1.1-2 .6-3.3 1.6-4.1.8-.5 1.8-.7 2.7-.5l2.7.6.5 13zm-4-13.1c-.6 0-1.1.2-1.6.5-.9.6-1.3 1.9-1.4 3.7-.1 3.5.3 5.5 1.5 6.8 1 1.1 2.6 1.6 4.9 1.7l-.4-11.9-2.3-.6c-.2-.2-.4-.2-.7-.2z"/><path d="M56.2 151.1l.1-.6c-1.2-.8-2.7-.6-3.7.4v.6l1.4-.5h2.2v.1z"/></g><path d="M78.8 159.7h7.5c1.4 0 2.6-1.1 2.6-2.6v-5.9c0-1.4-1.1-2.6-2.6-2.6h-7.5c-1.4 0-2.6 1.1-2.6 2.6v5.9c0 1.4 1 2.6 2.4 2.6h.2z" class="N"/><g class="B"><path d="M86.3 160h-7.5c-.8 0-1.6-.3-2.2-.9-.5-.5-.7-1.2-.7-1.9v-5.9c0-1.6 1.2-2.8 2.8-2.9h.1 7.5a2.73 2.73 0 0 1 2.8 2.8v.1 5.9c0 1.6-1.2 2.9-2.7 2.9 0-.1-.1-.1-.1-.1zm-7.5-11.1a2.26 2.26 0 0 0-2.3 2.3v.1 5.9c0 .6.2 1.2.6 1.6.5.5 1.1.8 1.8.8h7.5a2.26 2.26 0 0 0 2.3-2.3v-.1-5.9c0-1.3-1-2.3-2.3-2.4h-.1-7.5z"/><path d="M84.8 148.9h1.9v-3.1c-.5-6.5.1-16.9-12.1-16.9-7.4.1-7.9 3.7-9.4 3.8-16.6 1-11.9 10.4-12.5 19.4l3.5-1.1.4 6.2 2-.1s1.2-11.1.1-13.8c0 0 4.7-2.3 6.1-6 13.1.4 19.2-7.1 20 11.6z"/></g><path d="M55.8 151.1c-1.3-.6-2.9-.1-3.6 1.3-.1.3-.2.7-.2 1-.3 1.5-.2 3 .3 4.4l1.4-4.3 2.2.2" class="C"/><path d="M70 166.9c-.1 0-.2-.1-.2-.2s.1-.3.2-.3l5.5-.7-1.8-21.1c0-.1.1-.3.2-.3s.2.1.3.2l1.8 21.3c0 .1-.1.2-.2.3l-5.8.8zm1.7 5.5c-1.3 0-2.5-.8-3-2-.1-.1 0-.3.1-.3s.3 0 .3.1c.4 1.1 1.6 1.8 2.7 1.6.1 0 .3.1.3.2s-.1.3-.2.3l-.2.1z" class="B"/><path d="M81.6 156.6c.276 0 .5-.403.5-.9s-.224-.9-.5-.9-.5.403-.5.9.224.9.5.9z" class="I"/><path d="M77 179l.3 10.6c-8.9 5.4-15.6.5-15.6.5l-.1-12.4" class="C"/><g class="B"><path d="M68.9 192.4c-2.6 0-5.1-.7-7.3-2.1l-.1-.1-.1-12.5h.5L62 190c.9.6 7.1 4.3 15.1-.5l-.3-10.5h.5l.3 10.8-.1.1c-2.6 1.5-5.6 2.4-8.6 2.5zm-4.1-45h-.1c-.1-.1-.1-.2-.1-.3 1.2-1.8 3.3-2.8 5.4-2.6.1 0 .2.1.2.3 0 .1-.1.3-.2.3-2-.1-3.9.8-5 2.4-.1-.1-.1 0-.2-.1z"/><path d="M81.4 143.9c-.1 0-.2 0-.2-.1-.6-.8-1.5-1.2-2.5-1.4-.1 0-.2-.2-.2-.3s.2-.2.3-.2 2.1.3 2.9 1.6c.1.1 0 .3-.1.4-.1-.1-.2-.1-.2 0zm-3.9 34.9s-5.9 1.5-10.3.6c-3.1-.7-4-1.7-4.7-2.4l-1-.7s-2.7-3.7-2.8-5.8l.9 17 2.4 2.9-.2-3.9v-3.2c1.7.6 12.9 2 15.4-3l.3-1.5z"/></g><path d="M61 159.7h10.2c1.4 0 2.6-1.1 2.6-2.6v-5.9c0-1.4-1.1-2.6-2.6-2.6H61c-1.4 0-2.6 1.1-2.6 2.6v5.9c0 1.4 1 2.6 2.4 2.6h.2z" class="N"/><g class="B"><path d="M71.2 160H61c-.8 0-1.6-.3-2.2-.9-.5-.5-.7-1.2-.7-1.9v-5.9a2.73 2.73 0 0 1 2.8-2.8h.1 10.2a2.73 2.73 0 0 1 2.8 2.8v.1 5.9c0 1.6-1.2 2.9-2.7 2.9 0-.2-.1-.2-.1-.2zM61 148.9a2.26 2.26 0 0 0-2.3 2.3v.1 5.9c0 .6.2 1.2.6 1.6.5.5 1.1.8 1.8.8h10.2a2.26 2.26 0 0 0 2.3-2.3v-.1-5.9c0-1.3-1-2.3-2.3-2.4h-.1H61z"/><path d="M75.9 152.6c-.1 0-.2 0-.2-.1a.55.55 0 0 0-.5-.3 1.92 1.92 0 0 0-1.2.4c-.1.1-.3.1-.4 0s-.1-.3 0-.4c.4-.4 1-.5 1.6-.5.3.1.6.3.8.5.1.1 0 .3-.1.3.1 0 0 .1 0 .1z"/></g><path d="M69.5 156.6c.276 0 .5-.403.5-.9s-.224-.9-.5-.9-.5.403-.5.9.224.9.5.9z" class="I"/><g class="B"><path d="M56.5 161.4c-.1 0-.2-.1-.2-.2-.1-.6-.4-.9-.7-1.1a.96.96 0 0 0-.9.2h-.2c-.1 0-.1-.1-.2-.1-1.1-2.5-1.4-6-.2-7 .4-.3 1-.5 2.1.3.1.1.1.2.1.3s-.2.1-.3.1c-.7-.5-1.2-.6-1.5-.3-.8.7-.7 3.7.2 6.1.3-.2.8-.2 1.1-.1.6.3.9.8 1 1.4 0 .1-.1.2-.3.4.1-.1.1-.1 0 0zm29.2 30.3c.4.1 10.3 15 22.8 15.9a59.34 59.34 0 0 1-18.3-2.3s-1.2-8.7-5.8-12.9.6-.6.6-.6l.7-.1z"/><path d="M77.7 231L56 191.3l.4-.2 20.9 38.1 2.3-38.7h.5L77.7 231zm2.8 12.4l-.5-.1 3.6-29.4-2.6-2 2.5-3.1.9-17.4-5.3-2.7.2-.4 5.7 2.9-.9 17.8-2.3 2.9 2.4 1.8v.1c0 .1-3.6 29.6-3.7 29.6z"/><path d="M83.9 249.6c-5.6-5.2-6.5-18.9-6.6-19.5h.5c0 .1 1 14.1 6.4 19.1l-.3.4zm-36.3-9.4s2.3 22.3 42 24.9l.8-2.4s5.4.8 7.4-.7l-2.9-5.5-47.3-16.3z"/></g><path d="M105.3 221.2c-.7.2-6.8 48.6-6.8 48.6l27.4-8.2 11.7-50.1c-.1.1-7.9 2.7-32.3 9.7z" class="E"/><path d="M97.8 270.6l7.1-49.6h.2l33.3-9.9-.1.4-12.3 50.3h-.1l-28.1 8.8zm7.5-49.3l-6.9 48.6 27.1-8.5 12.2-49.5-32.4 9.4z" class="B"/><path d="M112.4 218.6l.5-2.1 4.9-1.4s.6-5.3 3.9-5.8 3.4 3.2 3.4 3.2l4.7-1.2-.2 2.2" class="D"/><path d="M112.6 218.7l-.5-.1.5-2.2 4.9-1.4c.1-.9.9-5.4 4.1-5.9.9-.2 1.8 0 2.4.6.7.7 1.1 1.6 1.2 2.6l4.8-1.2-.2 2.6h-.5l.2-1.9-4.7 1.2v-.3c0-.9-.4-1.8-1.1-2.5-.6-.4-1.3-.6-2-.4-3.1.5-3.7 5.5-3.7 5.6v.2l-4.9 1.4-.5 1.7zm9.1-3.8h-.2c-.4-.1-.8-.4-1-.7a2.2 2.2 0 0 1-.2-1.4c.1-.5.3-.9.6-1.3.3-.3.7-.5 1.2-.4.4.1.8.4 1 .7.2.4.3.9.3 1.4-.1.9-.8 1.6-1.7 1.7zm-1-2.1a1.39 1.39 0 0 0 .2 1.1c.1.3.4.4.7.5.6.1 1.1-.5 1.2-1.3a1.39 1.39 0 0 0-.2-1.1c-.2-.4-.7-.6-1.1-.4-.1.1-.2.1-.3.2-.3.3-.5.7-.5 1z" class="B"/><path d="M106.3 249.2s.5-1.1-1.1-1.2l-5.4-.6c-.2 0-2.1.6-2.1.6l-2.4 1.1-1 8.8 1.7-.5s5.3.4 7-.5l5.2-3-.2-2.3-1.7-2.4z" class="C"/><path d="M53.3 193.2c-2.8 2.3-5.1 5-6.9 8.1-1.6 3.1-2.7 13.8-2.9 19-.9 18 9.4 33.3 24.2 38s26.3 1.9 26.3 1.9l1-11s-44.4 8-39.2-36.2" class="J"/><g class="B"><path d="M85.1 261.3a58.1 58.1 0 0 1-17.5-2.7c-15.2-4.8-25.3-20.5-24.4-38.3.2-4.9 1.3-15.9 2.9-19.1 1.8-3.1 4.2-5.9 7-8.2l.3.4c-2.7 2.3-5 5-6.8 8-1.6 3.1-2.7 14-2.9 18.9-.9 17.5 9 33 24 37.7 8.4 2.8 17.3 3.4 26 1.9l1-10.5c-2.6.4-20.7 2.7-31.4-7.4-6.8-6.3-9.4-16-7.8-29l.5.1c-1.5 12.9 1 22.5 7.6 28.7C75 252.4 94.8 249 95 249h.3l-1 11.5h-.2c-2.9.5-5.9.8-9 .8z"/><path d="M90.8 260.4h-.5l.7-11h.5l-.7 11z"/></g><path d="M101.6 247.6l.2-2.3c-.8.5-1.6.9-2.5 1.2-1.2.5-2.3 1.2-3.1 2.2l-1 .4" class="C"/><path d="M95.3 249.3l-.2-.5.9-.4c.9-1 1.9-1.8 3.2-2.2.9-.3 1.7-.7 2.4-1.2l.4-.3-.2 2.9h-.5l.2-1.8c-.7.4-1.4.7-2.1 1-1.2.4-2.2 1.2-3 2.1l-.1.1-1 .3z" class="B"/><path d="M99.5 248.5l8.5-3.1c2-.8 3-.7 2.9.1s-4.4 2.7-5.4 3.1" class="C"/><path d="M105.6 248.8l-.2-.5c2.1-.8 5.2-2.4 5.2-2.9 0-.2-.1-.2-.1-.3-.2-.2-1-.2-2.5.4l-8.5 3.1-.2-.5c.1 0 6.5-2.3 8.5-3.1 1.5-.6 2.5-.7 3-.4a1.08 1.08 0 0 1 .3.7c-.1 1.3-5.5 3.5-5.5 3.5z" class="B"/><path d="M105.7 248.6l3.7-1c2.1-.7 3.1-.4 2.9.4s-4.6 2.3-5.6 2.6" class="C"/><path d="M106.8 250.8l-.1-.5c2.1-.6 5.3-1.9 5.4-2.4 0-.1 0-.2-.1-.3-.2-.2-1-.3-2.5.2l-1.8.5-1.9.5-.1-.5 1.9-.5 1.8-.5c1-.4 2.4-.6 3-.1.2.2.3.5.2.8-.3 1.1-5.8 2.8-5.8 2.8z" class="B"/><path d="M106.8 250.6l3.5-.8c2-.5 2.9-.2 2.6.6s-4.5 2-5.4 2.2" class="C"/><path d="M107.6 252.8l-.1-.5c1.7-.4 5.1-1.5 5.2-2 .1-.2 0-.3 0-.4-.2-.2-.9-.3-2.3.1l-3.5.8-.1-.5 3.5-.8c1.5-.4 2.4-.3 2.8.1.2.2.2.6.1.8-.3 1.2-5.6 2.4-5.6 2.4z" class="B"/><path d="M94.3 257.9l1.6-.5c3.8.4 7.7-.4 11-2.3.8-.5 5.1-1.4 5.4-2.2s-.7-1.1-2.6-.6c-.7.2-.9.1-2.3.4" class="C"/><path d="M94.4 258.1l-.1-.5 1.7-.5h.1c3.8.4 7.6-.4 10.8-2.3.6-.3 1.3-.6 2-.7 1.1-.3 3.1-1 3.3-1.4.1-.2 0-.3 0-.3-.2-.2-.9-.3-2.3 0-.3.1-.6.1-.9.2-.3 0-.7.1-1.4.2l-.1-.5c.5-.1 1-.2 1.5-.2.3 0 .6-.1.8-.1 1.4-.4 2.4-.3 2.8.1.2.2.2.6.1.8-.2.6-1.6 1-3.6 1.6-.7.2-1.3.4-1.9.7-3.4 1.9-7.3 2.8-11.1 2.4l-1.7.5zm-14.5-15L62.3 215l1.8-2.5-3-2c-.5-.6-11.9-13.3-8.6-16.8.8-.8 3.7-2.9 3.8-3l.3.4s-3 2.2-3.8 3c-2.5 2.6 5.3 12.5 8.6 16.1l3.4 2.2-1.9 2.6 17.4 27.9-.4.2zm-19.7-55.8c-.2 0-2.8.6-2.6 1.1s4.2 2.1 4.2 2.1l-1.6-3.2zm17.3 0c.2 0 1.9.9 1.7 1.4-.6.6-1.2 1-1.9 1.4l.2-2.8z" class="B"/><path d="M275.7 122.1c21.4-14.8 26.8-44.1 12.1-65.5s-44.1-26.8-65.5-12.1-26.8 44.1-12.1 65.5c11.1 16.1 30.9 23.6 49.8 19.1l14.6 6.8 1.1-13.8z" fill="#169ec5"/><path d="M277 119.6c21.3-14.5 26.7-43.3 12-64.3S245.2 29 223.9 43.5s-26.7 43.3-12 64.3c11 15.8 30.6 23.2 49.5 18.7l13.6 7.9 2-14.8z" fill="#d5e9f2"/><path d="M275.2 135.1l-13.9-8.1c-8.1 1.9-16.6 1.7-24.6-.7-24.7-7.6-38.6-33.8-31-58.5s33.8-38.6 58.5-31 38.6 33.8 31 58.5c-3.1 10-9.4 18.6-17.9 24.6l-2.1 15.2zm-13.9-8.7l13.5 7.9 2-14.7.1-.1c20.9-14.8 25.8-43.7 11-64.6s-43.7-25.8-64.6-11c-8.4 5.9-14.5 14.4-17.5 24.2-7.4 24.5 6.4 50.3 30.9 57.7h.1c8 2.4 16.4 2.6 24.5.7v-.1z" class="G"/><path d="M281.8 70.1c-.5-4.3-2.2-4.7-3.6-5-4.2-.8-2.9-3.7-2.9-3.7l-11-.2h-.4l-11 .2s1.3 2.8-2.9 3.7c-1.5.3-3.1.7-3.6 5s.1 35.8.1 35.8 3.2 5.9 17.4 5.8h.4c14.2.2 17.4-5.8 17.4-5.8s.6-31.6.1-35.8z" class="B"/><path d="M278 58.4c-.2-1.3-6.3-1.8-13.8-1.8s-13.5.5-13.7 1.8v4.3c0 1.4 6.2 2.4 13.8 2.4S278 64 278 62.7v-4.3z" fill="#d3eaf2"/><path d="M264.3 60c7.622 0 13.8-.806 13.8-1.8s-6.178-1.8-13.8-1.8-13.8.806-13.8 1.8 6.178 1.8 13.8 1.8z" class="D"/><path d="M278.3 58.2c0-1.7-9.1-2.1-14-2.1s-13.6.4-14 2c0 .1-.1.2-.1.3v4.3c0 1.8 7 2.7 14 2.7s14-.9 14-2.7v-4.4s.1 0 .1-.1zm-14.1-1.3c11.4 0 13.3 1 13.5 1.5-.7.6-5.2 1.4-13.4 1.4-8.5 0-13.1-1-13.5-1.5.4-.5 2.7-1.4 13.4-1.4zm0 8c-8.4 0-13.5-1.3-13.5-2.2v-4c1.9 1.2 9.3 1.5 13.5 1.5s11.4-.3 13.4-1.4v3.9c.1 1-4.7 2.3-13.4 2.2z" class="B"/><g class="D"><path d="M282 71.3c0-.1 0 0-.2 0 0 0-4.7 2.4-14.4 2.6-10.9.2-16.2-.9-16.2-.9-2.8-.3-3 2-3 3.4l.1 12.1-.1 12.1c-.2 1.8.9 3.6 2.6 4.2.5.2 4 2.3 14.9 2.3 8.6 0 12.3-2.4 14.3-3.6 1-.5 1.6-1.5 1.7-2.6l.2-16.3.1-13.3z" class="K L M"/><path d="M250.582 69.073c1.1-.635 1.768-1.538 1.492-2.016s-1.392-.351-2.492.284-1.768 1.538-1.492 2.016 1.392.351 2.492-.284z"/></g><path d="M258 93.5c-4.7 0-8.6-3.8-8.6-8.6 0-4.7 3.8-8.6 8.6-8.6s8.6 3.8 8.6 8.6c0 2.3-.9 4.5-2.5 6.1s-3.8 2.5-6.1 2.5zm0-16.4c-4.3 0-7.8 3.5-7.8 7.8s3.5 7.8 7.8 7.8 7.8-3.5 7.8-7.8c0-2.1-.8-4.1-2.3-5.5-1.4-1.4-3.4-2.3-5.5-2.3zm5.5 6.4h-4.1v-4.1h-2.8v4.1h-4.1v2.8h4.1v4.1h2.8v-4.1h4.1v-2.8z" class="B"/><path d="M220.6 53.5l.7-.5c3-2.1 7.2-1.4 9.4 1.6l11.9 16.9c2.1 3 1.4 7.2-1.6 9.4l-.7.5c-3 2.1-7.2 1.4-9.4-1.6L219 62.9c-2.2-3-1.5-7.2 1.6-9.4z" class="F"/><path d="M220.815 58.523c.164-1.315-.192-2.443-.795-2.518s-1.225.931-1.388 2.246.192 2.443.795 2.517 1.225-.931 1.388-2.246z" class="D"/><path d="M237.4 64c-.3.1-7.6-1.4-12 8.1.9 1.5 1.9 3 3 4.4 1 1.4 2.6 3.8 3.3 4.3 3.3 2.3 7.4 1.7 8.7.8 4.7-3.5 3.8-7.9 1.3-11.7-1.9-2.9-4.3-5.9-4.3-5.9z" class="E"/><path d="M242.5 71l-5.2-7.4v-.1h-.1l-6.1-8.6c-2.5-3.2-7.1-3.9-10.3-1.4-3.1 2.3-3.8 6.7-1.7 9.9l11.4 16.2c2.5 3.2 7.1 3.8 10.3 1.3 3.1-2.4 3.8-6.7 1.7-9.9zm-23.2-7.9c-2.1-3.2-1.3-7.6 2-9.7 3.1-2 7.2-1.3 9.5 1.6l6 8.4c-7.5.3-10.9 6.5-11.6 7.9l-5.9-8.2zM240.6 81c-3.2 2.2-7.5 1.5-9.8-1.7l-5.2-7.4c.1-.3 3.4-7.8 11.6-7.9l5.1 7.2c2.2 3.2 1.4 7.6-1.7 9.8z" class="B"/><path d="M218.2 101.2l15.2-14c2.7-2.5 7-2.3 9.5.4l.6.6c2.5 2.7 2.3 7-.4 9.5l-15.2 14c-2.7 2.5-7 2.3-9.5-.4l-.6-.6c-2.5-2.7-2.4-6.9.4-9.5z" class="F"/><path d="M226.4 93.5c.1.2-.4 7.7 9.6 10.9 1.4-1.1 2.7-2.3 4-3.5s3.4-3.1 3.8-3.8c2.3-2.7 2.1-6.7-.5-9.1-4.1-4.2-8.1-2.3-11.6.5-2.6 2.2-5.3 5-5.3 5z" class="B"/><path d="M237.807 89.401c1.325-.006 2.398-.503 2.395-1.11s-1.079-1.095-2.405-1.09-2.398.503-2.395 1.111 1.079 1.095 2.405 1.089z" class="D"/><path d="M243.1 88c2.7 3 2.5 7.6-.4 10.4l-14.5 13.4c-3 2.8-7.6 2.6-10.4-.4s-2.6-7.6.4-10.4l14.6-13.4c2.9-2.8 7.6-2.6 10.3.4zM218 111c2.6 2.8 7 3 9.9.5l14.6-13.4c2.8-2.7 2.8-7.1.1-9.9-2.6-2.6-6.8-2.8-9.5-.4l-14.6 13.4c-2.9 2.6-3.1 7-.5 9.8z" class="B"/><path d="M235.8 104.5s-8.3-1.9-9.5-10.6" class="K L M"/><path d="M185.1 85.2H99.7c-5-.1-9 3.9-9.1 8.9v.1 39.4c-.1 9 11.4 9 11.4 9-3.7 5.7-8.1 14.4-8.1 14.4l21.2-14.4h70c5 .1 9-3.9 9.1-8.9v-.1-39.4c-.1-5-4.1-9-9.1-9z" fill="#169ec5"/><path d="M187.9 82.1h-85.4c-5-.1-9 3.9-9.1 8.9v.1 39.4a8.96 8.96 0 0 0 9 9h.1 2.3l-11 17.3 24.1-17.3h70c5 .1 9-3.9 9.1-8.9v-.1-39.4a8.96 8.96 0 0 0-9-9h-.1z" class="D"/><path d="M92.9 157.8l.7-1.1c.1-.1 7-11.2 10.8-16.9h-1.8c-5.1 0-9.3-4.1-9.3-9.2V91.2c0-5.1 4.2-9.3 9.3-9.2H188c5.1 0 9.3 4.1 9.4 9.2v39.4c0 5.1-4.2 9.3-9.4 9.2h-70l-25.1 18zm9.6-75.5a8.75 8.75 0 0 0-8.8 8.8v39.4c0 4.9 4 8.8 8.8 8.8h2.8l-.2.4-10.3 16.2 23.1-16.6H188c4.9 0 8.8-3.9 8.9-8.8V91.1c0-4.9-4-8.8-8.9-8.8h-85.5z" class="F"/><path d="M128 107.3c2.9.1 5.2 2.4 5.1 5.3s-2.4 5.2-5.3 5.1c-2.8-.1-5.1-2.4-5.1-5.2 0-2.9 2.4-5.2 5.3-5.2zm15.4 0c2.9.1 5.2 2.4 5.1 5.3s-2.4 5.2-5.3 5.1c-2.8-.1-5.1-2.4-5.1-5.2 0-2.9 2.4-5.2 5.3-5.2zm14.3 0c2.9.1 5.2 2.4 5.1 5.3s-2.4 5.2-5.3 5.1c-2.8-.1-5.1-2.4-5.1-5.2 0-2.9 2.4-5.2 5.3-5.2z" class="E"/><defs ><path id="B" d="M296.1 255.7s-2.7.7-2.4 1.3 3.1.7 4.8 3.4 1.7 4.3 2.7 4.2c.7-.1 1.3-.4 1.7-.9 0 0-.4-7.2-6.8-8z"/><path id="C" d="M297.1 195.2a1.4 1.4 0 1 0 0-2.8 1.4 1.4 0 0 0 0 2.8z"/></defs></svg>